BasicallyAMono-SemiBold.ufo
<glyph name="exclam" format="2">
  <advance width="1020"/>
  <unicode hex="0021"/>
  <outline>
    <contour>
      <point x="417.5821972734563" y="363.41619887730553" type="line"/>
      <point x="602.4178027265438" y="363.41619887730553" type="line"/>
      <point x="602.4178027265438" y="1170.0" type="line"/>
      <point x="417.5821972734563" y="1170.0" type="line"/>
    </contour>
    <contour>
      <point x="658.7129109863672" y="148.71291098636726" type="curve" smooth="yes"/>
      <point x="658.7129109863672" y="230.78980022766638"/>
      <point x="592.0768892412991" y="297.4258219727345"/>
      <point x="510.0" y="297.4258219727345" type="curve" smooth="yes"/>
      <point x="427.9231107587009" y="297.4258219727345"/>
      <point x="361.28708901363274" y="230.7898002276664"/>
      <point x="361.28708901363274" y="148.71291098636726" type="curve" smooth="yes"/>
      <point x="361.28708901363274" y="66.63602174506816"/>
      <point x="427.9231107587009" y="0.0"/>
      <point x="510.0" y="0.0" type="curve" smooth="yes"/>
      <point x="592.0768892412991" y="-2.6666720155230703e-14"/>
      <point x="658.7129109863672" y="66.63602174506812"/>
    </contour>
  </outline>
</glyph>
<glyph name="quotedbl" format="2">
  <advance width="980"/>
  <unicode hex="0022"/>
  <outline>
    <contour>
      <point x="570.0" y="900.0" type="line"/>
      <point x="750.0" y="900.0" type="line"/>
      <point x="750.0" y="1320.0" type="line"/>
      <point x="570.0" y="1320.0" type="line"/>
    </contour>
    <contour>
      <point x="230.0" y="900.0" type="line"/>
      <point x="410.0" y="900.0" type="line"/>
      <point x="410.0" y="1320.0" type="line"/>
      <point x="230.0" y="1320.0" type="line"/>
    </contour>
  </outline>
</glyph>
<glyph name="numbersign" format="2">
  <advance width="1020"/>
  <unicode hex="0023"/>
  <outline>
    <contour>
      <point x="152.01966857910156" y="0" type="line"/>
      <point x="340.3147888183594" y="0" type="line"/>
      <point x="398.1589126586914" y="297.5821990966797" type="line"/>
      <point x="510.1043701171875" y="297.5821990966797" type="line"/>
      <point x="452.26024627685547" y="0" type="line"/>
      <point x="640.5553665161133" y="0" type="line"/>
      <point x="698.3994903564453" y="297.5821990966797" type="line"/>
      <point x="888.584602355957" y="297.5821990966797" type="line"/>
      <point x="888.584602355957" y="482.4178009033203" type="line"/>
      <point x="734.3278884887695" y="482.4178009033203" type="line"/>
      <point x="774.2078094482422" y="687.5821990966797" type="line"/>
      <point x="963.6447525024414" y="687.5821990966797" type="line"/>
      <point x="963.6447525024414" y="872.4178009033203" type="line"/>
      <point x="810.1362075805664" y="872.4178009033203" type="line"/>
      <point x="867.9803314208984" y="1170" type="line"/>
      <point x="679.6852111816406" y="1170" type="line"/>
      <point x="621.8410873413086" y="872.4178009033203" type="line"/>
      <point x="509.8956298828125" y="872.4178009033203" type="line"/>
      <point x="567.7397537231445" y="1170" type="line"/>
      <point x="379.4446334838867" y="1170" type="line"/>
      <point x="321.6005096435547" y="872.4178009033203" type="line"/>
      <point x="131.41539764404297" y="872.4178009033203" type="line"/>
      <point x="131.41539764404297" y="687.5821990966797" type="line"/>
      <point x="285.67211151123047" y="687.5821990966797" type="line"/>
      <point x="245.7921905517578" y="482.4178009033203" type="line"/>
      <point x="56.355247497558594" y="482.4178009033203" type="line"/>
      <point x="56.355247497558594" y="297.5821990966797" type="line"/>
      <point x="209.8637924194336" y="297.5821990966797" type="line"/>
    </contour>
    <contour>
      <point x="434.0873107910156" y="482.4178009033203" type="line"/>
      <point x="473.9672317504883" y="687.5821990966797" type="line"/>
      <point x="585.9126892089844" y="687.5821990966797" type="line"/>
      <point x="546.0327682495117" y="482.4178009033203" type="line"/>
    </contour>
  </outline>
</glyph>
<glyph name="dollar" format="2">
  <advance width="1020"/>
  <unicode hex="0024"/>
  <outline>
    <contour>
      <point x="307.90838375108046" y="845.0367329299913" type="curve"/>
      <point x="307.9083837510804" y="908.6016229113502"/>
      <point x="361.2330939629528" y="962.9899928418859"/>
      <point x="436.44425201416016" y="984.8414611816406" type="curve"/>
      <point x="436.44425201416016" y="705.981315612793" type="line"/>
      <point x="361.5442115404324" y="729.2244381646643"/>
      <point x="307.90838375108046" y="781.507690178644"/>
    </contour>
    <contour>
      <point x="96.01555633544922" y="332.9753646850586" type="line"/>
      <point x="96.01555747623166" y="162.02069140255642"/>
      <point x="242.99782559149284" y="19.69408484877374"/>
      <point x="436.44425201416016" y="-9.505096435546875" type="curve"/>
      <point x="436.44425201416016" y="-112.01383209228516" type="line"/>
      <point x="583.5557479858398" y="-112.01383209228516" type="line"/>
      <point x="583.5557479858398" y="-9.505012512207031" type="line"/>
      <point x="777.0021744085071" y="19.69408484877365"/>
      <point x="923.9844425237684" y="162.02069140255634"/>
      <point x="923.9844425237685" y="332.97536732929984" type="curve"/>
      <point x="923.9844425237684" y="500.9144296908205"/>
      <point x="781.4505842568253" y="637.4548928958128"/>
      <point x="593.749306298786" y="673.8100225634892" type="curve"/>
      <point x="583.5557479858398" y="675.7843704223633" type="line"/>
      <point x="583.5557479858398" y="984.8427658081055" type="line"/>
      <point x="658.7669060370472" y="962.989992841886"/>
      <point x="712.0916162489196" y="908.6016229113503"/>
      <point x="712.0916162489195" y="845.0367329299913" type="curve"/>
      <point x="895.9809875488281" y="845.036735534668" type="line"/>
      <point x="895.980985306828" y="1007.6005672807873"/>
      <point x="761.4552538004519" y="1143.192331819634"/>
      <point x="583.5557479858398" y="1172.9380187988281" type="curve"/>
      <point x="583.5557479858398" y="1276.0242004394531" type="line"/>
      <point x="436.44425201416016" y="1276.0242004394531" type="line"/>
      <point x="436.44425201416016" y="1172.9329452514648" type="line"/>
      <point x="258.54474619954806" y="1143.192331819634"/>
      <point x="124.01901469317204" y="1007.6005672807873"/>
      <point x="124.01901469317207" y="845.0367329299913" type="curve"/>
      <point x="124.01901469317202" y="683.2004296205946"/>
      <point x="257.97993731040935" y="551.5730656876593"/>
      <point x="434.0585261207258" y="517.5449470909073" type="curve"/>
      <point x="436.44425201416016" y="517.0838928222656" type="line"/>
      <point x="436.44425201416016" y="177.47179412841797" type="line"/>
      <point x="345.47639822231656" y="199.36740702281486"/>
      <point x="279.90492653414003" y="260.75372683255534"/>
      <point x="279.90492653414003" y="332.97536732929996" type="curve"/>
    </contour>
    <contour>
      <point x="740.0950734658602" y="332.97536732929984" type="curve"/>
      <point x="740.09507346586" y="260.7537268325553"/>
      <point x="674.5236017776833" y="199.36740702281483"/>
      <point x="583.5557479858398" y="177.47354888916016" type="curve"/>
      <point x="583.5557479858398" y="487.8682861328125" type="line"/>
      <point x="674.1148663720483" y="463.96873362858963"/>
      <point x="740.09507346586" y="405.17017469879914"/>
    </contour>
  </outline>
</glyph>
<glyph name="percent" format="2">
  <advance width="1020"/>
  <unicode hex="0025"/>
  <outline>
    <contour>
      <point x="594.4426623897353" y="927.6844426623896" type="curve" smooth="yes"/>
      <point x="594.4426623897353" y="1069.700763636688"/>
      <point x="479.14342602642347" y="1185.0"/>
      <point x="337.1271050521251" y="1185.0" type="curve" smooth="yes"/>
      <point x="195.1107840778268" y="1185.0"/>
      <point x="79.81154771451486" y="1069.700763636688"/>
      <point x="79.81154771451486" y="927.6844426623896" type="curve" smooth="yes"/>
      <point x="79.81154771451486" y="785.6681216880914"/>
      <point x="195.11078407782674" y="670.3688853247794"/>
      <point x="337.12710505212505" y="670.3688853247794" type="curve" smooth="yes"/>
      <point x="479.14342602642336" y="670.3688853247794"/>
      <point x="594.4426623897353" y="785.6681216880913"/>
    </contour>
    <contour>
      <point x="423.8393985565357" y="927.6844426623896" type="curve" smooth="yes"/>
      <point x="423.8393985565357" y="879.8266254586571"/>
      <point x="384.9849222558577" y="840.9721491579791"/>
      <point x="337.1271050521251" y="840.9721491579791" type="curve" smooth="yes"/>
      <point x="289.2692878483924" y="840.9721491579791"/>
      <point x="250.41481154771455" y="879.8266254586571"/>
      <point x="250.41481154771455" y="927.6844426623896" type="curve" smooth="yes"/>
      <point x="250.41481154771455" y="975.5422598661223"/>
      <point x="289.2692878483925" y="1014.3967361668003"/>
      <point x="337.1271050521251" y="1014.3967361668003" type="curve" smooth="yes"/>
      <point x="384.9849222558577" y="1014.3967361668003"/>
      <point x="423.8393985565357" y="975.5422598661223"/>
    </contour>
    <contour>
      <point x="79.81154771451489" y="323.696872493961" type="line"/>
      <point x="940.1884522854851" y="720.309034929333" type="line"/>
      <point x="940.1884522854851" y="846.3031275060144" type="line"/>
      <point x="79.81154771451489" y="449.6909650706424" type="line"/>
    </contour>
    <contour>
      <point x="940.1884522854851" y="242.31555733761024" type="curve" smooth="yes"/>
      <point x="940.1884522854851" y="384.33187831190855"/>
      <point x="824.8892159221732" y="499.63111467522054"/>
      <point x="682.8728949478749" y="499.63111467522054" type="curve" smooth="yes"/>
      <point x="540.8565739735766" y="499.63111467522054"/>
      <point x="425.55733761026465" y="384.3318783119086"/>
      <point x="425.55733761026465" y="242.31555733761024" type="curve" smooth="yes"/>
      <point x="425.55733761026465" y="100.29923636331193"/>
      <point x="540.8565739735766" y="-15.000000000000014"/>
      <point x="682.8728949478749" y="-15.000000000000014" type="curve" smooth="yes"/>
      <point x="824.8892159221731" y="-15.000000000000014"/>
      <point x="940.1884522854851" y="100.29923636331186"/>
    </contour>
    <contour>
      <point x="769.5851884522855" y="242.31555733761024" type="curve" smooth="yes"/>
      <point x="769.5851884522855" y="194.4577401338776"/>
      <point x="730.7307121516075" y="155.60326383319966"/>
      <point x="682.8728949478749" y="155.60326383319966" type="curve" smooth="yes"/>
      <point x="635.0150777441423" y="155.60326383319966"/>
      <point x="596.1606014434643" y="194.45774013387762"/>
      <point x="596.1606014434643" y="242.31555733761024" type="curve" smooth="yes"/>
      <point x="596.1606014434643" y="290.1733745413429"/>
      <point x="635.0150777441423" y="329.0278508420208"/>
      <point x="682.8728949478749" y="329.0278508420208" type="curve" smooth="yes"/>
      <point x="730.7307121516075" y="329.0278508420208"/>
      <point x="769.5851884522855" y="290.1733745413429"/>
    </contour>
  </outline>
</glyph>
<glyph name="ampersand" format="2">
  <advance width="1020"/>
  <unicode hex="0026"/>
  <outline>
    <contour>
      <point x="383.44722747802734" y="864.1970367431641" type="line"/>
      <point x="372.9481593258956" y="878.7990763146989"/>
      <point x="367.30001647693786" y="896.329640980239"/>
      <point x="367.30001647693786" y="914.3143544506815" type="curve"/>
      <point x="367.30001647693786" y="961.6962810473937"/>
      <point x="405.7681299764567" y="1000.1643945469125"/>
      <point x="453.1500565731688" y="1000.1643945469125" type="curve" smooth="yes"/>
      <point x="500.5319831698809" y="1000.1643945469125"/>
      <point x="539.0000966693997" y="961.6962810473937"/>
      <point x="539.0000966693997" y="914.3143544506815" type="curve"/>
      <point x="539.0000966693997" y="886.7073914423569"/>
      <point x="525.7238981933622" y="860.7848177110967"/>
      <point x="503.32208709997144" y="844.650901066988" type="curve"/>
      <point x="433.6039123535156" y="794.439453125" type="line"/>
    </contour>
    <contour>
      <point x="322.7392926809762" y="486.8111959886712" type="curve"/>
      <point x="391.52095794677734" y="536.3481521606445" type="line"/>
      <point x="616.0194778442383" y="224.11709594726562" type="line"/>
      <point x="565.5340078222996" y="189.8541812815617"/>
      <point x="504.62449113480716" y="169.8356054530875"/>
      <point x="439.076279508213" y="169.8356054530875" type="curve"/>
      <point x="334.7324739427758" y="169.8356054530874"/>
      <point x="250.01854093563873" y="248.2432903455493"/>
      <point x="250.01854093563873" y="344.8195669607057" type="curve"/>
      <point x="250.01854093563873" y="401.0894970268539"/>
      <point x="277.07877061630563" y="453.92621834794693"/>
    </contour>
    <contour>
      <point x="453.1500565731688" y="1185.0" type="curve" smooth="yes"/>
      <point x="303.75458309610383" y="1185.0"/>
      <point x="182.46441102385046" y="1063.7098279277466"/>
      <point x="182.46441102385046" y="914.3143544506815" type="curve"/>
      <point x="182.46441102385046" y="857.6084546012534"/>
      <point x="200.27303629078264" y="802.3344884153704"/>
      <point x="233.37665976060362" y="756.294188775797" type="curve"/>
      <point x="283.6180725097656" y="686.4187698364258" type="line"/>
      <point x="214.71863555908203" y="636.796989440918" type="line"/>
      <point x="120.82689302965989" y="569.1756034594029"/>
      <point x="65.18293548255133" y="460.5274392414984"/>
      <point x="65.18293548255133" y="344.8195669607058" type="curve"/>
      <point x="65.18293548255133" y="146.22974346519646"/>
      <point x="232.71892706242295" y="-15.000000000000014"/>
      <point x="439.07627950821285" y="-15.000000000000014" type="curve"/>
      <point x="544.880845014534" y="-14.999999999999961"/>
      <point x="643.062276081693" y="17.898109667579906"/>
      <point x="723.9409713745117" y="74.0206069946289" type="curve"/>
      <point x="777.1628265380859" y="0" type="line"/>
      <point x="1004.8170623779297" y="0" type="line"/>
      <point x="855.4329299926758" y="207.76245880126953" type="line"/>
      <point x="908.6121806625827" y="287.2607242312004"/>
      <point x="939.6336171184776" y="382.814894616417"/>
      <point x="939.6336171184776" y="485.5573376102646" type="curve"/>
      <point x="754.7980117797852" y="485.55733489990234" type="line"/>
      <point x="754.7980116653902" y="446.7743407909557"/>
      <point x="747.7900097429236" y="409.615234868257"/>
      <point x="734.9722595214844" y="375.2983627319336" type="curve"/>
      <point x="541.5067901611328" y="644.3688430786133" type="line"/>
      <point x="611.3427429199219" y="694.6651077270508" type="line"/>
      <point x="681.9757757800079" y="745.5354325996408"/>
      <point x="723.8357021224872" y="827.2694492277124"/>
      <point x="723.8357021224872" y="914.3143544506815" type="curve"/>
      <point x="723.8357021224872" y="1063.7098279277466"/>
      <point x="602.5455300502338" y="1185.0"/>
    </contour>
  </outline>
</glyph>
<glyph name="quotesingle" format="2">
  <advance width="1020"/>
  <unicode hex="0027"/>
  <outline>
    <contour>
      <point x="417.5822" y="872.57418" type="line"/>
      <point x="602.4178" y="872.57418" type="line"/>
      <point x="602.4178" y="1282.59022" type="line"/>
      <point x="417.5822" y="1282.59022" type="line"/>
    </contour>
  </outline>
</glyph>
<glyph name="parenleft" format="2">
  <advance width="980"/>
  <unicode hex="0028"/>
  <outline>
    <contour>
      <point x="765.7841300406235" y="-210.0" type="line"/>
      <point x="454.41993237863835" y="274.2699692271858"/>
      <point x="454.4199323786381" y="895.7300307728144"/>
      <point x="765.7841326945481" y="1380.0000000000005" type="curve"/>
      <point x="556.3949012198227" y="1380.0" type="line"/>
      <point x="284.21586730545187" y="885.2769618797804"/>
      <point x="284.2163428710444" y="284.7199601276135"/>
      <point x="556.3963279166001" y="-210.0" type="curve"/>
    </contour>
  </outline>
</glyph>
<glyph name="parenright" format="2">
  <advance width="1020"/>
  <unicode hex="0029"/>
  <outline>
    <contour>
      <point x="266.46199" y="-92.4178" type="curve"/>
      <point x="475.4458" y="-92.4178" type="line"/>
      <point x="683.53801" y="335.02081"/>
      <point x="683.53788" y="834.97976"/>
      <point x="475.44541" y="1262.4178" type="curve"/>
      <point x="266.46199" y="1262.4178" type="line"/>
      <point x="506.75168" y="842.76874"/>
      <point x="506.75168" y="327.23126"/>
    </contour>
  </outline>
</glyph>
<glyph name="asterisk" format="2">
  <advance width="1020"/>
  <unicode hex="002A"/>
  <outline>
    <contour>
      <point x="103.42521667480469" y="367.84490966796875" type="line"/>
      <point x="195.84302520751953" y="207.77257537841797" type="line"/>
      <point x="417.5821990966797" y="335.7937469482422" type="line"/>
      <point x="417.5821990966797" y="79.75140380859375" type="line"/>
      <point x="602.4178009033203" y="79.75140380859375" type="line"/>
      <point x="602.4178009033203" y="335.7937469482422" type="line"/>
      <point x="824.1569747924805" y="207.77257537841797" type="line"/>
      <point x="916.5747833251953" y="367.84490966796875" type="line"/>
      <point x="694.8356094360352" y="495.86608123779297" type="line"/>
      <point x="916.5747833251953" y="623.8872528076172" type="line"/>
      <point x="824.1569747924805" y="783.9595794677734" type="line"/>
      <point x="602.4178009033203" y="655.9384078979492" type="line"/>
      <point x="602.4178009033203" y="911.9807510375977" type="line"/>
      <point x="417.5821990966797" y="911.9807510375977" type="line"/>
      <point x="417.5821990966797" y="655.9384078979492" type="line"/>
      <point x="195.84302520751953" y="783.9595794677734" type="line"/>
      <point x="103.42521667480469" y="623.8872528076172" type="line"/>
      <point x="325.16439056396484" y="495.86608123779297" type="line"/>
    </contour>
  </outline>
</glyph>
<glyph name="plus" format="2">
  <advance width="1020"/>
  <unicode hex="002B"/>
  <outline>
    <contour>
      <point x="96.01555633544922" y="401.3828887939453" type="line"/>
      <point x="418.05531311035156" y="401.3828887939453" type="line"/>
      <point x="418.05531311035156" y="79.34313201904297" type="line"/>
      <point x="601.9446868896484" y="79.34313201904297" type="line"/>
      <point x="601.9446868896484" y="401.3828887939453" type="line"/>
      <point x="923.9844436645508" y="401.3828887939453" type="line"/>
      <point x="923.9844436645508" y="585.2722549438477" type="line"/>
      <point x="601.9446868896484" y="585.2722549438477" type="line"/>
      <point x="601.9446868896484" y="907.31201171875" type="line"/>
      <point x="418.05531311035156" y="907.31201171875" type="line"/>
      <point x="418.05531311035156" y="585.2722549438477" type="line"/>
      <point x="96.01555633544922" y="585.2722549438477" type="line"/>
    </contour>
  </outline>
</glyph>
<glyph name="comma" format="2">
  <advance width="1020"/>
  <unicode hex="002C"/>
  <outline>
    <contour>
      <point x="504.9939880371094" y="-359.81957244873047" type="line"/>
      <point x="610.836326246831" y="-176.49525966931103"/>
      <point x="616.4915810234427" y="-17.283484584125"/>
      <point x="616.4915794053682" y="99.04511" type="curve"/>
      <point x="616.4915771484375" y="261.3031311035156" type="line"/>
      <point x="403.5084228515625" y="261.3031311035156" type="line"/>
      <point x="403.5084228515625" y="99.04511260986328" type="line"/>
      <point x="403.5084228515625" y="8.68711900080779"/>
      <point x="402.07776570748354" y="-112.10938212490257"/>
      <point x="320.54516" y="-253.32799" type="curve"/>
    </contour>
  </outline>
</glyph>
<glyph name="hyphen" format="2">
  <advance width="1020"/>
  <unicode hex="002D"/>
  <outline>
    <contour>
      <point x="96.01555747623166" y="401.3828867761452" type="line"/>
      <point x="923.9844425237684" y="401.3828867761452" type="line"/>
      <point x="923.9844425237684" y="585.2722558340536" type="line"/>
      <point x="96.01555747623166" y="585.2722558340536" type="line"/>
    </contour>
  </outline>
</glyph>
<glyph name="period" format="2">
  <advance width="1020"/>
  <unicode hex="002E"/>
  <outline>
    <contour>
      <point x="658.71291" y="148.71291" type="curve" smooth="yes"/>
      <point x="658.71291" y="230.7898"/>
      <point x="592.07689" y="297.42582"/>
      <point x="510.0" y="297.42582" type="curve" smooth="yes"/>
      <point x="427.92311" y="297.42582"/>
      <point x="361.28709" y="230.7898"/>
      <point x="361.28709" y="148.71291" type="curve" smooth="yes"/>
      <point x="361.28709" y="66.63602"/>
      <point x="427.92311" y="0.0"/>
      <point x="510.0" y="0.0" type="curve" smooth="yes"/>
      <point x="592.07689" y="-0.0"/>
      <point x="658.71291" y="66.63602"/>
    </contour>
  </outline>
</glyph>
<glyph name="slash" format="2">
  <advance width="1020"/>
  <unicode hex="002F"/>
  <outline>
    <contour>
      <point x="180.09111" y="0.0" type="line"/>
      <point x="376.78906" y="0.0" type="line"/>
      <point x="869.90889" y="1354.83561" type="line"/>
      <point x="673.21094" y="1354.83561" type="line"/>
    </contour>
  </outline>
</glyph>
<glyph name="zero" format="2">
  <advance width="1020"/>
  <unicode hex="0030"/>
  <outline>
    <contour>
      <point x="510.00000000000006" y="995.1210025929125" type="curve" smooth="yes"/>
      <point x="593.0714060139567" y="995.1210025929125"/>
      <point x="665.2575139726667" y="948.144823431476"/>
      <point x="701.4201278686523" y="879.2971343994141" type="curve"/>
      <point x="293.90665435791016" y="534.6764831542969" type="line"/>
      <point x="293.90665435791016" y="779.0276565551758" type="line"/>
      <point x="293.90665514261025" y="898.2928204843561"/>
      <point x="390.7348372511669" y="995.1210025929125"/>
    </contour>
    <contour>
      <point x="110.01728820800781" y="384.9827117919922" type="line"/>
      <point x="110.01728608470182" y="164.22624636508215"/>
      <point x="289.2435324497839" y="-14.999999999999957"/>
      <point x="510.0" y="-15.00000000000001" type="curve" smooth="yes"/>
      <point x="730.756467550216" y="-15.000000000000064"/>
      <point x="909.9827139152983" y="164.226246365082"/>
      <point x="909.9827139152983" y="384.9827139152981" type="curve"/>
      <point x="909.9827117919922" y="779.0276565551758" type="line"/>
      <point x="909.9827139152983" y="999.784125285739"/>
      <point x="730.756467550216" y="1179.0103716508208"/>
      <point x="510.00000000000006" y="1179.0103716508208" type="curve" smooth="yes"/>
      <point x="289.24353244978397" y="1179.0103716508208"/>
      <point x="110.01728608470188" y="999.784125285739"/>
      <point x="110.01728608470188" y="779.0276577355229" type="curve"/>
    </contour>
    <contour>
      <point x="726.0933456420898" y="384.9827117919922" type="line"/>
      <point x="726.0933448573899" y="265.71755116646494"/>
      <point x="629.2651627488333" y="168.88936905790834"/>
      <point x="510.00000000000006" y="168.88936905790837" type="curve" smooth="yes"/>
      <point x="418.4778223491494" y="168.8893690579084"/>
      <point x="340.1682935487219" y="225.90937498190561"/>
      <point x="308.68851470947266" y="306.34844970703125" type="curve"/>
      <point x="726.0933456420898" y="659.3338851928711" type="line"/>
    </contour>
  </outline>
</glyph>
<glyph name="one" format="2">
  <advance width="1020"/>
  <unicode hex="0031"/>
  <outline>
    <contour>
      <point x="124.99598693847656" y="0" type="line"/>
      <point x="915.0040130615234" y="0" type="line"/>
      <point x="915.0040130615234" y="184.83560180664062" type="line"/>
      <point x="635.8740997314453" y="184.83560180664062" type="line"/>
      <point x="635.8740997314453" y="1170" type="line"/>
      <point x="451.03849029541016" y="1170" type="line"/>
      <point x="124.99598693847656" y="981.75927734375" type="line"/>
      <point x="124.99598693847656" y="768.3294982910156" type="line"/>
      <point x="451.03849029541016" y="956.5702285766602" type="line"/>
      <point x="451.03849029541016" y="184.83560180664062" type="line"/>
      <point x="124.99598693847656" y="184.83560180664062" type="line"/>
    </contour>
  </outline>
</glyph>
<glyph name="two" format="2">
  <advance width="1020"/>
  <unicode hex="0032"/>
  <outline>
    <contour>
      <point x="114.68453216552734" y="0" type="line"/>
      <point x="905.3154678344727" y="0" type="line"/>
      <point x="905.3154678344727" y="183.88936614990234" type="line"/>
      <point x="403.81026458740234" y="183.88936614990234" type="line"/>
      <point x="761.4280242919922" y="478.64036560058594" type="line"/>
      <point x="852.5396470717039" y="553.735184248288"/>
      <point x="905.3154710458082" y="665.6247548665424"/>
      <point x="905.3154710458082" y="783.6949006050129" type="curve"/>
      <point x="905.3154710458082" y="1001.8754467135694"/>
      <point x="728.1805461085567" y="1179.0103716508208"/>
      <point x="510.0" y="1179.0103716508208" type="curve" smooth="yes"/>
      <point x="291.81945389144335" y="1179.0103716508208"/>
      <point x="114.68452895419188" y="1001.8754467135694"/>
      <point x="114.68452895419188" y="783.6949006050129" type="curve"/>
      <point x="298.5738983154297" y="783.6949005126953" type="line"/>
      <point x="298.57389801210024" y="900.3841419121866"/>
      <point x="393.31075869282625" y="995.1210025929125"/>
      <point x="510.0" y="995.1210025929125" type="curve" smooth="yes"/>
      <point x="626.6892413071737" y="995.1210025929125"/>
      <point x="721.4261019878998" y="900.3841419121866"/>
      <point x="721.4261019878998" y="783.6949006050129" type="curve"/>
      <point x="721.4261019878998" y="720.547585351734"/>
      <point x="693.2000709840399" y="660.7058197200112"/>
      <point x="644.4709513018479" y="620.5429473290136" type="curve"/>
      <point x="114.68453216552734" y="183.88936614990234" type="line"/>
    </contour>
  </outline>
</glyph>
<glyph name="three" format="2">
  <advance width="1020"/>
  <unicode hex="0033"/>
  <outline>
    <contour>
      <point x="107.95909881591797" y="337.11102294921875" type="line"/>
      <point x="107.95910184442664" y="142.7756593259003"/>
      <point x="288.1075896536487" y="-14.999999999999961"/>
      <point x="509.99999999999994" y="-15.000000000000014" type="curve" smooth="yes"/>
      <point x="731.8924103463512" y="-15.000000000000068"/>
      <point x="912.0408981555734" y="142.7756593259002"/>
      <point x="912.0408981555734" y="337.1110199362189" type="curve"/>
      <point x="912.0408981555734" y="441.11502955692805"/>
      <point x="860.4435804435659" y="534.6477743584403"/>
      <point x="778.4639358520508" y="599.1222686767578" type="curve"/>
      <point x="852.0989021993385" y="661.0632936016071"/>
      <point x="897.9671210906174" y="748.2168143302961"/>
      <point x="897.9671210906175" y="844.6932172096754" type="curve"/>
      <point x="897.9671210906174" y="1032.5136420395331"/>
      <point x="724.1248813960706" y="1185.0"/>
      <point x="510.0" y="1185.0" type="curve" smooth="yes"/>
      <point x="295.8751186039294" y="1185.0"/>
      <point x="122.03287890938253" y="1032.5136420395331"/>
      <point x="122.03287890938253" y="844.6932172096753" type="curve"/>
      <point x="306.8684844970703" y="844.6932144165039" type="line"/>
      <point x="306.8684843624699" y="930.5000951591801"/>
      <point x="397.8886654842823" y="1000.1643945469125"/>
      <point x="510.0" y="1000.1643945469125" type="curve" smooth="yes"/>
      <point x="622.1113345157177" y="1000.1643945469125"/>
      <point x="713.13151563753" y="930.5000951591801"/>
      <point x="713.13151563753" y="844.6932172096753" type="curve"/>
      <point x="713.13151563753" y="758.8863392601704"/>
      <point x="622.1113345157177" y="689.222039872438"/>
      <point x="510.0" y="689.222039872438" type="curve"/>
      <point x="421.5697708129883" y="689.222038269043" type="line"/>
      <point x="421.5697708129883" y="504.38643646240234" type="line"/>
      <point x="510" y="504.38643646240234" type="line"/>
      <point x="629.8788634659984" y="504.3864344193506"/>
      <point x="727.205292702486" y="429.4328336661849"/>
      <point x="727.205292702486" y="337.11101993621895" type="curve"/>
      <point x="727.205292702486" y="244.78920620625308"/>
      <point x="629.8788634659984" y="169.83560545308737"/>
      <point x="510.0" y="169.8356054530874" type="curve" smooth="yes"/>
      <point x="390.12113653400155" y="169.83560545308742"/>
      <point x="292.79470729751404" y="244.78920620625314"/>
      <point x="292.79470729751404" y="337.11101993621895" type="curve"/>
    </contour>
  </outline>
</glyph>
<glyph name="four" format="2">
  <advance width="980"/>
  <unicode hex="0034"/>
  <outline>
    <contour>
      <point x="295.517333984375" y="450" type="line"/>
      <point x="573.8461532592773" y="872.6956405639648" type="line"/>
      <point x="573.8461532592773" y="450" type="line"/>
    </contour>
    <contour>
      <point x="80" y="270" type="line"/>
      <point x="573.8461532592773" y="270" type="line"/>
      <point x="573.8461532592773" y="-30" type="line"/>
      <point x="753.8461532592773" y="-30" type="line"/>
      <point x="753.8461532592773" y="270" type="line"/>
      <point x="920" y="270" type="line"/>
      <point x="920" y="450" type="line"/>
      <point x="753.8461532592773" y="450" type="line"/>
      <point x="753.8461532592773" y="1200" type="line"/>
      <point x="573.8461532592773" y="1200" type="line"/>
      <point x="80" y="450" type="line"/>
    </contour>
  </outline>
</glyph>
<glyph name="five" format="2">
  <advance width="1020"/>
  <unicode hex="0035"/>
  <outline>
    <contour>
      <point x="132.0173568725586" y="494.8810729980469" type="line"/>
      <point x="335.36173248291016" y="494.8810729980469" type="line"/>
      <point x="373.39687" y="550.52904"/>
      <point x="437.34544" y="587.06796"/>
      <point x="509.7608" y="587.06796" type="curve" smooth="yes"/>
      <point x="626.27899" y="587.06796"/>
      <point x="720.87698" y="492.46997"/>
      <point x="720.87698" y="375.95178" type="curve" smooth="yes"/>
      <point x="720.87698" y="259.43359"/>
      <point x="626.27899" y="164.83561"/>
      <point x="509.7608" y="164.83561" type="curve" smooth="yes"/>
      <point x="425.73499" y="164.83561"/>
      <point x="353.10859" y="214.03048"/>
      <point x="319.13742" y="285.17006" type="curve"/>
      <point x="124.28742218017578" y="285.17005920410156" type="line"/>
      <point x="165.37351" y="110.32118"/>
      <point x="322.46817" y="-20.0"/>
      <point x="509.7608" y="-20.0" type="curve" smooth="yes"/>
      <point x="728.29254" y="-20.0"/>
      <point x="905.71258" y="157.42005"/>
      <point x="905.71258" y="375.95178" type="curve" smooth="yes"/>
      <point x="905.71258" y="594.48352"/>
      <point x="728.29254" y="771.90357"/>
      <point x="509.7608" y="771.90357" type="curve" smooth="yes"/>
      <point x="447.86185304178" y="771.90357"/>
      <point x="389.2613020609654" y="757.669136767508"/>
      <point x="337.0565872192383" y="732.295768737793" type="curve"/>
      <point x="357.9072036743164" y="985.1643905639648" type="line"/>
      <point x="856.2667083740234" y="985.1643905639648" type="line"/>
      <point x="856.2667083740234" y="1170" type="line"/>
      <point x="187.6851806640625" y="1170" type="line"/>
    </contour>
  </outline>
</glyph>
<glyph name="six" format="2">
  <advance width="1020"/>
  <unicode hex="0036"/>
  <outline>
    <contour>
      <point x="922.65838" y="392.65838" type="curve" smooth="yes"/>
      <point x="922.65838" y="620.41074"/>
      <point x="737.75236" y="805.31676"/>
      <point x="510.0" y="805.31676" type="curve" smooth="yes"/>
      <point x="505.49665258571997" y="805.31676"/>
      <point x="501.01005687050184" y="805.2444670106394"/>
      <point x="496.5413513183594" y="805.0920181274414" type="curve"/>
      <point x="721.4002075195312" y="1170" type="line"/>
      <point x="504.29026794433594" y="1170" type="line"/>
      <point x="158.6850814819336" y="609.1410980224609" type="line"/>
      <point x="158.6993179321289" y="609.13232421875" type="line"/>
      <point x="119.79835665251974" y="546.1962879587654"/>
      <point x="97.34162" y="472.02916645056007"/>
      <point x="97.34162000000002" y="392.65838" type="curve" smooth="yes"/>
      <point x="97.34162" y="164.90602"/>
      <point x="282.24764" y="-20.0"/>
      <point x="510.0" y="-20.0" type="curve" smooth="yes"/>
      <point x="737.75236" y="-20.0"/>
      <point x="922.65838" y="164.90602"/>
    </contour>
    <contour>
      <point x="737.82277" y="392.65838" type="curve" smooth="yes"/>
      <point x="737.82277" y="266.91957"/>
      <point x="635.73881" y="164.83561"/>
      <point x="510.0" y="164.83561" type="curve" smooth="yes"/>
      <point x="384.26119" y="164.83561"/>
      <point x="282.17723" y="266.91957"/>
      <point x="282.17723" y="392.65838" type="curve" smooth="yes"/>
      <point x="282.17723" y="518.39719"/>
      <point x="384.26119" y="620.48115"/>
      <point x="510.0" y="620.48115" type="curve" smooth="yes"/>
      <point x="635.73881" y="620.48115"/>
      <point x="737.82277" y="518.39719"/>
    </contour>
  </outline>
</glyph>
<glyph name="seven" format="2">
  <advance width="980"/>
  <unicode hex="0037"/>
  <outline>
    <contour>
      <point x="267.6923065185547" y="-30" type="line"/>
      <point x="460.5821228027344" y="-30" type="line"/>
      <point x="865" y="1020" type="line"/>
      <point x="865" y="1200" type="line"/>
      <point x="65" y="1200" type="line"/>
      <point x="65" y="1020" type="line"/>
      <point x="672.1101913452148" y="1020" type="line"/>
    </contour>
  </outline>
</glyph>
<glyph name="eight" format="2">
  <advance width="980"/>
  <unicode hex="0038"/>
  <outline>
    <contour>
      <point x="890.0" y="332.5" type="curve" smooth="yes"/>
      <point x="890.0" y="442.63008894208497"/>
      <point x="835.6909870941353" y="541.3555120710497"/>
      <point x="750.0408401489258" y="607.855354309082" type="curve"/>
      <point x="823.8632293639297" y="670.3406291626187"/>
      <point x="870.0" y="759.1024253477341"/>
      <point x="870.0" y="857.5" type="curve" smooth="yes"/>
      <point x="870.0" y="1046.53089435"/>
      <point x="699.7277076" y="1200.0"/>
      <point x="490.0" y="1200.0" type="curve" smooth="yes"/>
      <point x="280.2722924" y="1200.0"/>
      <point x="110.0" y="1046.53089435"/>
      <point x="110.0" y="857.5" type="curve" smooth="yes"/>
      <point x="110.0" y="759.1022363168397"/>
      <point x="156.13694790229704" y="670.3402881233192"/>
      <point x="229.95960235595703" y="607.854377746582" type="curve"/>
      <point x="144.30921022833041" y="541.3558707725459"/>
      <point x="89.99999999999997" y="442.6302890112798"/>
      <point x="90.00000000000001" y="332.5" type="curve" smooth="yes"/>
      <point x="90.0" y="132.43080525000005"/>
      <point x="269.23399199999994" y="-30.0"/>
      <point x="489.99999999999994" y="-30.0" type="curve" smooth="yes"/>
      <point x="710.7660079999999" y="-30.000000000000057"/>
      <point x="890.0" y="132.43080524999993"/>
    </contour>
    <contour>
      <point x="690.0" y="857.5" type="curve" smooth="yes"/>
      <point x="690.0" y="767.81380925"/>
      <point x="600.383004" y="695.0"/>
      <point x="490.0" y="695.0" type="curve" smooth="yes"/>
      <point x="379.616996" y="695.0"/>
      <point x="290.0" y="767.8138092500001"/>
      <point x="290.0" y="857.5" type="curve" smooth="yes"/>
      <point x="290.0" y="947.18619075"/>
      <point x="379.61699600000003" y="1020.0"/>
      <point x="490.0" y="1020.0" type="curve" smooth="yes"/>
      <point x="600.383004" y="1020.0"/>
      <point x="690.0" y="947.18619075"/>
    </contour>
    <contour>
      <point x="710.0" y="332.5" type="curve" smooth="yes"/>
      <point x="710.0" y="231.77550884999994"/>
      <point x="611.4213043999999" y="149.99999999999997"/>
      <point x="490.0" y="150.0" type="curve" smooth="yes"/>
      <point x="368.57869559999995" y="150.00000000000003"/>
      <point x="270.0" y="231.77550885"/>
      <point x="270.0" y="332.5" type="curve" smooth="yes"/>
      <point x="270.0" y="433.22449115"/>
      <point x="368.5786956" y="515.0"/>
      <point x="490.0" y="515.0" type="curve" smooth="yes"/>
      <point x="611.4213044" y="515.0"/>
      <point x="710.0" y="433.22449115"/>
    </contour>
  </outline>
</glyph>
<glyph name="nine" format="2">
  <advance width="1020"/>
  <unicode hex="0039"/>
  <outline>
    <contour>
      <point x="914.3865276663994" y="780.6134723336006" type="curve" smooth="yes"/>
      <point x="914.3865276663994" y="1003.8004708383318"/>
      <point x="733.1869985047314" y="1185.0"/>
      <point x="510.00000000000006" y="1185.0" type="curve" smooth="yes"/>
      <point x="286.81300149526874" y="1185.0"/>
      <point x="105.61347233360073" y="1003.800470838332"/>
      <point x="105.61347233360073" y="780.6134723336006" type="curve" smooth="yes"/>
      <point x="105.61347233360067" y="557.4264738288693"/>
      <point x="286.8130014952686" y="376.2269446672013"/>
      <point x="510.0" y="376.2269446672012" type="curve" smooth="yes"/>
      <point x="519.8775869928239" y="376.2269446672012"/>
      <point x="529.6729338831626" y="376.58185693225744"/>
      <point x="539.3742370605469" y="377.28746032714844" type="curve"/>
      <point x="332.67271423339844" y="0" type="line"/>
      <point x="543.4301300048828" y="0" type="line"/>
      <point x="863.6007843017578" y="584.4000244140625" type="line"/>
      <point x="895.9522218920663" y="642.5100572516367"/>
      <point x="914.3865276663994" y="709.42597047753"/>
    </contour>
    <contour>
      <point x="729.550922213312" y="780.6134723336006" type="curve" smooth="yes"/>
      <point x="729.550922213312" y="659.440020709222"/>
      <point x="631.1734516243785" y="561.0625501202886"/>
      <point x="510.0" y="561.0625501202886" type="curve" smooth="yes"/>
      <point x="388.82654837562154" y="561.0625501202886"/>
      <point x="290.4490777866881" y="659.4400207092222"/>
      <point x="290.4490777866881" y="780.6134723336006" type="curve" smooth="yes"/>
      <point x="290.4490777866881" y="901.7869239579791"/>
      <point x="388.8265483756216" y="1000.1643945469125"/>
      <point x="510.00000000000006" y="1000.1643945469125" type="curve" smooth="yes"/>
      <point x="631.1734516243786" y="1000.1643945469125"/>
      <point x="729.550922213312" y="901.7869239579791"/>
    </contour>
  </outline>
</glyph>
<glyph name="colon" format="2">
  <advance width="1020"/>
  <unicode hex="003A"/>
  <outline>
    <contour>
      <point x="658.71291" y="683.51644" type="curve" smooth="yes"/>
      <point x="658.71291" y="765.59333"/>
      <point x="592.07689" y="832.22935"/>
      <point x="510.0" y="832.22935" type="curve" smooth="yes"/>
      <point x="427.92311" y="832.22935"/>
      <point x="361.28709" y="765.59333"/>
      <point x="361.28709" y="683.51644" type="curve" smooth="yes"/>
      <point x="361.28709" y="601.43955"/>
      <point x="427.92311" y="534.80353"/>
      <point x="510.0" y="534.80353" type="curve" smooth="yes"/>
      <point x="592.07689" y="534.80353"/>
      <point x="658.71291" y="601.43955"/>
    </contour>
    <contour>
      <point x="658.71291" y="148.71291" type="curve" smooth="yes"/>
      <point x="658.71291" y="230.7898"/>
      <point x="592.07689" y="297.42582"/>
      <point x="510.0" y="297.42582" type="curve" smooth="yes"/>
      <point x="427.92311" y="297.42582"/>
      <point x="361.28709" y="230.7898"/>
      <point x="361.28709" y="148.71291" type="curve" smooth="yes"/>
      <point x="361.28709" y="66.63602"/>
      <point x="427.92311" y="0.0"/>
      <point x="510.0" y="0.0" type="curve" smooth="yes"/>
      <point x="592.07689" y="-0.0"/>
      <point x="658.71291" y="66.63602"/>
    </contour>
  </outline>
</glyph>
<glyph name="semicolon" format="2">
  <advance width="1020"/>
  <unicode hex="003B"/>
  <outline>
    <contour>
      <point x="658.71291" y="683.51644" type="curve" smooth="yes"/>
      <point x="658.71291" y="765.59333"/>
      <point x="592.07689" y="832.22935"/>
      <point x="510.0" y="832.22935" type="curve" smooth="yes"/>
      <point x="427.92311" y="832.22935"/>
      <point x="361.28709" y="765.59333"/>
      <point x="361.28709" y="683.51644" type="curve" smooth="yes"/>
      <point x="361.28709" y="601.43955"/>
      <point x="427.92311" y="534.80353"/>
      <point x="510.0" y="534.80353" type="curve" smooth="yes"/>
      <point x="592.07689" y="534.80353"/>
      <point x="658.71291" y="601.43955"/>
    </contour>
    <contour>
      <point x="504.9939880371094" y="-359.81957244873047" type="line"/>
      <point x="578.03737" y="-233.30472"/>
      <point x="616.49158" y="-89.79166"/>
      <point x="616.49158" y="56.29511" type="curve"/>
      <point x="616.4915771484375" y="261.3031311035156" type="line"/>
      <point x="403.5084228515625" y="261.3031311035156" type="line"/>
      <point x="403.5084228515625" y="56.29511260986328" type="line"/>
      <point x="403.50842" y="-52.4053"/>
      <point x="374.89537" y="-159.19067"/>
      <point x="320.54516" y="-253.32799" type="curve"/>
    </contour>
  </outline>
</glyph>
<glyph name="less" format="2">
  <advance width="1020"/>
  <unicode hex="003C"/>
  <outline>
    <contour>
      <point x="91.38532257080078" y="595.4724502563477" type="line"/>
      <point x="91.38532257080078" y="396.2597122192383" type="line"/>
      <point x="923.6146774291992" y="61.6900634765625" type="line"/>
      <point x="923.6146774291992" y="260.9028015136719" type="line"/>
      <point x="339.1523971557617" y="495.86608123779297" type="line"/>
      <point x="923.6146774291992" y="730.8293609619141" type="line"/>
      <point x="923.6146774291992" y="930.0420989990234" type="line"/>
    </contour>
  </outline>
</glyph>
<glyph name="equal" format="2">
  <advance width="1020"/>
  <unicode hex="003D"/>
  <outline>
    <contour>
      <point x="93.88532" y="580.30874" type="line"/>
      <point x="926.11468" y="580.30874" type="line"/>
      <point x="926.11468" y="765.14435" type="line"/>
      <point x="93.88532" y="765.14435" type="line"/>
    </contour>
    <contour>
      <point x="93.88532" y="226.58781" type="line"/>
      <point x="926.11468" y="226.58781" type="line"/>
      <point x="926.11468" y="411.42342" type="line"/>
      <point x="93.88532" y="411.42342" type="line"/>
    </contour>
  </outline>
</glyph>
<glyph name="greater" format="2">
  <advance width="1020"/>
  <unicode hex="003E"/>
  <outline>
    <contour>
      <point x="926.4844436645508" y="591.7247772216797" type="line"/>
      <point x="98.51555633544922" y="907.31201171875" type="line"/>
      <point x="98.51555633544922" y="710.5175933837891" type="line"/>
      <point x="668.3313217163086" y="493.3275680541992" type="line"/>
      <point x="98.51555633544922" y="276.1375503540039" type="line"/>
      <point x="98.51555633544922" y="79.34313201904297" type="line"/>
      <point x="926.4844436645508" y="394.93035888671875" type="line"/>
    </contour>
  </outline>
</glyph>
<glyph name="question" format="2">
  <advance width="1020"/>
  <unicode hex="003F"/>
  <outline>
    <contour>
      <point x="413.05531311035156" y="361.55574798583984" type="line"/>
      <point x="596.9446868896484" y="361.55574798583984" type="line"/>
      <point x="596.9446868896484" y="456.00965118408203" type="line"/>
      <point x="755.2354622555786" y="496.8678834748165"/>
      <point x="872.3120138288677" y="640.718659022248"/>
      <point x="872.3120138288677" y="811.6983578219532" type="curve"/>
      <point x="872.3120138288677" y="1014.423375280553"/>
      <point x="707.7250174585998" y="1179.0103716508208"/>
      <point x="505.0" y="1179.0103716508208" type="curve" smooth="yes"/>
      <point x="302.27498254140016" y="1179.0103716508208"/>
      <point x="137.68798617113225" y="1014.423375280553"/>
      <point x="137.68798617113225" y="811.6983578219532" type="curve"/>
      <point x="321.57735443115234" y="811.698356628418" type="line"/>
      <point x="321.5773552290406" y="912.9320704791702"/>
      <point x="403.7662873427831" y="995.1210025929125"/>
      <point x="505.0" y="995.1210025929125" type="curve" smooth="yes"/>
      <point x="606.233712657217" y="995.1210025929125"/>
      <point x="688.4226447709593" y="912.9320704791702"/>
      <point x="688.4226447709593" y="811.6983578219532" type="curve"/>
      <point x="688.4226447709593" y="710.4646451647363"/>
      <point x="606.233712657217" y="628.2757130509938"/>
      <point x="505.0" y="628.2757130509938" type="curve"/>
      <point x="413.05531311035156" y="628.2757110595703" type="line"/>
    </contour>
    <contour>
      <point x="652.9515989628349" y="147.9515989628349" type="curve" smooth="yes"/>
      <point x="652.9515989628349" y="229.6083086634399"/>
      <point x="586.656709700605" y="295.9031979256698"/>
      <point x="505.0" y="295.9031979256698" type="curve" smooth="yes"/>
      <point x="423.343290299395" y="295.9031979256698"/>
      <point x="357.0484010371651" y="229.60830866343994"/>
      <point x="357.0484010371651" y="147.9515989628349" type="curve" smooth="yes"/>
      <point x="357.0484010371651" y="66.2948892622299"/>
      <point x="423.34329029939494" y="0.0"/>
      <point x="505.0" y="0.0" type="curve" smooth="yes"/>
      <point x="586.656709700605" y="-2.65302041355543e-14"/>
      <point x="652.9515989628349" y="66.29488926222986"/>
    </contour>
  </outline>
</glyph>
<glyph name="at" format="2">
  <advance width="1020"/>
  <unicode hex="0040"/>
  <outline>
    <contour>
      <point x="93.88532257080078" y="401.1146774291992" type="line"/>
      <point x="278.72093200683594" y="401.1146774291992" type="line"/>
      <point x="278.72093200683594" y="768.8853225708008" type="line"/>
      <point x="278.7209302325582" y="896.5317171957497"/>
      <point x="382.353607583721" y="1000.1643945469125"/>
      <point x="510.00000000000006" y="1000.1643945469125" type="curve" smooth="yes"/>
      <point x="637.6463924162791" y="1000.1643945469125"/>
      <point x="741.2790697674419" y="896.5317171957497"/>
      <point x="741.2790697674419" y="768.8853247794707" type="curve"/>
      <point x="741.2790679931641" y="572.0328826904297" type="line"/>
      <point x="741.2790697674419" y="549.7659625852446"/>
      <point x="723.201158505373" y="531.6880513231756"/>
      <point x="700.934242181235" y="531.6880513231756" type="curve"/>
      <point x="606.4835586547852" y="531.6880493164062" type="line"/>
      <point x="606.4835586547852" y="726.6639938354492" type="line"/>
      <point x="606.4835605453088" y="779.9147198326383"/>
      <point x="563.2507262480353" y="823.1475541299118"/>
      <point x="510.00000000000006" y="823.1475541299118" type="curve" smooth="yes"/>
      <point x="456.7492737519648" y="823.1475541299118"/>
      <point x="413.51643945469135" y="779.9147198326383"/>
      <point x="413.51643945469135" y="726.663993584603" type="curve" smooth="yes"/>
      <point x="413.51644134521484" y="443.3360061645508" type="line"/>
      <point x="413.51643945469135" y="390.08528016736165"/>
      <point x="456.7492737519647" y="346.8524458700882"/>
      <point x="510.00000000000006" y="346.8524458700882" type="curve" smooth="yes"/>
      <point x="700.9342422485352" y="346.8524475097656" type="line"/>
      <point x="825.2147053857259" y="346.8524458700882"/>
      <point x="926.1146752205293" y="447.75241570489175"/>
      <point x="926.1146752205293" y="572.0328789093825" type="curve"/>
      <point x="926.1146774291992" y="768.8853225708008" type="line"/>
      <point x="926.1146752205293" y="998.5452640761026"/>
      <point x="739.659939296632" y="1185.0"/>
      <point x="510.00000000000006" y="1185.0" type="curve" smooth="yes"/>
      <point x="280.3400607033682" y="1185.0"/>
      <point x="93.8853247794708" y="998.5452640761026"/>
      <point x="93.8853247794708" y="768.8853247794707" type="curve"/>
    </contour>
    <contour>
      <point x="93.8853247794708" y="401.1146722837936" type="line"/>
      <point x="93.88532477947075" y="171.45473592389737"/>
      <point x="280.34006070336807" y="-14.999999999999961"/>
      <point x="510.0" y="-15.000000000000014" type="curve" smooth="yes"/>
      <point x="695.8360000201093" y="-15.000000000000057"/>
      <point x="853.3825007698788" y="107.0850893899321"/>
      <point x="906.742057524974" y="275.37690457097034" type="curve"/>
      <point x="704.0845640621476" y="275.37690457097034" type="line"/>
      <point x="662.8356878873017" y="211.86197968071158"/>
      <point x="591.2870097401803" y="169.83560545308737"/>
      <point x="510.00000000000006" y="169.83560545308734" type="curve" smooth="yes"/>
      <point x="382.353607583721" y="169.83560545308742"/>
      <point x="278.7209302325582" y="273.46828280425024"/>
      <point x="278.7209302325582" y="401.1146752205293" type="curve"/>
    </contour>
  </outline>
</glyph>
<glyph name="A" format="2">
  <advance width="980"/>
  <unicode hex="0041"/>
  <outline>
    <contour>
      <point x="40" y="-30" type="line"/>
      <point x="227.3999252319336" y="-30" type="line"/>
      <point x="310.99180603027344" y="258.57142639160156" type="line"/>
      <point x="669.0081939697266" y="258.57142639160156" type="line"/>
      <point x="752.6000747680664" y="-30" type="line"/>
      <point x="940" y="-30" type="line"/>
      <point x="583.6999664306641" y="1200" type="line"/>
      <point x="396.30003356933594" y="1200" type="line"/>
    </contour>
    <contour>
      <point x="363.1332702636719" y="438.57142639160156" type="line"/>
      <point x="490" y="876.5339736938477" type="line"/>
      <point x="616.8667297363281" y="438.57142639160156" type="line"/>
    </contour>
  </outline>
</glyph>
<glyph name="B" format="2">
  <advance width="1020"/>
  <unicode hex="0042"/>
  <outline>
    <contour>
      <point x="108.88532257080078" y="0" type="line"/>
      <point x="602.4057769775391" y="0" type="line"/>
      <point x="789.3443039273457" y="0.0"/>
      <point x="941.1146752205293" y="151.77037129318367"/>
      <point x="941.1146752205293" y="338.7089013632718" type="curve" smooth="yes"/>
      <point x="941.1146752205293" y="446.5789760622652"/>
      <point x="890.5797870850457" y="542.7391303428085"/>
      <point x="811.9133682250977" y="604.7802200317383" type="curve"/>
      <point x="865.9736777092911" y="664.7934649532854"/>
      <point x="898.8933440256615" y="744.2282170271859"/>
      <point x="898.8933440256615" y="831.2910986367281" type="curve" smooth="yes"/>
      <point x="898.8933440256615" y="1018.2296287068164"/>
      <point x="747.122972732478" y="1170.0"/>
      <point x="560.1844426623898" y="1170.0" type="curve"/>
      <point x="108.88532257080078" y="1170" type="line"/>
    </contour>
    <contour>
      <point x="560.184440612793" y="985.1643981933594" type="line"/>
      <point x="645.109425852125" y="985.1643945469126"/>
      <point x="714.0577385725742" y="916.2160818264634"/>
      <point x="714.0577385725742" y="831.2910986367281" type="curve" smooth="yes"/>
      <point x="714.0577385725742" y="746.3661154469928"/>
      <point x="645.1094258521252" y="677.4178027265436"/>
      <point x="560.1844426623898" y="677.4178027265436" type="curve"/>
      <point x="293.72093200683594" y="677.4178009033203" type="line"/>
      <point x="293.72093200683594" y="985.1643981933594" type="line"/>
    </contour>
    <contour>
      <point x="602.4057769775391" y="492.5821990966797" type="line"/>
      <point x="687.3307570469926" y="492.5821972734563"/>
      <point x="756.2790697674418" y="423.6338845530072"/>
      <point x="756.2790697674418" y="338.7089013632718" type="curve" smooth="yes"/>
      <point x="756.2790697674418" y="253.7839181735365"/>
      <point x="687.3307570469929" y="184.8356054530874"/>
      <point x="602.4057738572574" y="184.8356054530874" type="curve"/>
      <point x="293.72093200683594" y="184.83560180664062" type="line"/>
      <point x="293.72093200683594" y="492.5821990966797" type="line"/>
    </contour>
  </outline>
</glyph>
<glyph name="D" format="2">
  <advance width="1020"/>
  <unicode hex="0044"/>
  <outline>
    <contour>
      <point x="103.42221069335938" y="0" type="line"/>
      <point x="505.4631118774414" y="0" type="line"/>
      <point x="735.123050764154" y="0.0"/>
      <point x="921.5777866880513" y="186.45473592389735"/>
      <point x="921.5777866880513" y="416.11467522052925" type="curve"/>
      <point x="921.5777893066406" y="753.8853225708008" type="line"/>
      <point x="921.5777866880513" y="983.5452640761026"/>
      <point x="735.123050764154" y="1170.0"/>
      <point x="505.463111467522" y="1170.0" type="curve"/>
      <point x="103.42221069335938" y="1170" type="line"/>
    </contour>
    <contour>
      <point x="736.7421798706055" y="416.1146774291992" type="line"/>
      <point x="736.7421812349638" y="288.4682828042502"/>
      <point x="633.1095038838012" y="184.8356054530874"/>
      <point x="505.463111467522" y="184.8356054530874" type="curve"/>
      <point x="288.25782012939453" y="184.83560180664062" type="line"/>
      <point x="288.25782012939453" y="985.1643981933594" type="line"/>
      <point x="505.4631118774414" y="985.1643981933594" type="line"/>
      <point x="633.1095038838012" y="985.1643945469126"/>
      <point x="736.7421812349638" y="881.5317171957498"/>
      <point x="736.7421812349638" y="753.8853247794707" type="curve"/>
    </contour>
  </outline>
</glyph>
<glyph name="E" format="2">
  <advance width="1020"/>
  <unicode hex="0045"/>
  <outline>
    <contour>
      <point x="153.02245330810547" y="0" type="line"/>
      <point x="876.9775466918945" y="0" type="line"/>
      <point x="876.9775466918945" y="184.83560943603516" type="line"/>
      <point x="337.8580627441406" y="184.83560943603516" type="line"/>
      <point x="337.8580627441406" y="492.5821990966797" type="line"/>
      <point x="820.6824417114258" y="492.5821990966797" type="line"/>
      <point x="820.6824417114258" y="677.4178009033203" type="line"/>
      <point x="337.8580627441406" y="677.4178009033203" type="line"/>
      <point x="337.8580627441406" y="985.1643905639648" type="line"/>
      <point x="872.2862930297852" y="985.1643905639648" type="line"/>
      <point x="872.2862930297852" y="1170" type="line"/>
      <point x="153.02245330810547" y="1170" type="line"/>
    </contour>
  </outline>
</glyph>
<glyph name="F" format="2">
  <advance width="980"/>
  <unicode hex="0046"/>
  <outline>
    <contour>
      <point x="95" y="-30" type="line"/>
      <point x="275" y="-30" type="line"/>
      <point x="275" y="495" type="line"/>
      <point x="875" y="495" type="line"/>
      <point x="875" y="675" type="line"/>
      <point x="275" y="675" type="line"/>
      <point x="275" y="1020" type="line"/>
      <point x="935" y="1020" type="line"/>
      <point x="935" y="1200" type="line"/>
      <point x="95" y="1200" type="line"/>
    </contour>
  </outline>
</glyph>
<glyph name="H" format="2">
  <advance width="1020"/>
  <unicode hex="0048"/>
  <outline>
    <contour>
      <point x="110.01728820800781" y="0" type="line"/>
      <point x="293.90665435791016" y="0" type="line"/>
      <point x="293.90665435791016" y="490.0605010986328" type="line"/>
      <point x="726.0933456420898" y="490.0605010986328" type="line"/>
      <point x="726.0933456420898" y="0" type="line"/>
      <point x="909.9827117919922" y="0" type="line"/>
      <point x="909.9827117919922" y="1164.010368347168" type="line"/>
      <point x="726.0933456420898" y="1164.010368347168" type="line"/>
      <point x="726.0933456420898" y="673.9498672485352" type="line"/>
      <point x="293.90665435791016" y="673.9498672485352" type="line"/>
      <point x="293.90665435791016" y="1164.010368347168" type="line"/>
      <point x="110.01728820800781" y="1164.010368347168" type="line"/>
    </contour>
  </outline>
</glyph>
<glyph name="I" format="2">
  <advance width="1020"/>
  <unicode hex="0049"/>
  <outline>
    <contour>
      <point x="136.10665893554688" y="0" type="line"/>
      <point x="883.8933410644531" y="0" type="line"/>
      <point x="883.8933410644531" y="184.83560180664062" type="line"/>
      <point x="602.4178009033203" y="184.83560180664062" type="line"/>
      <point x="602.4178009033203" y="985.1643981933594" type="line"/>
      <point x="883.8933410644531" y="985.1643981933594" type="line"/>
      <point x="883.8933410644531" y="1170" type="line"/>
      <point x="136.10665893554688" y="1170" type="line"/>
      <point x="136.10665893554688" y="985.1643981933594" type="line"/>
      <point x="417.5821990966797" y="985.1643981933594" type="line"/>
      <point x="417.5821990966797" y="184.83560180664062" type="line"/>
      <point x="136.10665893554688" y="184.83560180664062" type="line"/>
    </contour>
  </outline>
</glyph>
<glyph name="J" format="2">
  <advance width="1020"/>
  <unicode hex="004A"/>
  <outline>
    <contour>
      <point x="102.95909881591797" y="382.04090118408203" type="line"/>
      <point x="102.9591" y="160.14848999999992"/>
      <point x="283.10758999999996" y="-19.99999999999997"/>
      <point x="505.0" y="-20.0" type="curve" smooth="yes"/>
      <point x="672.7910870578659" y="-20.0"/>
      <point x="907.0408995607107" y="89.71150039136705"/>
      <point x="907.0409000642412" y="424.7909" type="curve"/>
      <point x="907.040901184082" y="1170" type="line"/>
      <point x="722.2052917480469" y="1170" type="line"/>
      <point x="722.2052917480469" y="424.79090118408203" type="line"/>
      <point x="722.2052917480469" y="186.45210487393683"/>
      <point x="561.55973420772" y="164.83561"/>
      <point x="505.0" y="164.83561" type="curve" smooth="yes"/>
      <point x="385.12114" y="164.83561"/>
      <point x="287.79471" y="262.16203"/>
      <point x="287.79471" y="382.0409" type="curve"/>
    </contour>
  </outline>
</glyph>
<glyph name="K" format="2">
  <advance width="1020"/>
  <unicode hex="004B"/>
  <outline>
    <contour>
      <point x="121.75019836425781" y="0" type="line"/>
      <point x="306.58580780029297" y="0" type="line"/>
      <point x="306.58580780029297" y="494.4586944580078" type="line"/>
      <point x="765.9568481445312" y="0" type="line"/>
      <point x="1018.2498016357422" y="0" type="line"/>
      <point x="473.0190887451172" y="586.8765029907227" type="line"/>
      <point x="1014.7631072998047" y="1170" type="line"/>
      <point x="762.4701538085938" y="1170" type="line"/>
      <point x="306.58580780029297" y="679.2943115234375" type="line"/>
      <point x="306.58580780029297" y="1170" type="line"/>
      <point x="121.75019836425781" y="1170" type="line"/>
    </contour>
  </outline>
</glyph>
<glyph name="L" format="2">
  <advance width="1020"/>
  <unicode hex="004C"/>
  <outline>
    <contour>
      <point x="146.10665893554688" y="0" type="line"/>
      <point x="893.8933410644531" y="0" type="line"/>
      <point x="893.8933410644531" y="184.83560180664062" type="line"/>
      <point x="330.9422607421875" y="184.83560180664062" type="line"/>
      <point x="330.9422607421875" y="1170" type="line"/>
      <point x="146.10665893554688" y="1170" type="line"/>
    </contour>
  </outline>
</glyph>
<glyph name="M" format="2">
  <advance width="980"/>
  <unicode hex="004D"/>
  <outline>
    <contour>
      <point x="40" y="-30" type="line"/>
      <point x="220" y="-30" type="line"/>
      <point x="220" y="795" type="line"/>
      <point x="400" y="390" type="line"/>
      <point x="580" y="390" type="line"/>
      <point x="760" y="795" type="line"/>
      <point x="760" y="-30" type="line"/>
      <point x="940" y="-30" type="line"/>
      <point x="940" y="1200" type="line"/>
      <point x="743.0228424072266" y="1200" type="line"/>
      <point x="490" y="630.6986083984375" type="line"/>
      <point x="236.97715759277344" y="1200" type="line"/>
      <point x="40" y="1200" type="line"/>
    </contour>
  </outline>
</glyph>
<glyph name="N" format="2">
  <advance width="1020"/>
  <unicode hex="004E"/>
  <outline>
    <contour>
      <point x="110.01728820800781" y="0" type="line"/>
      <point x="293.90665435791016" y="0" type="line"/>
      <point x="293.90665435791016" y="783.3453826904297" type="line"/>
      <point x="726.0933456420898" y="0" type="line"/>
      <point x="909.9827117919922" y="0" type="line"/>
      <point x="909.9827117919922" y="1164.010368347168" type="line"/>
      <point x="726.0933456420898" y="1164.010368347168" type="line"/>
      <point x="726.0933456420898" y="380.6649856567383" type="line"/>
      <point x="293.90665435791016" y="1164.010368347168" type="line"/>
      <point x="110.01728820800781" y="1164.010368347168" type="line"/>
    </contour>
  </outline>
</glyph>
<glyph name="O" format="2">
  <advance width="1020"/>
  <unicode hex="004F"/>
  <outline>
    <contour>
      <point x="740.0950698852539" y="398.9844436645508" type="line"/>
      <point x="740.0950734658601" y="271.9915154499567"/>
      <point x="636.9929270738115" y="168.88936905790834"/>
      <point x="510.0" y="168.88936905790837" type="curve" smooth="yes"/>
      <point x="383.00707292618847" y="168.8893690579084"/>
      <point x="279.90492653414003" y="271.99151544995675"/>
      <point x="279.9049265341401" y="398.9844425237684" type="curve"/>
      <point x="279.9049301147461" y="765.0259323120117" type="line"/>
      <point x="279.9049265341401" y="892.0188562008643"/>
      <point x="383.00707292618847" y="995.1210025929125"/>
      <point x="510.00000000000006" y="995.1210025929125" type="curve" smooth="yes"/>
      <point x="636.9929270738116" y="995.1210025929125"/>
      <point x="740.0950734658601" y="892.0188562008643"/>
      <point x="740.0950734658601" y="765.0259291270527" type="curve"/>
    </contour>
    <contour>
      <point x="96.01555633544922" y="398.9844436645508" type="line"/>
      <point x="96.01555747623166" y="170.50021064857393"/>
      <point x="281.5157681248055" y="-14.999999999999957"/>
      <point x="510.0" y="-15.00000000000001" type="curve" smooth="yes"/>
      <point x="738.4842318751945" y="-15.000000000000064"/>
      <point x="923.9844425237684" y="170.50021064857378"/>
      <point x="923.9844425237684" y="398.9844425237683" type="curve"/>
      <point x="923.9844436645508" y="765.0259323120117" type="line"/>
      <point x="923.9844425237684" y="993.5101610022472"/>
      <point x="738.4842318751946" y="1179.0103716508208"/>
      <point x="510.00000000000006" y="1179.0103716508208" type="curve" smooth="yes"/>
      <point x="281.5157681248056" y="1179.0103716508208"/>
      <point x="96.01555747623172" y="993.5101610022472"/>
      <point x="96.01555747623172" y="765.0259291270527" type="curve"/>
    </contour>
  </outline>
</glyph>
<glyph name="P" format="2">
  <advance width="1020"/>
  <unicode hex="0050"/>
  <outline>
    <contour>
      <point x="135.45909881591797" y="0" type="line"/>
      <point x="320.2947082519531" y="0" type="line"/>
      <point x="320.2947082519531" y="394.06575775146484" type="line"/>
      <point x="551.5737762451172" y="394.06575775146484" type="line"/>
      <point x="765.69866" y="394.06576"/>
      <point x="939.5409" y="567.908"/>
      <point x="939.5409" y="782.03288" type="curve" smooth="yes"/>
      <point x="939.5409" y="996.15776"/>
      <point x="765.69866" y="1170.0"/>
      <point x="551.57378" y="1170.0" type="curve"/>
      <point x="135.45909881591797" y="1170" type="line"/>
    </contour>
    <contour>
      <point x="551.5737762451172" y="985.1643905639648" type="line"/>
      <point x="663.68511" y="985.16439"/>
      <point x="754.70529" y="894.14421"/>
      <point x="754.70529" y="782.03288" type="curve" smooth="yes"/>
      <point x="754.70529" y="669.92154"/>
      <point x="663.68511" y="578.90136"/>
      <point x="551.57378" y="578.90136" type="curve"/>
      <point x="320.2947082519531" y="578.9013595581055" type="line"/>
      <point x="320.2947082519531" y="985.1643905639648" type="line"/>
    </contour>
  </outline>
</glyph>
<glyph name="Q" format="2">
  <advance width="980"/>
  <unicode hex="0051"/>
  <outline>
    <contour>
      <point x="730" y="390" type="line"/>
      <point x="730.0" y="367.5487592844239"/>
      <point x="726.9105198390865" y="345.813411453021"/>
      <point x="721.1339111328125" y="325.2054443359375" type="curve"/>
      <point x="606.9256210327148" y="540" type="line"/>
      <point x="403.0630111694336" y="540" type="line"/>
      <point x="597.0392150878906" y="175.1838150024414" type="line"/>
      <point x="564.8072550892801" y="159.0631811361761"/>
      <point x="528.4536855714639" y="149.99999999999997"/>
      <point x="489.9999999999999" y="149.99999999999997" type="curve" smooth="yes"/>
      <point x="357.5403951999999" y="150.00000000000003"/>
      <point x="249.99999999999997" y="257.54039520000003"/>
      <point x="250.0" y="390.00000000000006" type="curve"/>
      <point x="250" y="780" type="line"/>
      <point x="250.0" y="912.4596048000001"/>
      <point x="357.54039520000003" y="1020.0"/>
      <point x="490.0" y="1020.0" type="curve" smooth="yes"/>
      <point x="622.4596048000001" y="1020.0"/>
      <point x="730.0" y="912.4596048000001"/>
      <point x="730.0" y="780.0" type="curve"/>
    </contour>
    <contour>
      <point x="70" y="390" type="line"/>
      <point x="70.0" y="158.19569160000003"/>
      <point x="258.1956915999999" y="-30.0"/>
      <point x="489.99999999999994" y="-30.0" type="curve" smooth="yes"/>
      <point x="558.9909890918583" y="-30.0"/>
      <point x="624.1190730127298" y="-13.329393051533458"/>
      <point x="681.572265625" y="16.200279235839844" type="curve"/>
      <point x="706.1373901367188" y="-30" type="line"/>
      <point x="910" y="-30" type="line"/>
      <point x="822.8332214355469" y="133.93685913085938" type="line"/>
      <point x="877.4829439990799" y="204.82571590095023"/>
      <point x="909.9999999999999" y="293.64543951875504"/>
      <point x="910.0" y="389.9999999999999" type="curve"/>
      <point x="910" y="780" type="line"/>
      <point x="910.0" y="1011.8043084000001"/>
      <point x="721.8043084000001" y="1200.0"/>
      <point x="490.0" y="1200.0" type="curve" smooth="yes"/>
      <point x="258.19569160000003" y="1200.0"/>
      <point x="70.0" y="1011.8043084000001"/>
      <point x="70.0" y="780.0" type="curve"/>
    </contour>
  </outline>
</glyph>
<glyph name="R" format="2">
  <advance width="1020"/>
  <unicode hex="0052"/>
  <outline>
    <contour>
      <point x="118.01641845703125" y="0" type="line"/>
      <point x="301.9057922363281" y="0" type="line"/>
      <point x="301.9057922363281" y="364.0449447631836" type="line"/>
      <point x="532.000862121582" y="364.0449447631836" type="line"/>
      <point x="540.6600367438924" y="364.0449438202247"/>
      <point x="549.2553107592778" y="364.3207014348984"/>
      <point x="557.7780990600586" y="364.87254333496094" type="curve"/>
      <point x="728.8794784545898" y="0" type="line"/>
      <point x="931.9835815429688" y="0" type="line"/>
      <point x="735.2477416992188" y="419.537841796875" type="line"/>
      <point x="852.9693933015169" y="489.18323627446733"/>
      <point x="931.9835782195332" y="617.4508821938682"/>
      <point x="931.9835782195332" y="764.0276577355229" type="curve" smooth="yes"/>
      <point x="931.9835782195332" y="984.7841252857389"/>
      <point x="752.7573318544511" y="1164.010371650821"/>
      <point x="532.0008643042352" y="1164.010371650821" type="curve"/>
      <point x="118.01641845703125" y="1164.010368347168" type="line"/>
    </contour>
    <contour>
      <point x="532.000862121582" y="980.1210021972656" type="line"/>
      <point x="651.2660270530683" y="980.1210025929126"/>
      <point x="748.0942091616249" y="883.2928204843561"/>
      <point x="748.0942091616249" y="764.0276577355229" type="curve" smooth="yes"/>
      <point x="748.0942091616249" y="644.7624949866897"/>
      <point x="651.2660270530683" y="547.934312878133"/>
      <point x="532.0008643042352" y="547.934312878133" type="curve"/>
      <point x="301.9057922363281" y="547.9343109130859" type="line"/>
      <point x="301.9057922363281" y="980.1210021972656" type="line"/>
    </contour>
  </outline>
</glyph>
<glyph name="S" format="2">
  <advance width="1020"/>
  <unicode hex="0053"/>
  <outline>
    <contour>
      <point x="89.1940689086914" y="332.2273483276367" type="line"/>
      <point x="89.19407" y="138.01161"/>
      <point x="277.53066" y="-20.0"/>
      <point x="510.0" y="-20.0" type="curve" smooth="yes"/>
      <point x="742.46934" y="-20.0"/>
      <point x="930.80593" y="138.01161"/>
      <point x="930.80593" y="332.22735" type="curve"/>
      <point x="930.80593" y="502.16902"/>
      <point x="785.93059" y="640.67154"/>
      <point x="594.81564" y="677.28572" type="curve"/>
      <point x="465.2238998413086" y="702.1131591796875" type="line"/>
      <point x="372.37508" y="719.90131"/>
      <point x="302.17723" y="778.67047"/>
      <point x="302.17723" y="851.84643" type="curve"/>
      <point x="302.17723" y="936.32874"/>
      <point x="395.11475" y="1005.16439"/>
      <point x="510.0" y="1005.16439" type="curve" smooth="yes"/>
      <point x="624.88525" y="1005.16439"/>
      <point x="717.82277" y="936.32874"/>
      <point x="717.82277" y="851.84643" type="curve"/>
      <point x="902.6583786010742" y="851.8464279174805" type="line"/>
      <point x="902.65838" y="1038.33021"/>
      <point x="726.88625" y="1190.0"/>
      <point x="510.0" y="1190.0" type="curve" smooth="yes"/>
      <point x="293.11375" y="1190.0"/>
      <point x="117.34162" y="1038.33021"/>
      <point x="117.34162" y="851.84643" type="curve"/>
      <point x="117.34162" y="688.02491"/>
      <point x="253.6105" y="554.50119"/>
      <point x="432.99228" y="520.21097" type="curve"/>
      <point x="562.5934524536133" y="495.4366989135742" type="line"/>
      <point x="667.1577" y="475.44842"/>
      <point x="745.97033" y="411.66529"/>
      <point x="745.97033" y="332.22735" type="curve"/>
      <point x="745.97033" y="240.00862"/>
      <point x="640.47171" y="164.83561"/>
      <point x="510.0" y="164.83561" type="curve" smooth="yes"/>
      <point x="379.52829" y="164.83561"/>
      <point x="274.02967" y="240.00862"/>
      <point x="274.02967" y="332.22735" type="curve"/>
    </contour>
  </outline>
</glyph>
<glyph name="T" format="2">
  <advance width="1020"/>
  <unicode hex="0054"/>
  <outline>
    <contour>
      <point x="417.5821990966797" y="0" type="line"/>
      <point x="602.4178009033203" y="0" type="line"/>
      <point x="602.4178009033203" y="985.1643905639648" type="line"/>
      <point x="933.1515579223633" y="985.1643905639648" type="line"/>
      <point x="933.1515579223633" y="1170" type="line"/>
      <point x="86.84844207763672" y="1170" type="line"/>
      <point x="86.84844207763672" y="985.1643905639648" type="line"/>
      <point x="417.5821990966797" y="985.1643905639648" type="line"/>
    </contour>
  </outline>
</glyph>
<glyph name="U" format="2">
  <advance width="1020"/>
  <unicode hex="0055"/>
  <outline>
    <contour>
      <point x="98.57658386230469" y="396.4234161376953" type="line"/>
      <point x="98.5765838011227" y="169.35265321900562"/>
      <point x="282.9292370201283" y="-14.999999999999961"/>
      <point x="510.0" y="-15.000000000000014" type="curve" smooth="yes"/>
      <point x="737.0707629798717" y="-15.000000000000068"/>
      <point x="921.4234161988774" y="169.3526532190055"/>
      <point x="921.4234161988774" y="396.4234161988772" type="curve"/>
      <point x="921.4234161376953" y="1170" type="line"/>
      <point x="736.5878143310547" y="1170" type="line"/>
      <point x="736.5878143310547" y="396.4234161376953" type="line"/>
      <point x="736.58781074579" y="271.36620009935837"/>
      <point x="635.0572160995189" y="169.83560545308737"/>
      <point x="510.0" y="169.8356054530874" type="curve" smooth="yes"/>
      <point x="384.9427839004812" y="169.83560545308742"/>
      <point x="283.41218925421015" y="271.3662000993585"/>
      <point x="283.41218925421015" y="396.4234161988773" type="curve"/>
      <point x="283.4121856689453" y="1170" type="line"/>
      <point x="98.57658386230469" y="1170" type="line"/>
    </contour>
  </outline>
</glyph>
<glyph name="V" format="2">
  <advance width="980"/>
  <unicode hex="0056"/>
  <outline>
    <contour>
      <point x="396.30003356933594" y="-30" type="line"/>
      <point x="583.6999664306641" y="-30" type="line"/>
      <point x="940" y="1200" type="line"/>
      <point x="752.6000747680664" y="1200" type="line"/>
      <point x="490" y="293.46602630615234" type="line"/>
      <point x="227.3999252319336" y="1200" type="line"/>
      <point x="40" y="1200" type="line"/>
    </contour>
  </outline>
</glyph>
<glyph name="W" format="2">
  <advance width="1020"/>
  <unicode hex="0057"/>
  <outline>
    <contour>
      <point x="219.39147186279297" y="0" type="line"/>
      <point x="405.9050979614258" y="0" type="line"/>
      <point x="510" y="613.967529296875" type="line"/>
      <point x="614.0949020385742" y="0" type="line"/>
      <point x="800.608528137207" y="0" type="line"/>
      <point x="997.9602432250977" y="1164.010368347168" type="line"/>
      <point x="811.4466094970703" y="1164.010368347168" type="line"/>
      <point x="707.3517150878906" y="550.0428466796875" type="line"/>
      <point x="603.2568130493164" y="1164.010368347168" type="line"/>
      <point x="416.7431869506836" y="1164.010368347168" type="line"/>
      <point x="312.6482849121094" y="550.0428466796875" type="line"/>
      <point x="208.5533905029297" y="1164.010368347168" type="line"/>
      <point x="22.039756774902344" y="1164.010368347168" type="line"/>
    </contour>
  </outline>
</glyph>
<glyph name="X" format="2">
  <advance width="1020"/>
  <unicode hex="0058"/>
  <outline>
    <contour>
      <point x="64.0449447631836" y="0" type="line"/>
      <point x="276.9354248046875" y="0" type="line"/>
      <point x="510" y="399.5312805175781" type="line"/>
      <point x="743.0645751953125" y="0" type="line"/>
      <point x="955.9550552368164" y="0" type="line"/>
      <point x="616.4452438354492" y="582.0051879882812" type="line"/>
      <point x="955.9550552368164" y="1164.010368347168" type="line"/>
      <point x="743.0645751953125" y="1164.010368347168" type="line"/>
      <point x="510" y="764.4790878295898" type="line"/>
      <point x="276.9354248046875" y="1164.010368347168" type="line"/>
      <point x="64.0449447631836" y="1164.010368347168" type="line"/>
      <point x="403.5547637939453" y="582.0051879882812" type="line"/>
    </contour>
  </outline>
</glyph>
<glyph name="Y" format="2">
  <advance width="1020"/>
  <unicode hex="0059"/>
  <outline>
    <contour>
      <point x="417.5821990966797" y="0" type="line"/>
      <point x="602.4178009033203" y="0" type="line"/>
      <point x="602.4178009033203" y="450.3608627319336" type="line"/>
      <point x="972.3235778808594" y="1170" type="line"/>
      <point x="764.4996185302734" y="1170" type="line"/>
      <point x="510" y="674.8796234130859" type="line"/>
      <point x="255.50038146972656" y="1170" type="line"/>
      <point x="47.676422119140625" y="1170" type="line"/>
      <point x="417.5821990966797" y="450.3608627319336" type="line"/>
    </contour>
  </outline>
</glyph>
<glyph name="Z" format="2">
  <advance width="980"/>
  <unicode hex="005A"/>
  <outline>
    <contour>
      <point x="70" y="-30" type="line"/>
      <point x="910" y="-30" type="line"/>
      <point x="910" y="150" type="line"/>
      <point x="290.9205093383789" y="150" type="line"/>
      <point x="910" y="1020" type="line"/>
      <point x="910" y="1200" type="line"/>
      <point x="70" y="1200" type="line"/>
      <point x="70" y="1020" type="line"/>
      <point x="689.0794906616211" y="1020" type="line"/>
      <point x="70" y="150" type="line"/>
    </contour>
  </outline>
</glyph>
<glyph name="bracketleft" format="2">
  <advance width="1020"/>
  <unicode hex="005B"/>
  <outline>
    <contour>
      <point x="285.0345687866211" y="-183.88936614990234" type="line"/>
      <point x="804.9654312133789" y="-183.88936614990234" type="line"/>
      <point x="804.9654312133789" y="0" type="line"/>
      <point x="468.92394256591797" y="0" type="line"/>
      <point x="468.92394256591797" y="1164.010368347168" type="line"/>
      <point x="804.9654312133789" y="1164.010368347168" type="line"/>
      <point x="804.9654312133789" y="1347.8997421264648" type="line"/>
      <point x="285.0345687866211" y="1347.8997421264648" type="line"/>
    </contour>
  </outline>
</glyph>
<glyph name="backslash" format="2">
  <advance width="1020"/>
  <unicode hex="005C"/>
  <outline>
    <contour>
      <point x="838.143181769578" y="0.0" type="line"/>
      <point x="347.547797376468" y="1347.8997407087295" type="line"/>
      <point x="151.8568182304221" y="1347.8997407087295" type="line"/>
      <point x="642.452202623532" y="0.0" type="line"/>
    </contour>
  </outline>
</glyph>
<glyph name="bracketright" format="2">
  <advance width="1020"/>
  <unicode hex="005D"/>
  <outline>
    <contour>
      <point x="734.9654312133789" y="-183.88936614990234" type="line"/>
      <point x="734.9654312133789" y="1347.8997421264648" type="line"/>
      <point x="215.0345687866211" y="1347.8997421264648" type="line"/>
      <point x="215.0345687866211" y="1164.010368347168" type="line"/>
      <point x="551.076057434082" y="1164.010368347168" type="line"/>
      <point x="551.076057434082" y="0" type="line"/>
      <point x="215.0345687866211" y="0" type="line"/>
      <point x="215.0345687866211" y="-183.88936614990234" type="line"/>
    </contour>
  </outline>
</glyph>
<glyph name="asciicircum" format="2">
  <advance width="980"/>
  <unicode hex="005E"/>
  <outline>
    <contour>
      <point x="212.5" y="660" type="line"/>
      <point x="402.5017318725586" y="660" type="line"/>
      <point x="490" y="918.9002075195312" type="line"/>
      <point x="577.4982681274414" y="660" type="line"/>
      <point x="767.5" y="660" type="line"/>
      <point x="585.0008697509766" y="1200" type="line"/>
      <point x="394.99913024902344" y="1200" type="line"/>
    </contour>
  </outline>
</glyph>
<glyph name="underscore" format="2">
  <advance width="980"/>
  <unicode hex="005F"/>
  <outline>
    <contour>
      <point x="70.0" y="-240.0" type="line"/>
      <point x="910.0" y="-240.0" type="line"/>
      <point x="910.0" y="-60.0" type="line"/>
      <point x="70.0" y="-60.0" type="line"/>
    </contour>
  </outline>
</glyph>
<glyph name="grave" format="2">
  <advance width="980"/>
  <unicode hex="0060"/>
  <outline>
    <contour>
      <point x="635.9346602842494" y="1060.0" type="line"/>
      <point x="488.8337379554291" y="1320.0" type="line"/>
      <point x="344.0653397157506" y="1320.0" type="line"/>
      <point x="491.1662620445708" y="1060.0" type="line"/>
    </contour>
  </outline>
</glyph>
<glyph name="a" format="2">
  <advance width="1020"/>
  <unicode hex="0061"/>
  <outline>
    <contour>
      <point x="475.85245" y="340.21427" type="curve"/>
      <point x="728.2010116577148" y="340.21427154541016" type="line"/>
      <point x="728.24218" y="244.63648"/>
      <point x="609.14279" y="164.83561"/>
      <point x="461.77867" y="164.83561" type="curve"/>
      <point x="360.99946" y="164.83561"/>
      <point x="279.75782" y="197.62786"/>
      <point x="279.75782" y="253.64876" type="curve"/>
      <point x="279.75782" y="319.42191"/>
      <point x="367.30979" y="340.21427"/>
    </contour>
    <contour>
      <point x="728.2421798706055" y="0" type="line"/>
      <point x="913.0777893066406" y="0" type="line"/>
      <point x="913.0777893066406" y="521.5818023681641" type="line"/>
      <point x="913.07779" y="714.96603"/>
      <point x="735.24798" y="852.22935"/>
      <point x="515.8765" y="852.22935" type="curve"/>
      <point x="294.25332" y="852.22935"/>
      <point x="114.92221" y="716.43442"/>
      <point x="114.92221" y="549.72935" type="curve"/>
      <point x="299.75782012939453" y="549.7293472290039" type="line"/>
      <point x="299.75782" y="614.46585"/>
      <point x="396.22185" y="667.39374"/>
      <point x="515.8765" y="667.39374" type="curve"/>
      <point x="633.22439" y="667.39374"/>
      <point x="728.24218" y="612.96568"/>
      <point x="728.24218" y="521.5818" type="curve"/>
      <point x="728.2421798706055" y="509.23616790771484" type="line"/>
      <point x="475.8524475097656" y="509.23616790771484" type="line"/>
      <point x="265.30188" y="509.23617"/>
      <point x="94.92221" y="415.25741"/>
      <point x="94.92221" y="253.64876" type="curve"/>
      <point x="94.92221" y="95.66076"/>
      <point x="258.97817" y="-20.0"/>
      <point x="461.77867" y="-20.0" type="curve"/>
      <point x="561.47237680765" y="-20.0"/>
      <point x="653.5839201619268" y="5.995280951833291"/>
      <point x="728.2421798706055" y="49.97605895996094" type="curve"/>
    </contour>
  </outline>
</glyph>
<glyph name="b" format="2">
  <advance width="980"/>
  <unicode hex="0062"/>
  <outline>
    <contour>
      <point x="80" y="-30" type="line"/>
      <point x="260" y="-30" type="line"/>
      <point x="260" y="45.38092041015625" type="line"/>
      <point x="328.0485362041779" y="-2.129612682404165"/>
      <point x="410.79521160704473" y="-29.999999999999993"/>
      <point x="500.0" y="-29.999999999999986" type="curve" smooth="yes"/>
      <point x="731.8043084" y="-30.000000000000057"/>
      <point x="920.0" y="158.1956915999999"/>
      <point x="920.0" y="390.0" type="curve" smooth="yes"/>
      <point x="920.0" y="621.8043084000001"/>
      <point x="731.8043084000001" y="810.0"/>
      <point x="500.0" y="810.0" type="curve" smooth="yes"/>
      <point x="410.7952116070448" y="810.0"/>
      <point x="328.04853620417794" y="782.1296126824042"/>
      <point x="260" y="734.6240310668945" type="curve"/>
      <point x="260" y="1200" type="line"/>
      <point x="80" y="1200" type="line"/>
    </contour>
    <contour>
      <point x="740.0" y="390.0" type="curve" smooth="yes"/>
      <point x="740.0" y="257.5403951999999"/>
      <point x="632.4596048" y="149.99999999999997"/>
      <point x="499.99999999999994" y="150.0" type="curve" smooth="yes"/>
      <point x="367.5403951999999" y="150.00000000000003"/>
      <point x="260.0" y="257.54039520000003"/>
      <point x="260.0" y="390.0" type="curve" smooth="yes"/>
      <point x="260.0" y="522.4596048000001"/>
      <point x="367.54039520000003" y="630.0"/>
      <point x="500.0" y="630.0" type="curve" smooth="yes"/>
      <point x="632.4596048000001" y="630.0"/>
      <point x="740.0" y="522.4596048000001"/>
    </contour>
  </outline>
</glyph>
<glyph name="c" format="2">
  <advance width="1020"/>
  <unicode hex="0063"/>
  <outline>
    <contour>
      <point x="521.9410109959704" y="169.83560545308737" type="curve" smooth="yes"/>
      <point x="386.0158932796914" y="169.8356054530874"/>
      <point x="275.66194122852863" y="280.18955750425016"/>
      <point x="275.66194122852863" y="416.11467522052925" type="curve" smooth="yes"/>
      <point x="275.66194122852863" y="552.0397929368083"/>
      <point x="386.01589327969145" y="662.3937449879711"/>
      <point x="521.9410109959705" y="662.3937449879711" type="curve" smooth="yes"/>
      <point x="618.802201356415" y="662.3937449879711"/>
      <point x="702.6781303909288" y="606.3550440347166"/>
      <point x="742.8886551539613" y="524.931333063121" type="curve"/>
      <point x="939.1735711667475" y="524.931333063121" type="line"/>
      <point x="890.8942114685083" y="710.2748385533065"/>
      <point x="722.28512864767" y="847.2293504410585"/>
      <point x="521.9410109959705" y="847.2293504410587" type="curve" smooth="yes"/>
      <point x="284.00234639933865" y="847.2293504410585"/>
      <point x="90.82633577544124" y="654.0533398171611"/>
      <point x="90.82633577544124" y="416.11467522052925" type="curve" smooth="yes"/>
      <point x="90.82633577544118" y="178.17601062389738"/>
      <point x="284.00234639933853" y="-14.999999999999961"/>
      <point x="521.9410109959704" y="-15.000000000000014" type="curve" smooth="yes"/>
      <point x="722.2853665863345" y="-15.000000000000059"/>
      <point x="890.8946119655727" y="121.95483719596066"/>
      <point x="939.1736642245589" y="307.2980173779375" type="curve"/>
      <point x="742.8895356240232" y="307.2980173779375" type="line"/>
      <point x="702.67930741955" y="225.8750927990878"/>
      <point x="618.8028809820034" y="169.8356054530874"/>
    </contour>
  </outline>
</glyph>
<glyph name="d" format="2">
  <advance width="1020"/>
  <unicode hex="0064"/>
  <outline>
    <contour>
      <point x="746.2790679931641" y="0" type="line"/>
      <point x="931.1146774291992" y="0" type="line"/>
      <point x="931.1146774291992" y="1170" type="line"/>
      <point x="746.2790679931641" y="1170" type="line"/>
      <point x="746.2790679931641" y="769.9045333862305" type="line"/>
      <point x="676.4431931141338" y="818.6411856822281"/>
      <point x="591.5338145770014" y="847.2293504410586"/>
      <point x="500.00000000000006" y="847.2293504410586" type="curve" smooth="yes"/>
      <point x="262.06133540336816" y="847.2293504410585"/>
      <point x="68.8853247794708" y="654.0533398171611"/>
      <point x="68.8853247794708" y="416.11467522052925" type="curve" smooth="yes"/>
      <point x="68.88532477947075" y="178.17601062389738"/>
      <point x="262.0613354033681" y="-14.999999999999961"/>
      <point x="500.0" y="-15.000000000000014" type="curve" smooth="yes"/>
      <point x="591.5338145770013" y="-15.000000000000036"/>
      <point x="676.4431931141337" y="13.58816475883049"/>
      <point x="746.2790679931641" y="62.318931579589844" type="curve"/>
    </contour>
    <contour>
      <point x="746.2790697674419" y="416.11467522052925" type="curve" smooth="yes"/>
      <point x="746.2790697674419" y="280.18955750425016"/>
      <point x="635.9251177162791" y="169.8356054530874"/>
      <point x="500.0" y="169.8356054530874" type="curve" smooth="yes"/>
      <point x="364.07488228372097" y="169.8356054530874"/>
      <point x="253.7209302325582" y="280.18955750425016"/>
      <point x="253.7209302325582" y="416.11467522052925" type="curve" smooth="yes"/>
      <point x="253.7209302325582" y="552.0397929368083"/>
      <point x="364.074882283721" y="662.3937449879711"/>
      <point x="500.00000000000006" y="662.3937449879711" type="curve" smooth="yes"/>
      <point x="635.9251177162791" y="662.3937449879711"/>
      <point x="746.2790697674419" y="552.0397929368083"/>
    </contour>
  </outline>
</glyph>
<glyph name="f" format="2">
  <advance width="980"/>
  <unicode hex="0066"/>
  <outline>
    <contour>
      <point x="320" y="-30" type="line"/>
      <point x="500" y="-30" type="line"/>
      <point x="500" y="630" type="line"/>
      <point x="910" y="630" type="line"/>
      <point x="910" y="810" type="line"/>
      <point x="500" y="810" type="line"/>
      <point x="500" y="840" type="line"/>
      <point x="500.0" y="939.3447036"/>
      <point x="580.6552964" y="1020.0"/>
      <point x="680.0" y="1020.0" type="curve"/>
      <point x="910" y="1020" type="line"/>
      <point x="910" y="1200" type="line"/>
      <point x="680" y="1200" type="line"/>
      <point x="481.3105928" y="1200.0"/>
      <point x="320.0" y="1038.6894072"/>
      <point x="320.0" y="840.0" type="curve"/>
      <point x="320" y="810" type="line"/>
      <point x="70" y="810" type="line"/>
      <point x="70" y="630" type="line"/>
      <point x="320" y="630" type="line"/>
    </contour>
  </outline>
</glyph>
<glyph name="g" format="2">
  <advance width="980"/>
  <unicode hex="0067"/>
  <outline>
    <contour>
      <point x="60" y="-90" type="line"/>
      <point x="60.0" y="-321.80430839999997"/>
      <point x="248.19569159999992" y="-510.0"/>
      <point x="479.99999999999994" y="-510.0" type="curve" smooth="yes"/>
      <point x="711.8043084" y="-510.0"/>
      <point x="900.0" y="-321.8043084000001"/>
      <point x="900.0" y="-90.00000000000009" type="curve"/>
      <point x="900" y="810" type="line"/>
      <point x="720" y="810" type="line"/>
      <point x="720" y="734.6190795898438" type="line"/>
      <point x="651.9514637958221" y="782.1296126824042"/>
      <point x="569.2047883929552" y="810.0"/>
      <point x="480.0" y="809.9999999999999" type="curve" smooth="yes"/>
      <point x="248.19569160000003" y="810.0"/>
      <point x="60.0" y="621.8043084000001"/>
      <point x="60.0" y="390.0" type="curve" smooth="yes"/>
      <point x="60.0" y="158.19569160000003"/>
      <point x="248.19569159999992" y="-30.0"/>
      <point x="479.99999999999994" y="-30.0" type="curve" smooth="yes"/>
      <point x="569.2047883929552" y="-30.00000000000002"/>
      <point x="651.9514637958221" y="-2.1296126824042076"/>
      <point x="720" y="45.37596893310547" type="curve"/>
      <point x="720" y="-90" type="line"/>
      <point x="720.0" y="-222.45960480000008"/>
      <point x="612.4596048" y="-330.0"/>
      <point x="479.99999999999994" y="-330.0" type="curve" smooth="yes"/>
      <point x="347.5403951999999" y="-330.0"/>
      <point x="239.99999999999997" y="-222.4596048"/>
      <point x="240.0" y="-89.99999999999997" type="curve"/>
    </contour>
    <contour>
      <point x="720.0" y="390.0" type="curve" smooth="yes"/>
      <point x="720.0" y="257.5403951999999"/>
      <point x="612.4596048" y="149.99999999999997"/>
      <point x="479.99999999999994" y="150.0" type="curve" smooth="yes"/>
      <point x="347.5403951999999" y="150.00000000000003"/>
      <point x="239.99999999999997" y="257.54039520000003"/>
      <point x="240.0" y="390.0" type="curve" smooth="yes"/>
      <point x="240.0" y="522.4596048000001"/>
      <point x="347.54039520000003" y="630.0"/>
      <point x="480.0" y="630.0" type="curve" smooth="yes"/>
      <point x="612.4596048000001" y="630.0"/>
      <point x="720.0" y="522.4596048000001"/>
    </contour>
  </outline>
</glyph>
<glyph name="h" format="2">
  <advance width="980"/>
  <unicode hex="0068"/>
  <outline>
    <contour>
      <point x="80" y="-30" type="line"/>
      <point x="260" y="-30" type="line"/>
      <point x="260" y="390" type="line"/>
      <point x="260.0" y="522.4596048000001"/>
      <point x="367.54039520000003" y="630.0"/>
      <point x="500.0" y="630.0" type="curve" smooth="yes"/>
      <point x="632.4596048000001" y="630.0"/>
      <point x="740.0" y="522.4596048000001"/>
      <point x="740.0" y="390.0" type="curve"/>
      <point x="740" y="-30" type="line"/>
      <point x="920" y="-30" type="line"/>
      <point x="920" y="390" type="line"/>
      <point x="920.0" y="621.8043084000001"/>
      <point x="731.8043084000001" y="810.0"/>
      <point x="500.0" y="810.0" type="curve" smooth="yes"/>
      <point x="410.7952116070448" y="810.0"/>
      <point x="328.04853620417794" y="782.1296126824042"/>
      <point x="260" y="734.6240310668945" type="curve"/>
      <point x="260" y="1200" type="line"/>
      <point x="80" y="1200" type="line"/>
    </contour>
  </outline>
</glyph>
<glyph name="i" format="2">
  <advance width="1020"/>
  <unicode hex="0069"/>
  <outline>
    <contour>
      <point x="666.1948676824379" y="1071.0144346431434" type="curve" smooth="yes"/>
      <point x="666.1948676824379" y="1140.6632775639935"/>
      <point x="609.64884292085" y="1197.2093023255813"/>
      <point x="540.0" y="1197.2093023255813" type="curve" smooth="yes"/>
      <point x="470.35115707914997" y="1197.2093023255813"/>
      <point x="413.80513231756214" y="1140.6632775639935"/>
      <point x="413.80513231756214" y="1071.0144346431434" type="curve" smooth="yes"/>
      <point x="413.80513231756214" y="1001.3655917222935"/>
      <point x="470.3511570791499" y="944.8195669607056"/>
      <point x="540.0" y="944.8195669607056" type="curve" smooth="yes"/>
      <point x="609.64884292085" y="944.8195669607056"/>
      <point x="666.1948676824379" y="1001.3655917222935"/>
    </contour>
    <contour>
      <point x="166.10665893554688" y="0" type="line"/>
      <point x="913.8933410644531" y="0" type="line"/>
      <point x="913.8933410644531" y="184.83560180664062" type="line"/>
      <point x="660.5653533935547" y="184.83560180664062" type="line"/>
      <point x="660.5653533935547" y="832.2293472290039" type="line"/>
      <point x="194.25421142578125" y="832.2293472290039" type="line"/>
      <point x="194.25421142578125" y="647.3937454223633" type="line"/>
      <point x="475.72975158691406" y="647.3937454223633" type="line"/>
      <point x="475.72975158691406" y="184.83560180664062" type="line"/>
      <point x="166.10665893554688" y="184.83560180664062" type="line"/>
    </contour>
  </outline>
</glyph>
<glyph name="j" format="2">
  <advance width="980"/>
  <unicode hex="006A"/>
  <outline>
    <contour>
      <point x="748.0" y="1056.0" type="curve" smooth="yes"/>
      <point x="748.0" y="1125.54129252"/>
      <point x="691.54129252" y="1182.0"/>
      <point x="622.0" y="1182.0" type="curve" smooth="yes"/>
      <point x="552.45870748" y="1182.0"/>
      <point x="496.0" y="1125.54129252"/>
      <point x="496.0" y="1056.0" type="curve" smooth="yes"/>
      <point x="496.0" y="986.45870748"/>
      <point x="552.4587074799999" y="930.0"/>
      <point x="622.0" y="930.0" type="curve" smooth="yes"/>
      <point x="691.54129252" y="930.0"/>
      <point x="748.0" y="986.4587074799999"/>
    </contour>
    <contour>
      <point x="122" y="-370" type="line"/>
      <point x="372" y="-370" type="line"/>
      <point x="559.6511068" y="-370.0"/>
      <point x="712.0" y="-217.65110679999998"/>
      <point x="712.0" y="-29.99999999999998" type="curve"/>
      <point x="712" y="810" type="line"/>
      <point x="242" y="810" type="line"/>
      <point x="242" y="630" type="line"/>
      <point x="532" y="630" type="line"/>
      <point x="532" y="-30" type="line"/>
      <point x="532.0" y="-118.30640319999999"/>
      <point x="460.3064032" y="-190.0"/>
      <point x="372.0" y="-190.0" type="curve"/>
      <point x="122" y="-190" type="line"/>
    </contour>
  </outline>
</glyph>
<glyph name="k" format="2">
  <advance width="1020"/>
  <unicode hex="006B"/>
  <outline>
    <contour>
      <point x="144.8977508544922" y="0" type="line"/>
      <point x="329.73336029052734" y="0" type="line"/>
      <point x="329.73336029052734" y="323.6968765258789" type="line"/>
      <point x="702.9858016967773" y="0" type="line"/>
      <point x="985.1022491455078" y="0" type="line"/>
      <point x="505.2835235595703" y="416.1146774291992" type="line"/>
      <point x="985.1022491455078" y="832.2293472290039" type="line"/>
      <point x="702.9858016967773" y="832.2293472290039" type="line"/>
      <point x="329.73336029052734" y="508.53247833251953" type="line"/>
      <point x="329.73336029052734" y="1170" type="line"/>
      <point x="144.8977508544922" y="1170" type="line"/>
    </contour>
  </outline>
</glyph>
<glyph name="l" format="2">
  <advance width="980"/>
  <unicode hex="006C"/>
  <outline>
    <contour>
      <point x="120" y="-30" type="line"/>
      <point x="880" y="-30" type="line"/>
      <point x="880" y="150" type="line"/>
      <point x="620" y="150" type="line"/>
      <point x="620" y="1200" type="line"/>
      <point x="140" y="1200" type="line"/>
      <point x="140" y="1020" type="line"/>
      <point x="440" y="1020" type="line"/>
      <point x="440" y="150" type="line"/>
      <point x="120" y="150" type="line"/>
    </contour>
  </outline>
</glyph>
<glyph name="m" format="2">
  <advance width="1020"/>
  <unicode hex="006D"/>
  <outline>
    <contour>
      <point x="70.7377700805664" y="0" type="line"/>
      <point x="255.57337951660156" y="0" type="line"/>
      <point x="255.57337951660156" y="578.8893356323242" type="line"/>
      <point x="255.57337610264636" y="624.9766728408981"/>
      <point x="292.99044824971935" y="662.3937449879711"/>
      <point x="339.07778668805133" y="662.3937449879711" type="curve" smooth="yes"/>
      <point x="385.1651251263833" y="662.3937449879711"/>
      <point x="422.5821972734563" y="624.9766728408981"/>
      <point x="422.5821972734563" y="578.8893344025661" type="curve"/>
      <point x="422.5821990966797" y="0" type="line"/>
      <point x="607.4178009033203" y="0" type="line"/>
      <point x="607.4178009033203" y="578.8893356323242" type="line"/>
      <point x="607.4178027265436" y="624.9766728408981"/>
      <point x="644.8348748736166" y="662.3937449879711"/>
      <point x="690.9222133119488" y="662.3937449879711" type="curve" smooth="yes"/>
      <point x="737.0095517502807" y="662.3937449879711"/>
      <point x="774.4266238973537" y="624.9766728408981"/>
      <point x="774.4266238973537" y="578.8893344025661" type="curve"/>
      <point x="774.4266204833984" y="0" type="line"/>
      <point x="959.2622299194336" y="0" type="line"/>
      <point x="959.2622299194336" y="578.8893356323242" type="line"/>
      <point x="959.262229350441" y="726.9902197212509"/>
      <point x="839.0230986306335" y="847.2293504410585"/>
      <point x="690.9222133119488" y="847.2293504410585" type="curve" smooth="yes"/>
      <point x="623.6430912302619" y="847.2293504410585"/>
      <point x="562.1137830022801" y="822.415671994617"/>
      <point x="514.9944839477539" y="781.4429168701172" type="curve"/>
      <point x="467.8767358923182" y="822.4194953951685"/>
      <point x="406.35172523875207" y="847.2293504410585"/>
      <point x="339.0777866880514" y="847.2293504410585" type="curve" smooth="yes"/>
      <point x="308.045615783686" y="847.2293504410585"/>
      <point x="278.23670120486827" y="841.9503118683308"/>
      <point x="250.5009002685547" y="832.2293472290039" type="curve"/>
      <point x="70.7377700805664" y="832.2293472290039" type="line"/>
    </contour>
  </outline>
</glyph>
<glyph name="n" format="2">
  <advance width="1020"/>
  <unicode hex="006E"/>
  <outline>
    <contour>
      <point x="115.06977081298828" y="0" type="line"/>
      <point x="299.9053726196289" y="0" type="line"/>
      <point x="299.9053726196289" y="451.2991180419922" type="line"/>
      <point x="299.90537" y="570.56499"/>
      <point x="396.73413" y="667.39374"/>
      <point x="516.0" y="667.39374" type="curve" smooth="yes"/>
      <point x="635.26587" y="667.39374"/>
      <point x="732.09463" y="570.56499"/>
      <point x="732.09463" y="451.29912" type="curve"/>
      <point x="732.0946273803711" y="0" type="line"/>
      <point x="916.9302291870117" y="0" type="line"/>
      <point x="916.9302291870117" y="451.2991180419922" type="line"/>
      <point x="916.93023" y="672.57854"/>
      <point x="737.27942" y="852.22935"/>
      <point x="516.0" y="852.22935" type="curve" smooth="yes"/>
      <point x="436.45093362768" y="852.22935"/>
      <point x="362.2818394956962" y="829.0117510757526"/>
      <point x="299.9053726196289" y="788.9803771972656" type="curve"/>
      <point x="299.9053726196289" y="832.2293472290039" type="line"/>
      <point x="115.06977081298828" y="832.2293472290039" type="line"/>
    </contour>
  </outline>
</glyph>
<glyph name="p" format="2">
  <advance width="1020"/>
  <unicode hex="0070"/>
  <outline>
    <contour>
      <point x="83.88532257080078" y="-450" type="line"/>
      <point x="268.72093200683594" y="-450" type="line"/>
      <point x="268.72093200683594" y="59.719200134277344" type="line"/>
      <point x="339.7695616971852" y="9.509069404341972"/>
      <point x="426.46586742719995" y="-20.0"/>
      <point x="520.0" y="-20.0" type="curve" smooth="yes"/>
      <point x="760.69824" y="-20.0"/>
      <point x="956.11468" y="175.41644"/>
      <point x="956.11468" y="416.11468" type="curve" smooth="yes"/>
      <point x="956.11468" y="656.81291"/>
      <point x="760.69824" y="852.22935"/>
      <point x="520.0" y="852.22935" type="curve" smooth="yes"/>
      <point x="426.4658674272" y="852.22935"/>
      <point x="339.7695616971852" y="822.720280595658"/>
      <point x="268.72093200683594" y="772.5064697265625" type="curve"/>
      <point x="268.72093200683594" y="832.2293472290039" type="line"/>
      <point x="83.88532257080078" y="832.2293472290039" type="line"/>
    </contour>
    <contour>
      <point x="771.27907" y="416.11468" type="curve" smooth="yes"/>
      <point x="771.27907" y="277.42998"/>
      <point x="658.68469" y="164.83561"/>
      <point x="520.0" y="164.83561" type="curve" smooth="yes"/>
      <point x="381.31531" y="164.83561"/>
      <point x="268.72093" y="277.42998"/>
      <point x="268.72093" y="416.11468" type="curve" smooth="yes"/>
      <point x="268.72093" y="554.79937"/>
      <point x="381.31531" y="667.39374"/>
      <point x="520.0" y="667.39374" type="curve" smooth="yes"/>
      <point x="658.68469" y="667.39374"/>
      <point x="771.27907" y="554.79937"/>
    </contour>
  </outline>
</glyph>
<glyph name="q" format="2">
  <advance width="1020"/>
  <unicode hex="0071"/>
  <outline>
    <contour>
      <point x="751.2790679931641" y="-450" type="line"/>
      <point x="936.1146774291992" y="-450" type="line"/>
      <point x="936.1146774291992" y="832.2293472290039" type="line"/>
      <point x="751.2790679931641" y="832.2293472290039" type="line"/>
      <point x="751.2790679931641" y="772.5101547241211" type="line"/>
      <point x="680.2304383028148" y="822.720280595658"/>
      <point x="593.5341325728001" y="852.22935"/>
      <point x="499.99999999999994" y="852.22935" type="curve" smooth="yes"/>
      <point x="259.30176" y="852.22935"/>
      <point x="63.88532" y="656.81291"/>
      <point x="63.88532" y="416.11468" type="curve" smooth="yes"/>
      <point x="63.88532" y="175.41644"/>
      <point x="259.30176" y="-20.0"/>
      <point x="500.0" y="-20.0" type="curve" smooth="yes"/>
      <point x="593.5341325728" y="-20.0"/>
      <point x="680.2304383028147" y="9.509069404341975"/>
      <point x="751.2790679931641" y="59.722877502441406" type="curve"/>
    </contour>
    <contour>
      <point x="751.27907" y="416.11468" type="curve" smooth="yes"/>
      <point x="751.27907" y="277.42998"/>
      <point x="638.68469" y="164.83561"/>
      <point x="500.0" y="164.83561" type="curve" smooth="yes"/>
      <point x="361.31531" y="164.83561"/>
      <point x="248.72093" y="277.42998"/>
      <point x="248.72093" y="416.11468" type="curve" smooth="yes"/>
      <point x="248.72093" y="554.79937"/>
      <point x="361.31531" y="667.39374"/>
      <point x="500.0" y="667.39374" type="curve" smooth="yes"/>
      <point x="638.68469" y="667.39374"/>
      <point x="751.27907" y="554.79937"/>
    </contour>
  </outline>
</glyph>
<glyph name="r" format="2">
  <advance width="1020"/>
  <unicode hex="0072"/>
  <outline>
    <contour>
      <point x="152.98616790771484" y="0" type="line"/>
      <point x="601.0414886474609" y="0" type="line"/>
      <point x="601.0414886474609" y="183.88936614990234" type="line"/>
      <point x="426.95333099365234" y="183.88936614990234" type="line"/>
      <point x="426.95333099365234" y="288.03556060791016" type="line"/>
      <point x="426.95332757130507" y="484.5415670665514"/>
      <point x="586.491276494382" y="644.0795159896284"/>
      <point x="782.997283615261" y="644.0795159896284" type="curve"/>
      <point x="917.0138320922852" y="644.0795135498047" type="line"/>
      <point x="917.0138320922852" y="827.9688873291016" type="line"/>
      <point x="782.9972839355469" y="827.9688873291016" type="line"/>
      <point x="646.6426535989917" y="827.9688850475367"/>
      <point x="522.025594793563" y="777.3146682018329"/>
      <point x="426.95333099365234" y="693.8092422485352" type="curve"/>
      <point x="426.95333099365234" y="827.9688873291016" type="line"/>
      <point x="152.98616790771484" y="827.9688873291016" type="line"/>
      <point x="152.98616790771484" y="644.0795135498047" type="line"/>
      <point x="243.06395721435547" y="644.0795135498047" type="line"/>
      <point x="243.06395721435547" y="183.88936614990234" type="line"/>
      <point x="152.98616790771484" y="183.88936614990234" type="line"/>
    </contour>
  </outline>
</glyph>
<glyph name="s" format="2">
  <advance width="1020"/>
  <unicode hex="0073"/>
  <outline>
    <contour>
      <point x="97.03288269042969" y="244.97969818115234" type="line"/>
      <point x="97.03288" y="99.06517"/>
      <point x="279.32578" y="-20.0"/>
      <point x="505.0" y="-20.0" type="curve" smooth="yes"/>
      <point x="730.6742200000001" y="-20.0"/>
      <point x="912.96712" y="99.06516999999994"/>
      <point x="912.96712" y="244.9797" type="curve"/>
      <point x="912.96712" y="340.1770054632577"/>
      <point x="838.3084259570988" y="471.32939523478234"/>
      <point x="539.0176635126784" y="510.92293142709934" type="curve"/>
      <point x="495.417125811052" y="516.6908991832522" type="line"/>
      <point x="428.59009930022614" y="525.5315271771506"/>
      <point x="315.52827" y="535.7745651847167"/>
      <point x="315.52827" y="596.63217" type="curve"/>
      <point x="315.52827" y="655.0966533189112"/>
      <point x="428.3499826675045" y="673.92241"/>
      <point x="505.0" y="673.92241" type="curve" smooth="yes"/>
      <point x="610.04354" y="673.92241"/>
      <point x="694.47173" y="639.0979"/>
      <point x="694.47173" y="596.63217" type="curve"/>
      <point x="898.8933410644531" y="596.6321716308594" type="line"/>
      <point x="898.89334" y="737.37942"/>
      <point x="722.89009" y="852.22935"/>
      <point x="505.0" y="852.22935" type="curve" smooth="yes"/>
      <point x="287.1099099999999" y="852.22935"/>
      <point x="111.10666000000002" y="737.3794200000001"/>
      <point x="111.10666" y="596.63217" type="curve"/>
      <point x="111.10666" y="506.3979932220245"/>
      <point x="180.35865509329244" y="378.7869438499059"/>
      <point x="473.54963969393856" y="339.90804561395083" type="curve"/>
      <point x="517.1487284139716" y="334.1265426941547" type="line"/>
      <point x="583.9636548526339" y="325.2664792471497"/>
      <point x="708.54551" y="313.0855084772081"/>
      <point x="708.54551" y="244.9797" type="curve"/>
      <point x="708.54551" y="180.63839910565312"/>
      <point x="589.8158056486411" y="158.30694"/>
      <point x="505.0" y="158.30694" type="curve" smooth="yes"/>
      <point x="392.1749" y="158.30694"/>
      <point x="301.45449" y="197.35003"/>
      <point x="301.45449" y="244.9797" type="curve"/>
    </contour>
  </outline>
</glyph>
<glyph name="t" format="2">
  <advance width="1020"/>
  <unicode hex="0074"/>
  <outline>
    <contour>
      <point x="282.07433319091797" y="325.3068313598633" type="line"/>
      <point x="282.0743301642178" y="145.7651035197926"/>
      <point x="427.8394336840103" y="0.0"/>
      <point x="607.381158167675" y="0.0" type="curve"/>
      <point x="875.9809875488281" y="0" type="line"/>
      <point x="875.9809875488281" y="183.88936614990234" type="line"/>
      <point x="607.3811569213867" y="183.88936614990234" type="line"/>
      <point x="529.3307384853933" y="183.88936905790837"/>
      <point x="465.9636992221262" y="247.25640832117543"/>
      <point x="465.9636992221262" y="325.3068280034572" type="curve"/>
      <point x="465.9636993408203" y="644.0795135498047" type="line"/>
      <point x="875.9809875488281" y="644.0795135498047" type="line"/>
      <point x="875.9809875488281" y="827.9688873291016" type="line"/>
      <point x="465.9636993408203" y="827.9688873291016" type="line"/>
      <point x="465.9636993408203" y="1035.9945678710938" type="line"/>
      <point x="282.07433319091797" y="1035.9945678710938" type="line"/>
      <point x="282.07433319091797" y="827.9688873291016" type="line"/>
      <point x="104.01901245117188" y="827.9688873291016" type="line"/>
      <point x="104.01901245117188" y="644.0795135498047" type="line"/>
      <point x="282.07433319091797" y="644.0795135498047" type="line"/>
    </contour>
  </outline>
</glyph>
<glyph name="u" format="2">
  <advance width="1020"/>
  <unicode hex="0075"/>
  <outline>
    <contour>
      <point x="104.06977081298828" y="423.6802291870117" type="line"/>
      <point x="104.0697708129883" y="89.2730745124561"/>
      <point x="337.7578241542882" y="-19.99999999999998"/>
      <point x="505.0" y="-20.0" type="curve" smooth="yes"/>
      <point x="584.54906637232" y="-20.0"/>
      <point x="658.7181588419859" y="3.217599149794694"/>
      <point x="721.0946273803711" y="43.24897003173828" type="curve"/>
      <point x="721.0946273803711" y="0" type="line"/>
      <point x="905.9302291870117" y="0" type="line"/>
      <point x="905.9302291870117" y="832.2293472290039" type="line"/>
      <point x="721.0946273803711" y="832.2293472290039" type="line"/>
      <point x="721.0946273803711" y="423.6802291870117" type="line"/>
      <point x="721.0946273803711" y="186.7656596861394"/>
      <point x="562.0118872834624" y="164.83561"/>
      <point x="505.0" y="164.83561" type="curve" smooth="yes"/>
      <point x="447.98811271653756" y="164.83561"/>
      <point x="288.90536887294456" y="186.7656605831731"/>
      <point x="288.90537024814836" y="423.68023" type="curve"/>
      <point x="288.9053726196289" y="832.2293472290039" type="line"/>
      <point x="104.06977081298828" y="832.2293472290039" type="line"/>
    </contour>
  </outline>
</glyph>
<glyph name="v" format="2">
  <advance width="1020"/>
  <unicode hex="0076"/>
  <outline>
    <contour>
      <point x="409.7206802368164" y="0" type="line"/>
      <point x="610.2793197631836" y="0" type="line"/>
      <point x="960.7713470458984" y="832.2293472290039" type="line"/>
      <point x="760.2127075195312" y="832.2293472290039" type="line"/>
      <point x="510" y="238.10924530029297" type="line"/>
      <point x="259.78729248046875" y="832.2293472290039" type="line"/>
      <point x="59.22865295410156" y="832.2293472290039" type="line"/>
    </contour>
  </outline>
</glyph>
<glyph name="w" format="2">
  <advance width="1020"/>
  <unicode hex="0077"/>
  <outline>
    <contour>
      <point x="217.26907348632812" y="0" type="line"/>
      <point x="407.2505111694336" y="0" type="line"/>
      <point x="510" y="432.44183349609375" type="line"/>
      <point x="612.7494888305664" y="0" type="line"/>
      <point x="802.7309265136719" y="0" type="line"/>
      <point x="1000.4711303710938" y="832.2293472290039" type="line"/>
      <point x="810.4896926879883" y="832.2293472290039" type="line"/>
      <point x="707.7402114868164" y="399.78751373291016" type="line"/>
      <point x="604.99072265625" y="832.2293472290039" type="line"/>
      <point x="415.00927734375" y="832.2293472290039" type="line"/>
      <point x="312.2597961425781" y="399.78751373291016" type="line"/>
      <point x="209.51030731201172" y="832.2293472290039" type="line"/>
      <point x="19.52886962890625" y="832.2293472290039" type="line"/>
    </contour>
  </outline>
</glyph>
<glyph name="x" format="2">
  <advance width="1020"/>
  <unicode hex="0078"/>
  <outline>
    <contour>
      <point x="61.75019836425781" y="0" type="line"/>
      <point x="297.72713470458984" y="0" type="line"/>
      <point x="510" y="267.4544219970703" type="line"/>
      <point x="722.2728652954102" y="0" type="line"/>
      <point x="958.2498016357422" y="0" type="line"/>
      <point x="627.9884719848633" y="416.1146774291992" type="line"/>
      <point x="958.2498016357422" y="832.2293472290039" type="line"/>
      <point x="722.2728652954102" y="832.2293472290039" type="line"/>
      <point x="510" y="564.7749252319336" type="line"/>
      <point x="297.72713470458984" y="832.2293472290039" type="line"/>
      <point x="61.75019836425781" y="832.2293472290039" type="line"/>
      <point x="392.01153564453125" y="416.1146774291992" type="line"/>
    </contour>
  </outline>
</glyph>
<glyph name="y" format="2">
  <advance width="1020"/>
  <unicode hex="0079"/>
  <outline>
    <contour>
      <point x="205.400146484375" y="-480" type="line"/>
      <point x="405.3051528930664" y="-480" type="line"/>
      <point x="609.9524993896484" y="0" type="line"/>
      <point x="609.952507019043" y="0" type="line"/>
      <point x="609.952507019043" y="7.62939453125e-06" type="line"/>
      <point x="962.9559173583984" y="827.9688873291016" type="line"/>
      <point x="763.050910949707" y="827.9688873291016" type="line"/>
      <point x="510" y="234.43842315673828" type="line"/>
      <point x="256.94908905029297" y="827.9688873291016" type="line"/>
      <point x="57.04408264160156" y="827.9688873291016" type="line"/>
      <point x="410.04749298095703" y="0" type="line"/>
    </contour>
  </outline>
</glyph>
<glyph name="z" format="2">
  <advance width="980"/>
  <unicode hex="007A"/>
  <outline>
    <contour>
      <point x="75" y="-30" type="line"/>
      <point x="885" y="-30" type="line"/>
      <point x="885" y="150" type="line"/>
      <point x="345.73104095458984" y="150" type="line"/>
      <point x="885" y="630" type="line"/>
      <point x="885" y="810" type="line"/>
      <point x="75" y="810" type="line"/>
      <point x="75" y="630" type="line"/>
      <point x="614.2689590454102" y="630" type="line"/>
      <point x="75" y="150" type="line"/>
    </contour>
  </outline>
</glyph>
<glyph name="braceleft" format="2">
  <advance width="1020"/>
  <unicode hex="007B"/>
  <outline>
    <contour>
      <point x="417.5821992697353" y="223.6762237548828" type="line"/>
      <point x="417.5821980437237" y="-79.18589585915714"/>
      <point x="634.0314172415193" y="-92.41779962395941"/>
      <point x="733.67622" y="-92.41780028255192" type="curve"/>
      <point x="827.5982437133789" y="-92.41780090332031" type="line"/>
      <point x="827.5982437133789" y="92.41780090332031" type="line"/>
      <point x="716.6482171411366" y="92.41780090332031" type="line"/>
      <point x="606.2993570681866" y="92.41780090332033"/>
      <point x="602.4177999605506" y="171.18102221549302"/>
      <point x="602.4178001730556" y="223.67622" type="curve"/>
      <point x="602.4178007302646" y="361.3237762451172" type="line"/>
      <point x="602.4178010306282" y="435.5226893555201"/>
      <point x="601.123288431332" y="508.98728743052686"/>
      <point x="533.8923416137695" y="585.0012817382812" type="curve"/>
      <point x="601.1232343896489" y="661.0111726436984"/>
      <point x="602.417799872697" y="734.4784884149738"/>
      <point x="602.4178001730556" y="808.67622" type="curve"/>
      <point x="602.4178007991954" y="963.3517828588634" type="line"/>
      <point x="602.4178012458972" y="1073.7006429318135"/>
      <point x="681.1810222154929" y="1077.58220006441"/>
      <point x="733.67622" y="1077.582199717448" type="curve"/>
      <point x="827.5982437133789" y="1077.5821990966797" type="line"/>
      <point x="827.5982437133789" y="1262.4178009033203" type="line"/>
      <point x="733.6762237548828" y="1262.4178009033203" type="line"/>
      <point x="430.81410414084286" y="1262.4178009033203"/>
      <point x="417.58220023031504" y="1045.9685827584808"/>
      <point x="417.58219982694436" y="946.32378" type="curve"/>
      <point x="417.5821992008045" y="791.6482171411366" type="line"/>
      <point x="417.582198754103" y="681.2993570681866"/>
      <point x="338.81897778450696" y="677.4177999355902"/>
      <point x="286.32378" y="677.417800282552" type="curve"/>
      <point x="192.4017562866211" y="677.4178009033203" type="line"/>
      <point x="192.4017562866211" y="492.5821990966797" type="line"/>
      <point x="286.3237762451172" y="492.5821990966797" type="line"/>
      <point x="338.8202145842366" y="492.5821990966797"/>
      <point x="417.5822003425741" y="488.6999642353324"/>
      <point x="417.5821998958752" y="378.35178655411727" type="curve"/>
    </contour>
  </outline>
</glyph>
<glyph name="bar" format="2">
  <advance width="1020"/>
  <unicode hex="007C"/>
  <outline>
    <contour>
      <point x="418.0553154710458" y="-183.88936905790837" type="line"/>
      <point x="601.9446845289542" y="-183.88936905790837" type="line"/>
      <point x="601.9446845289542" y="1347.8997407087295" type="line"/>
      <point x="418.0553154710458" y="1347.8997407087295" type="line"/>
    </contour>
  </outline>
</glyph>
<glyph name="braceright" format="2">
  <advance width="1020"/>
  <unicode hex="007D"/>
  <outline>
    <contour>
      <point x="329.0737762451172" y="-184.83560180664062" type="line"/>
      <point x="479.9364504548517" y="-184.8356054530874"/>
      <point x="602.4178027265436" y="-62.354253181395336"/>
      <point x="602.4178027265436" y="88.50842020850044" type="curve"/>
      <point x="602.4178009033203" y="404.0737762451172" type="line"/>
      <point x="602.4178027265436" y="452.92290357449883"/>
      <point x="642.0770964255012" y="492.5821972734563"/>
      <point x="690.926222935044" y="492.5821972734563" type="curve"/>
      <point x="827.5982360839844" y="492.5821990966797" type="line"/>
      <point x="827.5982360839844" y="677.4178009033203" type="line"/>
      <point x="690.9262237548828" y="677.4178009033203" type="line"/>
      <point x="642.0770964255012" y="677.4178027265436"/>
      <point x="602.4178027265436" y="717.0770964255013"/>
      <point x="602.4178027265436" y="765.926222935044" type="curve"/>
      <point x="602.4178009033203" y="1081.4915771484375" type="line"/>
      <point x="602.4178027265436" y="1232.3542531813953"/>
      <point x="479.93645045485164" y="1354.8356054530873"/>
      <point x="329.07377706495595" y="1354.8356054530873" type="curve"/>
      <point x="192.40176391601562" y="1354.8356018066406" type="line"/>
      <point x="192.40176391601562" y="1170" type="line"/>
      <point x="329.0737762451172" y="1170" type="line"/>
      <point x="377.9229035744988" y="1170.0"/>
      <point x="417.58219727345625" y="1130.3407063010427"/>
      <point x="417.58219727345625" y="1081.4915797914996" type="curve"/>
      <point x="417.5821990966797" y="765.9262237548828" type="line"/>
      <point x="417.58219727345625" y="696.5654493546323"/>
      <point x="443.4723272106661" y="633.2039244591143"/>
      <point x="486.107666015625" y="584.9987182617188" type="curve"/>
      <point x="443.47232721066615" y="536.7960755408858"/>
      <point x="417.58219727345625" y="473.43455064536784"/>
      <point x="417.5821972734563" y="404.0737770649559" type="curve"/>
      <point x="417.5821990966797" y="88.5084228515625" type="line"/>
      <point x="417.58219727345625" y="39.65929369895747"/>
      <point x="377.92290357449883" y="0.0"/>
      <point x="329.07377706495595" y="0.0" type="curve"/>
      <point x="192.40176391601562" y="0" type="line"/>
      <point x="192.40176391601562" y="-184.83560180664062" type="line"/>
    </contour>
  </outline>
</glyph>
<glyph name="tilde" format="2">
  <advance width="980"/>
  <unicode hex="007E"/>
  <outline>
    <contour>
      <point x="578.2517741326067" y="542.9708629022101" type="curve"/>
      <point x="491.7482223510742" y="592.9137115478516" type="line"/>
      <point x="449.0056711679888" y="617.5911352405424"/>
      <point x="400.52033483470274" y="630.5827419557977"/>
      <point x="351.16548391159563" y="630.5827419557977" type="curve"/>
      <point x="195.98603023521764" y="630.5827419557977"/>
      <point x="70.0" y="504.5967117205802"/>
      <point x="70.0" y="349.4172580442022" type="curve"/>
      <point x="250" y="349.4172592163086" type="line"/>
      <point x="250.0" y="405.2520081205802"/>
      <point x="295.33073383521764" y="450.58274195579776"/>
      <point x="351.1654839115956" y="450.58274195579776" type="curve"/>
      <point x="368.9237354137277" y="450.58274195579776"/>
      <point x="386.3691289397538" y="445.9082628488559"/>
      <point x="401.7482258673934" y="437.0291370977899" type="curve"/>
      <point x="488.2517776489258" y="387.08628845214844" type="line"/>
      <point x="530.9943288320112" y="362.4088647594576"/>
      <point x="579.4796651652973" y="349.41725804420224"/>
      <point x="628.8345160884044" y="349.41725804420224" type="curve"/>
      <point x="784.0139697647824" y="349.41725804420224"/>
      <point x="910.0" y="475.4032882794199"/>
      <point x="910.0" y="630.5827419557978" type="curve"/>
      <point x="730" y="630.5827407836914" type="line"/>
      <point x="730.0" y="574.7479918794198"/>
      <point x="684.6692661647824" y="529.4172580442023"/>
      <point x="628.8345160884044" y="529.4172580442023" type="curve"/>
      <point x="611.0762645862723" y="529.4172580442022"/>
      <point x="593.6308710602461" y="534.0917371511441"/>
    </contour>
  </outline>
</glyph>
<glyph name="invertedexclam" format="2">
  <advance width="980"/>
  <unicode hex="00A1"/>
  <outline>
    <contour>
      <point x="340.0" y="660.0" type="curve" smooth="yes"/>
      <point x="340.0" y="577.212747"/>
      <point x="407.212747" y="510.0"/>
      <point x="490.0" y="510.0" type="curve" smooth="yes"/>
      <point x="572.787253" y="510.0"/>
      <point x="640.0" y="577.212747"/>
      <point x="640.0" y="660.0" type="curve" smooth="yes"/>
      <point x="640.0" y="742.787253"/>
      <point x="572.787253" y="810.0"/>
      <point x="490.00000000000006" y="810.0" type="curve" smooth="yes"/>
      <point x="407.21274700000004" y="810.0"/>
      <point x="340.0" y="742.787253"/>
    </contour>
    <contour>
      <point x="580.0" y="434.0" type="line"/>
      <point x="400.0" y="434.0" type="line"/>
      <point x="399.9999999999999" y="-420.0" type="line"/>
      <point x="579.9999999999999" y="-420.0" type="line"/>
    </contour>
  </outline>
</glyph>
<glyph name="cent" format="2">
  <advance width="1020"/>
  <unicode hex="00A2"/>
  <outline>
    <contour>
      <point x="442.98436737060547" y="-112.59021759033203" type="line"/>
      <point x="590.8528594970703" y="-112.59021759033203" type="line"/>
      <point x="590.8528594970703" y="-13.738533020019531" type="line"/>
      <point x="760.3910144906345" y="15.254146464855172"/>
      <point x="896.6614198900601" y="142.25964307310002"/>
      <point x="939.19606" y="306.80468" type="curve"/>
      <point x="743.1917037963867" y="306.80467987060547" type="line"/>
      <point x="713.02131065837" y="244.51929162662"/>
      <point x="657.9000859301846" y="196.54890521802162"/>
      <point x="590.8528594970703" y="175.92171478271484" type="curve"/>
      <point x="590.8528594970703" y="656.3101959228516" type="line"/>
      <point x="657.9060006137915" y="635.679730804253"/>
      <point x="713.0310664714" y="587.70585122072"/>
      <point x="743.1997599999999" y="525.42467" type="curve"/>
      <point x="939.1900024414062" y="525.4246673583984" type="line"/>
      <point x="896.64849092344" y="689.97886596148"/>
      <point x="760.3829339827184" y="816.976261149046"/>
      <point x="590.8528594970703" y="845.9728317260742" type="curve"/>
      <point x="590.8528594970703" y="944.8195724487305" type="line"/>
      <point x="442.98436737060547" y="944.8195724487305" type="line"/>
      <point x="442.98436737060547" y="845.967903137207" type="line"/>
      <point x="237.44619912985706" y="810.8171678649348"/>
      <point x="80.80393999999998" y="631.61445299953"/>
      <point x="80.80393999999995" y="416.1146800000002" type="curve" smooth="yes"/>
      <point x="80.80394" y="200.61489804736001"/>
      <point x="237.44619912985706" y="21.412182244662972"/>
      <point x="442.98436737060547" y="-13.738945007324219" type="curve"/>
    </contour>
    <contour>
      <point x="265.63955" y="416.11468" type="curve" smooth="yes"/>
      <point x="265.63955" y="529.0726665815499"/>
      <point x="340.33489207196374" y="624.7222799543241"/>
      <point x="442.98436737060547" y="656.3078994750977" type="curve"/>
      <point x="442.98436737060547" y="175.91661071777344" type="line"/>
      <point x="340.33489207196374" y="207.50707038979692"/>
      <point x="265.63955" y="303.1566852735"/>
    </contour>
  </outline>
</glyph>
<glyph name="pound" format="2">
  <advance width="1020"/>
  <unicode hex="00A3"/>
  <outline>
    <contour>
      <point x="93.88532257080078" y="0" type="line"/>
      <point x="926.1146774291992" y="0" type="line"/>
      <point x="926.1146774291992" y="184.83560943603516" type="line"/>
      <point x="391.31114959716797" y="184.83560943603516" type="line"/>
      <point x="391.31114959716797" y="463.75421142578125" type="line"/>
      <point x="729.0818023681641" y="463.75421142578125" type="line"/>
      <point x="729.0818023681641" y="611.622688293457" type="line"/>
      <point x="391.31114959716797" y="611.622688293457" type="line"/>
      <point x="391.31114959716797" y="830.1804275512695" type="line"/>
      <point x="391.31115" y="926.75671"/>
      <point x="469.71883" y="1005.16439"/>
      <point x="566.29511" y="1005.16439" type="curve" smooth="yes"/>
      <point x="662.87138" y="1005.16439"/>
      <point x="741.27907" y="926.75671"/>
      <point x="741.27907" y="830.18043" type="curve"/>
      <point x="926.1146774291992" y="830.1804275512695" type="line"/>
      <point x="926.11468" y="1028.77026"/>
      <point x="764.88493" y="1190.0"/>
      <point x="566.29511" y="1190.0" type="curve" smooth="yes"/>
      <point x="367.70528" y="1190.0"/>
      <point x="206.47554" y="1028.77026"/>
      <point x="206.47554" y="830.18043" type="curve"/>
      <point x="206.4755401611328" y="611.622688293457" type="line"/>
      <point x="93.88532257080078" y="611.622688293457" type="line"/>
      <point x="93.88532257080078" y="463.75421142578125" type="line"/>
      <point x="206.4755401611328" y="463.75421142578125" type="line"/>
      <point x="206.4755401611328" y="184.83560943603516" type="line"/>
      <point x="93.88532257080078" y="184.83560943603516" type="line"/>
    </contour>
  </outline>
</glyph>
<glyph name="currency" format="2">
  <advance width="1020"/>
  <unicode hex="00A4"/>
  <outline>
    <contour>
      <point x="854.9481417458946" y="582.0051858254105" type="curve" smooth="yes"/>
      <point x="854.9481417458946" y="643.8351868663234"/>
      <point x="838.6453996653262" y="701.8875242097495"/>
      <point x="810.1076049804688" y="752.0833740234375" type="curve"/>
      <point x="1014.0840148925781" y="956.0597839355469" type="line"/>
      <point x="884.0545959472656" y="1086.0892028808594" type="line"/>
      <point x="680.0812606811523" y="882.1158676147461" type="line"/>
      <point x="629.8762608679849" y="910.6522921820472"/>
      <point x="571.8267645458835" y="926.9533275713053"/>
      <point x="509.99999999999994" y="926.9533275713053" type="curve" smooth="yes"/>
      <point x="448.17456812854033" y="926.9533275713052"/>
      <point x="390.12624164476625" y="910.6529949113254"/>
      <point x="339.92181396484375" y="882.11279296875" type="curve"/>
      <point x="135.94540405273438" y="1086.0892028808594" type="line"/>
      <point x="5.915985107421875" y="956.0597839355469" type="line"/>
      <point x="209.88932037353516" y="752.0864486694336" type="line"/>
      <point x="181.3534959948011" y="701.8835917015314"/>
      <point x="165.05185825410547" y="643.8330926636575"/>
      <point x="165.05185825410544" y="582.0051858254105" type="curve" smooth="yes"/>
      <point x="165.05185825410547" y="520.1751847844977"/>
      <point x="181.35460033467388" y="462.12284744107154"/>
      <point x="209.89239501953125" y="411.927001953125" type="curve"/>
      <point x="5.915985107421875" y="207.9505844116211" type="line"/>
      <point x="135.94540405273438" y="77.9211654663086" type="line"/>
      <point x="339.9187316894531" y="281.8945007324219" type="line"/>
      <point x="390.12373913201503" y="253.358079468774"/>
      <point x="448.1732354541164" y="237.05704407951595"/>
      <point x="509.99999999999994" y="237.05704407951598" type="curve" smooth="yes"/>
      <point x="571.8254318714597" y="237.05704407951595"/>
      <point x="629.8737583552338" y="253.35737673949563"/>
      <point x="680.0781860351562" y="281.8975830078125" type="curve"/>
      <point x="884.0545959472656" y="77.9211654663086" type="line"/>
      <point x="1014.0840148925781" y="207.9505844116211" type="line"/>
      <point x="810.1106796264648" y="411.9239273071289" type="line"/>
      <point x="838.646504005199" y="462.1267799492897"/>
      <point x="854.9481417458946" y="520.1772789871636"/>
    </contour>
    <contour>
      <point x="671.0587726879862" y="582.0051858254105" type="curve" smooth="yes"/>
      <point x="671.0587726879862" y="493.1144300761452"/>
      <point x="598.8907557492653" y="420.94641313742426"/>
      <point x="510.0" y="420.9464131374243" type="curve" smooth="yes"/>
      <point x="421.10924425073466" y="420.9464131374243"/>
      <point x="348.94122731201384" y="493.1144300761452"/>
      <point x="348.94122731201384" y="582.0051858254105" type="curve" smooth="yes"/>
      <point x="348.94122731201384" y="670.8959415746758"/>
      <point x="421.10924425073466" y="743.0639585133968"/>
      <point x="510.0" y="743.0639585133968" type="curve" smooth="yes"/>
      <point x="598.8907557492653" y="743.0639585133968"/>
      <point x="671.0587726879862" y="670.8959415746758"/>
    </contour>
  </outline>
</glyph>
<glyph name="yen" format="2">
  <advance width="1020"/>
  <unicode hex="00A5"/>
  <outline>
    <contour>
      <point x="96.01555633544922" y="217.68020629882812" type="line"/>
      <point x="418.05531311035156" y="217.68020629882812" type="line"/>
      <point x="418.05531311035156" y="0" type="line"/>
      <point x="601.9446868896484" y="0" type="line"/>
      <point x="601.9446868896484" y="217.68020629882812" type="line"/>
      <point x="923.9844436645508" y="217.68020629882812" type="line"/>
      <point x="923.9844436645508" y="364.7917022705078" type="line"/>
      <point x="601.9446868896484" y="364.7917022705078" type="line"/>
      <point x="601.9446868896484" y="448.05531311035156" type="line"/>
      <point x="923.9844436645508" y="448.05531311035156" type="line"/>
      <point x="923.9844436645508" y="595.1668090820312" type="line"/>
      <point x="677.5622940063477" y="595.1668090820312" type="line"/>
      <point x="969.956787109375" y="1164.010368347168" type="line"/>
      <point x="763.1967468261719" y="1164.010368347168" type="line"/>
      <point x="510" y="671.4246826171875" type="line"/>
      <point x="256.8032531738281" y="1164.010368347168" type="line"/>
      <point x="50.043212890625" y="1164.010368347168" type="line"/>
      <point x="342.43770599365234" y="595.1668090820312" type="line"/>
      <point x="96.01555633544922" y="595.1668090820312" type="line"/>
      <point x="96.01555633544922" y="448.05531311035156" type="line"/>
      <point x="418.05531311035156" y="448.05531311035156" type="line"/>
      <point x="418.05531311035156" y="364.7917022705078" type="line"/>
      <point x="96.01555633544922" y="364.7917022705078" type="line"/>
    </contour>
  </outline>
</glyph>
<glyph name="brokenbar" format="2">
  <advance width="1020"/>
  <unicode hex="00A6"/>
  <outline>
    <contour>
      <point x="417.5821972734563" y="650.3257818765036" type="line"/>
      <point x="602.4178027265436" y="650.3257818765036" type="line"/>
      <point x="602.4178027265436" y="1354.8356054530873" type="line"/>
      <point x="417.5821972734563" y="1354.8356054530873" type="line"/>
    </contour>
    <contour>
      <point x="417.5821972734563" y="-184.8356054530874" type="line"/>
      <point x="602.4178027265436" y="-184.8356054530874" type="line"/>
      <point x="602.4178027265436" y="519.6742181234964" type="line"/>
      <point x="417.5821972734563" y="519.6742181234964" type="line"/>
    </contour>
  </outline>
</glyph>
<glyph name="section" format="2">
  <advance width="1020"/>
  <unicode hex="00A7"/>
  <outline>
    <contour>
      <point x="657.2981872558594" y="534.0440826416016" type="line"/>
      <point x="657.2981849611062" y="477.55412230039747"/>
      <point x="591.2960806987727" y="431.6914433880725"/>
      <point x="510.0" y="431.6914433880725" type="curve" smooth="yes"/>
      <point x="493.11285293292815" y="431.6914433880725"/>
      <point x="476.88562963423783" y="433.67038405282875"/>
      <point x="461.7728042602539" y="437.33103942871094" type="curve"/>
      <point x="409.25041031908785" y="454.19830063578786"/>
      <point x="368.6413683776798" y="484.68788837686"/>
      <point x="363.29901123046875" y="524.9755630493164" type="curve"/>
      <point x="363.25354766845703" y="525.3874588012695" type="line"/>
      <point x="362.88475036621094" y="529.221435546875" type="line"/>
      <point x="362.7862548828125" y="531.2928466796875" type="line"/>
      <point x="362.7018127441406" y="534.0440826416016" type="line"/>
      <point x="362.7018150388937" y="590.5340367315816"/>
      <point x="428.7039193012273" y="636.3967156439065"/>
      <point x="510.0" y="636.3967156439065" type="curve" smooth="yes"/>
      <point x="529.7108038379823" y="636.3967156439065"/>
      <point x="548.5225452017494" y="633.7006598634872"/>
      <point x="565.7124710083008" y="628.8075637817383" type="curve"/>
      <point x="565.7680282592773" y="628.7895889282227" type="line"/>
      <point x="613.626125408577" y="613.3046427631039"/>
      <point x="649.5653074663649" y="583.5214818124118"/>
      <point x="656.1968002319336" y="546.4120330810547" type="curve"/>
      <point x="656.3159942626953" y="545.7249374389648" type="line"/>
      <point x="656.7934494018555" y="542.27490234375" type="line"/>
      <point x="656.9625015258789" y="540.7433242797852" type="line"/>
      <point x="657.1606063842773" y="537.9127960205078" type="line"/>
      <point x="657.2699661254883" y="535.6129455566406" type="line"/>
    </contour>
    <contour>
      <point x="186.28003692626953" y="145.4494400024414" type="line"/>
      <point x="186.28003457216943" y="3.954073411892794"/>
      <point x="331.33408880649955" y="-110.92221261884185"/>
      <point x="509.99999999999994" y="-110.92221261884195" type="curve" smooth="yes"/>
      <point x="688.6659111935005" y="-110.92221261884195"/>
      <point x="833.7199654278306" y="3.9540734118926877"/>
      <point x="833.7199654278306" y="145.44943820224708" type="curve"/>
      <point x="833.7199654278306" y="216.736195744435"/>
      <point x="796.3064100400682" y="279.28088059423897"/>
      <point x="736.8701629638672" y="325.5885696411133" type="curve"/>
      <point x="801.074191814562" y="377.80593540076734"/>
      <point x="841.1875540190147" y="451.9081995620061"/>
      <point x="841.1875540190147" y="534.0440795159894" type="curve"/>
      <point x="841.1875540190147" y="535.8232644888247"/>
      <point x="841.1687320332713" y="537.5986799296734"/>
      <point x="841.1312484741211" y="539.3191299438477" type="curve"/>
      <point x="841.1875540190147" y="535.9914765143661"/>
      <point x="841.1646847839665" y="537.9332926580199"/>
      <point x="841.1191787719727" y="539.7112655639648" type="curve"/>
      <point x="838.2176021933786" y="664.3356252089517"/>
      <point x="743.2691836858942" y="769.3800607393841"/>
      <point x="612.7752838134766" y="806.202018737793" type="curve"/>
      <point x="612.6631088256836" y="806.2384643554688" type="line"/>
      <point x="452.89083099365234" y="857.2550201416016" type="line"/>
      <point x="409.06848015166844" y="871.2478421478063"/>
      <point x="377.6369922212619" y="893.830877138294"/>
      <point x="377.6369922212619" y="922.6387208297319" type="curve"/>
      <point x="377.6369922212619" y="962.6427808187036"/>
      <point x="436.9468679145376" y="995.1210025929125"/>
      <point x="510.0" y="995.1210025929125" type="curve" smooth="yes"/>
      <point x="583.0531320854624" y="995.1210025929125"/>
      <point x="642.3630077787382" y="962.6427808187036"/>
      <point x="642.3630077787382" y="922.6387208297319" type="curve"/>
      <point x="826.2523803710938" y="922.6387176513672" type="line"/>
      <point x="826.2523768366464" y="1064.1340856200861"/>
      <point x="684.5444368868452" y="1179.0103716508208"/>
      <point x="510.0" y="1179.0103716508208" type="curve" smooth="yes"/>
      <point x="335.45556311315465" y="1179.0103716508208"/>
      <point x="193.74762316335352" y="1064.1340856200861"/>
      <point x="193.74762316335352" y="922.6387208297319" type="curve"/>
      <point x="193.74762316335352" y="852.4465004943984"/>
      <point x="229.17616968684004" y="790.6408388323028"/>
      <point x="285.69773864746094" y="744.5576553344727" type="curve"/>
      <point x="219.99713769589027" y="692.2468589872984"/>
      <point x="178.8124459809854" y="617.2695562341041"/>
      <point x="178.8124459809854" y="534.0440795159896" type="curve"/>
      <point x="178.81244598098533" y="532.2650525244165"/>
      <point x="178.83126462431161" y="530.4897943954347"/>
      <point x="178.86873626708984" y="528.7696380615234" type="curve"/>
      <point x="178.81244598098533" y="532.0992285259377"/>
      <point x="178.8352552419452" y="530.1599543370902"/>
      <point x="178.88064575195312" y="528.3827590942383" type="curve"/>
      <point x="181.78680499048536" y="403.4027013422334"/>
      <point x="277.26932264025163" y="298.1111267405863"/>
      <point x="408.3399353027344" y="261.57015228271484" type="curve"/>
      <point x="408.4306869506836" y="261.5407943725586" type="line"/>
      <point x="564.1826248168945" y="212.27106475830078" type="line"/>
      <point x="613.2672151894105" y="196.74391076752647"/>
      <point x="649.8305963699222" y="175.4970877208634"/>
      <point x="649.8305963699222" y="145.44943820224708" type="curve"/>
      <point x="649.8305963699222" y="105.44537821327563"/>
      <point x="587.1746063921175" y="72.96715643906643"/>
      <point x="510.0" y="72.96715643906643" type="curve" smooth="yes"/>
      <point x="432.82539360788246" y="72.96715643906643"/>
      <point x="370.1694036300778" y="105.44537821327563"/>
      <point x="370.1694036300778" y="145.44943820224708" type="curve"/>
    </contour>
  </outline>
</glyph>
<glyph name="diaeresis" format="2">
  <advance width="980"/>
  <unicode hex="00A8"/>
  <outline>
    <contour>
      <point x="429.30000000000007" y="1166.8" type="curve" smooth="yes"/>
      <point x="429.30000000000007" y="1225.744524136"/>
      <point x="381.4445241360001" y="1273.6"/>
      <point x="322.50000000000006" y="1273.6" type="curve" smooth="yes"/>
      <point x="263.5554758640001" y="1273.6"/>
      <point x="215.70000000000005" y="1225.744524136"/>
      <point x="215.70000000000005" y="1166.8" type="curve" smooth="yes"/>
      <point x="215.70000000000005" y="1107.855475864"/>
      <point x="263.555475864" y="1060.0"/>
      <point x="322.50000000000006" y="1060.0" type="curve" smooth="yes"/>
      <point x="381.44452413600004" y="1060.0"/>
      <point x="429.30000000000007" y="1107.855475864"/>
    </contour>
    <contour>
      <point x="764.3" y="1166.8" type="curve" smooth="yes"/>
      <point x="764.3" y="1225.744524136"/>
      <point x="716.4445241359999" y="1273.6"/>
      <point x="657.5" y="1273.6" type="curve" smooth="yes"/>
      <point x="598.5554758640001" y="1273.6"/>
      <point x="550.7" y="1225.744524136"/>
      <point x="550.7" y="1166.8" type="curve" smooth="yes"/>
      <point x="550.7" y="1107.855475864"/>
      <point x="598.5554758640001" y="1060.0"/>
      <point x="657.5" y="1060.0" type="curve" smooth="yes"/>
      <point x="716.4445241359999" y="1060.0"/>
      <point x="764.3" y="1107.855475864"/>
    </contour>
  </outline>
</glyph>
<glyph name="copyright" format="2">
  <advance width="980"/>
  <unicode hex="00A9"/>
  <outline>
    <contour>
      <point x="910.0" y="585.0" type="curve" smooth="yes"/>
      <point x="910.0" y="816.8043084000001"/>
      <point x="721.8043084000001" y="1005.0"/>
      <point x="490.0" y="1005.0" type="curve" smooth="yes"/>
      <point x="258.19569160000003" y="1005.0"/>
      <point x="70.0" y="816.8043084000001"/>
      <point x="70.0" y="585.0" type="curve" smooth="yes"/>
      <point x="70.0" y="353.1956916000001"/>
      <point x="258.1956915999999" y="165.00000000000006"/>
      <point x="489.99999999999994" y="165.00000000000006" type="curve" smooth="yes"/>
      <point x="721.8043084" y="165.0"/>
      <point x="910.0" y="353.1956915999999"/>
    </contour>
    <contour>
      <point x="815.5" y="585.0" type="curve" smooth="yes"/>
      <point x="815.5" y="405.35166099"/>
      <point x="669.64833901" y="259.5"/>
      <point x="489.99999999999994" y="259.50000000000006" type="curve" smooth="yes"/>
      <point x="310.35166098999997" y="259.50000000000006"/>
      <point x="164.5" y="405.3516609900001"/>
      <point x="164.5" y="585.0" type="curve" smooth="yes"/>
      <point x="164.5" y="764.64833901"/>
      <point x="310.35166099" y="910.5"/>
      <point x="490.0" y="910.5" type="curve" smooth="yes"/>
      <point x="669.64833901" y="910.5"/>
      <point x="815.5" y="764.64833901"/>
    </contour>
    <contour>
      <point x="490.0" y="492.0" type="curve" smooth="yes"/>
      <point x="438.67190314" y="492.0"/>
      <point x="397.0" y="533.67190314"/>
      <point x="397.0" y="585.0" type="curve" smooth="yes"/>
      <point x="397.0" y="636.32809686"/>
      <point x="438.67190314000004" y="678.0"/>
      <point x="490.0" y="678.0" type="curve" smooth="yes"/>
      <point x="524.3911080986215" y="678.0"/>
      <point x="554.4472273478102" y="659.2920866456539"/>
      <point x="570.5381278991699" y="631.5" type="curve"/>
      <point x="694.8226470947266" y="631.5" type="line"/>
      <point x="673.6364760121953" y="725.0621786889988"/>
      <point x="589.9212174724414" y="795.0"/>
      <point x="490.0" y="795.0" type="curve" smooth="yes"/>
      <point x="374.0978458" y="795.0"/>
      <point x="280.0" y="700.9021542"/>
      <point x="280.0" y="585.0" type="curve" smooth="yes"/>
      <point x="280.0" y="469.0978458"/>
      <point x="374.09784579999996" y="375.0"/>
      <point x="490.0" y="375.0" type="curve" smooth="yes"/>
      <point x="589.9200584508994" y="375.0"/>
      <point x="673.6345339242298" y="444.93619885336045"/>
      <point x="694.8218612670898" y="538.5" type="curve"/>
      <point x="570.5359077453613" y="538.5" type="line"/>
      <point x="554.4444461297796" y="510.7061822789449"/>
      <point x="524.3895169276188" y="492.0"/>
    </contour>
  </outline>
</glyph>
<glyph name="ordinalfeminine" format="2">
  <advance width="1020"/>
  <unicode hex="00AA"/>
  <outline>
    <contour>
      <point x="495.92622293504405" y="878.1217845264746" type="curve"/>
      <point x="604.2498397827148" y="878.1217880249023" type="line"/>
      <point x="604.2498429405573" y="851.7760486022421"/>
      <point x="549.4054077221841" y="830.3866532661721"/>
      <point x="481.8524458700882" y="830.3866532661721" type="curve"/>
      <point x="445.36959981911497" y="830.3866532661721"/>
      <point x="415.75015705944264" y="841.0813509342071"/>
      <point x="415.75015705944264" y="854.2542188963234" type="curve"/>
      <point x="415.75015705944264" y="867.4270868584396"/>
      <point x="451.67584793379024" y="878.1217845264746"/>
    </contour>
    <contour>
      <point x="287.5898589790497" y="497.7321404991026" type="line"/>
      <point x="732.4101410209503" y="497.7321404991026" type="line"/>
      <point x="732.4101410209503" y="612.1541819700615" type="line"/>
      <point x="287.5898589790497" y="612.1541819700615" type="line"/>
    </contour>
    <contour>
      <point x="604.2498397827148" y="710.1845932006836" type="line"/>
      <point x="732.4101409912109" y="710.1845932006836" type="line"/>
      <point x="732.4101409912109" y="1009.7871322631836" type="line"/>
      <point x="732.4101410209503" y="1098.2110215403136"/>
      <point x="636.6365633950297" y="1170.0"/>
      <point x="518.6703775816126" y="1170.0" type="curve"/>
      <point x="395.5258391346747" y="1170.0"/>
      <point x="295.5480960989708" y="1101.3641455976515"/>
      <point x="295.5480960989708" y="1016.8240234199578" type="curve"/>
      <point x="423.7083969116211" y="1016.8240203857422" type="line"/>
      <point x="423.7083941793638" y="1030.6305521194054"/>
      <point x="466.2594326129207" y="1041.839701919607"/>
      <point x="518.6703775816126" y="1041.839701919607" type="curve"/>
      <point x="565.9029699167838" y="1041.839701919607"/>
      <point x="604.2498429405573" y="1027.4774280620677"/>
      <point x="604.2498429405573" y="1009.7871348874799" type="curve"/>
      <point x="604.2498397827148" y="1006.2820816040039" type="line"/>
      <point x="495.9262237548828" y="1006.2820816040039" type="line"/>
      <point x="380.9422544555442" y="1006.2820826068673"/>
      <point x="287.5898589790497" y="938.1606803366857"/>
      <point x="287.5898589790497" y="854.2542188963234" type="curve"/>
      <point x="287.5898589790497" y="770.3477574559612"/>
      <point x="374.63600634086896" y="702.2263551857792"/>
      <point x="481.8524458700882" y="702.2263551857792" type="curve"/>
      <point x="526.2924898641576" y="702.2263551857792"/>
      <point x="568.0458299328891" y="710.36597244478"/>
      <point x="604.2498397827148" y="724.6503295898438" type="curve"/>
    </contour>
  </outline>
</glyph>
<glyph name="angledblleft" format="2">
  <advance width="1020"/>
  <unicode hex="00AB"/>
  <outline>
    <contour>
      <point x="881.5597457885742" y="218.456298828125" type="line"/>
      <point x="674.1728897094727" y="495.86608123779297" type="line"/>
      <point x="881.5597457885742" y="773.2758636474609" type="line"/>
      <point x="650.7830047607422" y="773.2758636474609" type="line"/>
      <point x="443.3961486816406" y="495.86608123779297" type="line"/>
      <point x="650.7830047607422" y="218.456298828125" type="line"/>
    </contour>
    <contour>
      <point x="546.6038513183594" y="218.456298828125" type="line"/>
      <point x="339.2169952392578" y="495.86608123779297" type="line"/>
      <point x="546.6038513183594" y="773.2758636474609" type="line"/>
      <point x="315.82711029052734" y="773.2758636474609" type="line"/>
      <point x="108.44025421142578" y="495.86608123779297" type="line"/>
      <point x="315.82711029052734" y="218.456298828125" type="line"/>
    </contour>
  </outline>
</glyph>
<glyph name="logicalnot" format="2">
  <advance width="980"/>
  <unicode hex="00AC"/>
  <outline>
    <contour>
      <point x="70" y="400" type="line"/>
      <point x="730" y="400" type="line"/>
      <point x="730" y="-30" type="line"/>
      <point x="910" y="-30" type="line"/>
      <point x="910" y="580" type="line"/>
      <point x="70" y="580" type="line"/>
    </contour>
  </outline>
</glyph>
<glyph name="registered" format="2">
  <advance width="1020"/>
  <unicode hex="00AE"/>
  <outline>
    <contour>
      <point x="923.9844425237684" y="750.0259291270527" type="curve" smooth="yes"/>
      <point x="923.9844425237684" y="978.5101610022472"/>
      <point x="738.4842318751946" y="1164.010371650821"/>
      <point x="510.00000000000006" y="1164.010371650821" type="curve" smooth="yes"/>
      <point x="281.5157681248056" y="1164.010371650821"/>
      <point x="96.01555747623172" y="978.5101610022472"/>
      <point x="96.01555747623172" y="750.0259291270527" type="curve" smooth="yes"/>
      <point x="96.01555747623166" y="521.5416972518583"/>
      <point x="281.5157681248055" y="336.0414866032844"/>
      <point x="510.0" y="336.04148660328434" type="curve" smooth="yes"/>
      <point x="738.4842318751945" y="336.0414866032843"/>
      <point x="923.9844425237684" y="521.5416972518582"/>
    </contour>
    <contour>
      <point x="832.6527225583405" y="750.0259291270527" type="curve" smooth="yes"/>
      <point x="832.6527225583404" y="571.9490453032117"/>
      <point x="688.076883823841" y="427.37320656871213"/>
      <point x="510.0" y="427.3732065687122" type="curve" smooth="yes"/>
      <point x="331.9231161761591" y="427.3732065687122"/>
      <point x="187.34727744165957" y="571.9490453032118"/>
      <point x="187.34727744165957" y="750.0259291270527" type="curve" smooth="yes"/>
      <point x="187.34727744165957" y="928.1028129508936"/>
      <point x="331.92311617615917" y="1072.6786516853933"/>
      <point x="510.00000000000006" y="1072.6786516853933" type="curve" smooth="yes"/>
      <point x="688.0768838238411" y="1072.6786516853933"/>
      <point x="832.6527225583405" y="928.1028129508936"/>
    </contour>
    <contour>
      <point x="348.80643463134766" y="527.9268417358398" type="line"/>
      <point x="463.12432861328125" y="527.9268417358398" type="line"/>
      <point x="463.12432861328125" y="659.6175842285156" type="line"/>
      <point x="534.7812881469727" y="659.6175842285156" type="line"/>
      <point x="538.6885713939414" y="659.6175840921813"/>
      <point x="542.5670061244961" y="659.7301824707215"/>
      <point x="546.4127578735352" y="659.9522171020508" type="curve"/>
      <point x="594.7372741699219" y="527.9268417358398" type="line"/>
      <point x="715.1554412841797" y="527.9268417358398" type="line"/>
      <point x="652.4767913818359" y="699.1685256958008" type="line"/>
      <point x="690.8489855285264" y="729.0900447955764"/>
      <point x="715.1554433880727" y="773.3683955334938"/>
      <point x="715.1554433880727" y="822.7403429320025" type="curve" smooth="yes"/>
      <point x="715.1554433880727" y="912.7702436395375"/>
      <point x="634.3324927202749" y="985.8631017718237"/>
      <point x="534.7812860847018" y="985.8631017718237" type="curve"/>
      <point x="348.80643463134766" y="985.8630981445312" type="line"/>
    </contour>
    <contour>
      <point x="534.7812881469727" y="882.4788360595703" type="line"/>
      <point x="571.2387315687486" y="882.4788362019073"/>
      <point x="600.8375522904063" y="855.7109146398318"/>
      <point x="600.8375522904063" y="822.7403429320025" type="curve" smooth="yes"/>
      <point x="600.8375522904063" y="789.7697712241732"/>
      <point x="571.2387315687486" y="763.0018496620978"/>
      <point x="534.7812860847018" y="763.0018496620978" type="curve"/>
      <point x="463.12432861328125" y="763.0018463134766" type="line"/>
      <point x="463.12432861328125" y="882.4788360595703" type="line"/>
    </contour>
  </outline>
</glyph>
<glyph name="macron" format="2">
  <advance width="1020"/>
  <unicode hex="00AF"/>
  <outline>
    <contour>
      <point x="232.59022" y="1077.89775" type="line"/>
      <point x="787.40978" y="1077.89775" type="line"/>
      <point x="787.40978" y="1207.28268" type="line"/>
      <point x="232.59022" y="1207.28268" type="line"/>
    </contour>
  </outline>
</glyph>
<glyph name="degree" format="2">
  <advance width="1020"/>
  <unicode hex="00B0"/>
  <outline>
    <contour>
      <point x="771.30313" y="908.69687" type="curve" smooth="yes"/>
      <point x="771.30313" y="1052.91399"/>
      <point x="654.21712" y="1170.0"/>
      <point x="510.0" y="1170.0" type="curve" smooth="yes"/>
      <point x="365.78288" y="1170.0"/>
      <point x="248.69687" y="1052.91399"/>
      <point x="248.69687" y="908.69687" type="curve" smooth="yes"/>
      <point x="248.69687" y="764.47975"/>
      <point x="365.78288" y="647.39374"/>
      <point x="510.0" y="647.39374" type="curve" smooth="yes"/>
      <point x="654.21712" y="647.39374"/>
      <point x="771.30313" y="764.47975"/>
    </contour>
    <contour>
      <point x="586.46752" y="908.69687" type="curve" smooth="yes"/>
      <point x="586.46752" y="866.4933"/>
      <point x="552.20357" y="832.22935"/>
      <point x="510.0" y="832.22935" type="curve" smooth="yes"/>
      <point x="467.79643" y="832.22935"/>
      <point x="433.53248" y="866.4933"/>
      <point x="433.53248" y="908.69687" type="curve" smooth="yes"/>
      <point x="433.53248" y="950.90045"/>
      <point x="467.79643" y="985.16439"/>
      <point x="510.0" y="985.16439" type="curve" smooth="yes"/>
      <point x="552.20357" y="985.16439"/>
      <point x="586.46752" y="950.90045"/>
    </contour>
  </outline>
</glyph>
<glyph name="plusminus" format="2">
  <advance width="1020"/>
  <unicode hex="00B1"/>
  <outline>
    <contour>
      <point x="418.05531311035156" y="259.34313201904297" type="line"/>
      <point x="601.9446868896484" y="259.34313201904297" type="line"/>
      <point x="601.9446868896484" y="509.35176849365234" type="line"/>
      <point x="851.9533309936523" y="509.35176849365234" type="line"/>
      <point x="851.9533309936523" y="693.2411422729492" type="line"/>
      <point x="601.9446868896484" y="693.2411422729492" type="line"/>
      <point x="601.9446868896484" y="943.2497863769531" type="line"/>
      <point x="418.05531311035156" y="943.2497863769531" type="line"/>
      <point x="418.05531311035156" y="693.2411422729492" type="line"/>
      <point x="168.04666900634766" y="693.2411422729492" type="line"/>
      <point x="168.04666900634766" y="509.35176849365234" type="line"/>
      <point x="418.05531311035156" y="509.35176849365234" type="line"/>
    </contour>
    <contour>
      <point x="168.04667242869493" y="43.40535868625756" type="line"/>
      <point x="851.9533275713051" y="43.40535868625756" type="line"/>
      <point x="851.9533275713051" y="227.29472774416593" type="line"/>
      <point x="168.04667242869493" y="227.29472774416593" type="line"/>
    </contour>
  </outline>
</glyph>
<glyph name="sup_two" format="2">
  <advance width="1020"/>
  <unicode hex="00B2"/>
  <outline>
    <contour>
      <point x="247.25509643554688" y="400.3114776611328" type="line"/>
      <point x="772.7449035644531" y="400.3114776611328" type="line"/>
      <point x="772.7449035644531" y="546.5878067016602" type="line"/>
      <point x="481.2560348510742" y="546.5878067016602" type="line"/>
      <point x="674.2444686889648" y="701.146842956543" type="line"/>
      <point x="736.5068329583562" y="751.0110322570881"/>
      <point x="772.7449070873229" y="826.4602188297765"/>
      <point x="772.7449070873229" y="906.2288791414576" type="curve"/>
      <point x="772.7449070873229" y="1051.24173979144"/>
      <point x="655.0128606500106" y="1168.9737862287525"/>
      <point x="510.0000000000282" y="1168.9737862287525" type="curve" smooth="yes"/>
      <point x="364.98713935004577" y="1168.9737862287525"/>
      <point x="247.25509291273346" y="1051.24173979144"/>
      <point x="247.25509291273346" y="906.2288791414576" type="curve"/>
      <point x="393.5314254760742" y="906.2288818359375" type="line"/>
      <point x="393.53142394125547" y="970.5096356263068"/>
      <point x="445.7192435151791" y="1022.6974552002303"/>
      <point x="510.0000000000282" y="1022.6974552002303" type="curve" smooth="yes"/>
      <point x="574.2807564848772" y="1022.6974552002303"/>
      <point x="626.4685760588009" y="970.5096356263068"/>
      <point x="626.4685760588009" y="906.2288791414576" type="curve"/>
      <point x="626.4685760588009" y="870.869326853235"/>
      <point x="610.4050985980912" y="837.4244946685557"/>
      <point x="582.8056715042947" y="815.3208849606874" type="curve"/>
      <point x="247.25509643554688" y="546.5878067016602" type="line"/>
    </contour>
  </outline>
</glyph>
<glyph name="sup_three" format="2">
  <advance width="1020"/>
  <unicode hex="00B3"/>
  <outline>
    <contour>
      <point x="244.33806610107422" y="625.3639297485352" type="line"/>
      <point x="244.338066119274" y="495.73961807784895"/>
      <point x="363.3771884489804" y="390.50112093056754"/>
      <point x="510.0" y="390.50112093056754" type="curve" smooth="yes"/>
      <point x="656.6228115510196" y="390.5011209305673"/>
      <point x="775.661933880726" y="495.73961807784895"/>
      <point x="775.661933880726" y="625.3639300952074" type="curve"/>
      <point x="775.661933880726" y="688.939470167241"/>
      <point x="747.0269525843389" y="746.6489778035873"/>
      <point x="700.5469360351562" y="788.9366149902344" type="curve"/>
      <point x="741.7830756466026" y="829.287726085559"/>
      <point x="766.9108535004322" y="882.7967628196981"/>
      <point x="766.9108535004322" y="941.4620972300388" type="curve"/>
      <point x="766.9108535004322" y="1067.0292156139976"/>
      <point x="651.792958847908" y="1168.9737862287525"/>
      <point x="510.0" y="1168.9737862287525" type="curve" smooth="yes"/>
      <point x="368.20704115209196" y="1168.9737862287525"/>
      <point x="253.08914649956787" y="1067.0292156139976"/>
      <point x="253.08914649956787" y="941.4620972300388" type="curve"/>
      <point x="399.365478515625" y="941.4620971679688" type="line"/>
      <point x="399.36547752808985" y="986.2971114488644"/>
      <point x="448.9391453172253" y="1022.6974552002303"/>
      <point x="510.0" y="1022.6974552002303" type="curve" smooth="yes"/>
      <point x="571.0608546827748" y="1022.6974552002303"/>
      <point x="620.63452247191" y="986.2971114488644"/>
      <point x="620.63452247191" y="941.4620972300388" type="curve"/>
      <point x="620.63452247191" y="896.6270830112134"/>
      <point x="571.0608546827748" y="860.2267392598472"/>
      <point x="510.0" y="860.2267392598472" type="curve"/>
      <point x="447.17767333984375" y="860.2267379760742" type="line"/>
      <point x="447.17767333984375" y="713.9504089355469" type="line"/>
      <point x="510" y="713.9504089355469" type="line"/>
      <point x="575.8907073858862" y="713.9504082313252"/>
      <point x="629.385602852204" y="674.2561379474324"/>
      <point x="629.385602852204" y="625.3639300952074" type="curve"/>
      <point x="629.385602852204" y="576.4717222429823"/>
      <point x="575.8907073858862" y="536.7774519590896"/>
      <point x="510.0" y="536.7774519590896" type="curve" smooth="yes"/>
      <point x="444.10929261411377" y="536.7774519590896"/>
      <point x="390.614397147796" y="576.4717222429823"/>
      <point x="390.614397147796" y="625.3639300952074" type="curve"/>
    </contour>
  </outline>
</glyph>
<glyph name="acute" format="2">
  <advance width="1020"/>
  <unicode hex="00B4"/>
  <outline>
    <contour>
      <point x="366.66238449453573" y="1038.6447473937449" type="line"/>
      <point x="515.3199097117838" y="1038.6447473937449" type="line"/>
      <point x="653.3376155054643" y="1282.5902165196471" type="line"/>
      <point x="504.6800902882163" y="1282.5902165196471" type="line"/>
    </contour>
  </outline>
</glyph>
<glyph name="mu" format="2">
  <advance width="1020"/>
  <unicode hex="00B5"/>
  <outline>
    <contour>
      <point x="133.64826202392578" y="-225" type="line"/>
      <point x="318.48387145996094" y="-225" type="line"/>
      <point x="318.48387145996094" y="34.64435577392578" type="line"/>
      <point x="375.94743998122743" y="-0.04229117834805862"/>
      <point x="443.27413402316" y="-19.999999999999986"/>
      <point x="515.22542" y="-19.999999999999993" type="curve" smooth="yes"/>
      <point x="616.64717727624" y="-20.0"/>
      <point x="708.8801410825208" y="19.654809194948008"/>
      <point x="777.2524261474609" y="84.30419158935547" type="curve"/>
      <point x="823.830515644707" y="32.55542881629912"/>
      <point x="891.31926239728" y="-1.4210854715202004e-14"/>
      <point x="966.35174" y="0.0" type="curve"/>
      <point x="966.3517379760742" y="184.83560943603516" type="line"/>
      <point x="947.7098871018081" y="184.83560970992565"/>
      <point x="896.8025703738591" y="192.1576877719966"/>
      <point x="896.8025698785658" y="274.596903429006" type="curve"/>
      <point x="896.8025665283203" y="832.2293472290039" type="line"/>
      <point x="711.9669723510742" y="832.2293472290039" type="line"/>
      <point x="711.9669723510742" y="404.32716369628906" type="line"/>
      <point x="711.9669723510742" y="194.0827985763808"/>
      <point x="581.7703007119824" y="164.83561"/>
      <point x="515.22542" y="164.83561" type="curve" smooth="yes"/>
      <point x="448.68053878801766" y="164.83561"/>
      <point x="318.48386948043327" y="194.08279506490618"/>
      <point x="318.4838701326103" y="404.32716" type="curve"/>
      <point x="318.48387145996094" y="832.2293472290039" type="line"/>
      <point x="133.64826202392578" y="832.2293472290039" type="line"/>
    </contour>
  </outline>
</glyph>
<glyph name="pilcrow" format="2">
  <advance width="1020"/>
  <unicode hex="00B6"/>
  <outline>
    <contour>
      <point x="359.5569381713867" y="-112.59021759033203" type="line"/>
      <point x="544.3925399780273" y="-112.59021759033203" type="line"/>
      <point x="544.3925399780273" y="985.1643981933594" type="line"/>
      <point x="656.9827575683594" y="985.1643981933594" type="line"/>
      <point x="656.9827575683594" y="-112.59021759033203" type="line"/>
      <point x="841.8183670043945" y="-112.59021759033203" type="line"/>
      <point x="841.8183670043945" y="985.1643981933594" type="line"/>
      <point x="990.5312728881836" y="985.1643981933594" type="line"/>
      <point x="990.5312728881836" y="1170" type="line"/>
      <point x="359.5569381713867" y="1170" type="line"/>
      <point x="182.89544488131517" y="1170.0"/>
      <point x="39.46872493985563" y="1026.5732800585406"/>
      <point x="39.46872493985563" y="849.9117882919005" type="curve" smooth="yes"/>
      <point x="39.46872493985563" y="673.2502965252606"/>
      <point x="182.8954448813151" y="529.823576583801"/>
      <point x="359.556936647955" y="529.823576583801" type="curve"/>
    </contour>
  </outline>
</glyph>
<glyph name="periodcentered" format="2">
  <advance width="980"/>
  <unicode hex="00B7"/>
  <outline>
    <contour>
      <point x="640.0" y="340.0" type="curve" smooth="yes"/>
      <point x="640.0" y="422.787253"/>
      <point x="572.787253" y="490.0"/>
      <point x="490.0" y="490.0" type="curve" smooth="yes"/>
      <point x="407.21274700000004" y="490.0"/>
      <point x="340.0" y="422.787253"/>
      <point x="340.0" y="340.0" type="curve" smooth="yes"/>
      <point x="340.0" y="257.21274700000004"/>
      <point x="407.212747" y="190.0"/>
      <point x="490.0" y="190.0" type="curve" smooth="yes"/>
      <point x="572.787253" y="189.99999999999997"/>
      <point x="640.0" y="257.212747"/>
    </contour>
  </outline>
</glyph>
<glyph name="cedilla" format="2">
  <advance width="980"/>
  <unicode hex="00B8"/>
  <outline>
    <contour>
      <point x="389.5" y="-156" type="line"/>
      <point x="452.5" y="-156" type="line"/>
      <point x="477.3361759" y="-156.0"/>
      <point x="497.5" y="-176.1638241"/>
      <point x="497.5" y="-201.0" type="curve" smooth="yes"/>
      <point x="497.5" y="-225.8361759"/>
      <point x="477.3361759" y="-246.0"/>
      <point x="452.5" y="-246.0" type="curve"/>
      <point x="356.5" y="-246" type="line"/>
      <point x="356.5" y="-372" type="line"/>
      <point x="452.5" y="-372" type="line"/>
      <point x="546.87746842" y="-372.0"/>
      <point x="623.5" y="-295.37746842"/>
      <point x="623.5" y="-201.0" type="curve" smooth="yes"/>
      <point x="623.5" y="-128.86560209216242"/>
      <point x="578.7384958639186" y="-67.10331878836604"/>
      <point x="515.5" y="-42.01624298095703" type="curve"/>
      <point x="515.5" y="60" type="line"/>
      <point x="389.5" y="60" type="line"/>
    </contour>
  </outline>
</glyph>
<glyph name="sup_one" format="2">
  <advance width="980"/>
  <unicode hex="00B9"/>
  <outline>
    <contour>
      <point x="240" y="431.25" type="line"/>
      <point x="740" y="431.25" type="line"/>
      <point x="740" y="576.5999984741211" type="line"/>
      <point x="562.6750030517578" y="576.5999984741211" type="line"/>
      <point x="562.6750030517578" y="1200" type="line"/>
      <point x="417.3249969482422" y="1200" type="line"/>
      <point x="240" y="1098.8556060791016" type="line"/>
      <point x="240" y="931.5234298706055" type="line"/>
      <point x="417.3249969482422" y="1032.667823791504" type="line"/>
      <point x="417.3249969482422" y="576.5999984741211" type="line"/>
      <point x="240" y="576.5999984741211" type="line"/>
    </contour>
  </outline>
</glyph>
<glyph name="ordinalmasculine" format="2">
  <advance width="1020"/>
  <unicode hex="00BA"/>
  <outline>
    <contour>
      <point x="747.2585339239413" y="926.7518377268798" type="curve" smooth="yes"/>
      <point x="747.2585339239413" y="1057.6983862226825"/>
      <point x="640.9465484958027" y="1164.010371650821"/>
      <point x="510.0" y="1164.010371650821" type="curve" smooth="yes"/>
      <point x="379.05345150419737" y="1164.010371650821"/>
      <point x="272.74146607605877" y="1057.6983862226825"/>
      <point x="272.74146607605877" y="926.7518377268799" type="curve" smooth="yes"/>
      <point x="272.74146607605877" y="795.8052892310773"/>
      <point x="379.05345150419726" y="689.4933038029386"/>
      <point x="510.0" y="689.4933038029386" type="curve" smooth="yes"/>
      <point x="640.9465484958026" y="689.4933038029386"/>
      <point x="747.2585339239413" y="795.8052892310772"/>
    </contour>
    <contour>
      <point x="611.0118355661193" y="926.7518377268798" type="curve" smooth="yes"/>
      <point x="611.0118355661193" y="871.0018884801684"/>
      <point x="565.7499492467114" y="825.7400021607605"/>
      <point x="510.0" y="825.7400021607606" type="curve" smooth="yes"/>
      <point x="454.2500507532886" y="825.7400021607606"/>
      <point x="408.9881644338807" y="871.0018884801684"/>
      <point x="408.9881644338807" y="926.7518377268798" type="curve" smooth="yes"/>
      <point x="408.9881644338807" y="982.5017869735912"/>
      <point x="454.2500507532886" y="1027.763673292999"/>
      <point x="510.0" y="1027.763673292999" type="curve" smooth="yes"/>
      <point x="565.7499492467114" y="1027.763673292999"/>
      <point x="611.0118355661193" y="982.5017869735912"/>
    </contour>
    <contour>
      <point x="272.74146607605877" y="486.04596462526234" type="line"/>
      <point x="747.2585339239413" y="486.04596462526234" type="line"/>
      <point x="747.2585339239413" y="599.8822407087295" type="line"/>
      <point x="272.74146607605877" y="599.8822407087295" type="line"/>
    </contour>
  </outline>
</glyph>
<glyph name="angledblright" format="2">
  <advance width="1020"/>
  <unicode hex="00BB"/>
  <outline>
    <contour>
      <point x="473.3961486816406" y="218.456298828125" type="line"/>
      <point x="704.1728897094727" y="218.456298828125" type="line"/>
      <point x="911.5597381591797" y="495.86608123779297" type="line"/>
      <point x="704.1728897094727" y="773.2758636474609" type="line"/>
      <point x="473.3961486816406" y="773.2758636474609" type="line"/>
      <point x="680.7829971313477" y="495.86608123779297" type="line"/>
    </contour>
    <contour>
      <point x="138.4402618408203" y="218.456298828125" type="line"/>
      <point x="369.21700286865234" y="218.456298828125" type="line"/>
      <point x="576.6038513183594" y="495.86608123779297" type="line"/>
      <point x="369.21700286865234" y="773.2758636474609" type="line"/>
      <point x="138.4402618408203" y="773.2758636474609" type="line"/>
      <point x="345.82711029052734" y="495.86608123779297" type="line"/>
    </contour>
  </outline>
</glyph>
<glyph name="one_over_four" format="2">
  <advance width="980"/>
  <unicode hex="00BC"/>
  <outline>
    <contour>
      <point x="90.625" y="315" type="line"/>
      <point x="900.625" y="729.8097381591797" type="line"/>
      <point x="900.625" y="855" type="line"/>
      <point x="457.875" y="628.2629470825195" type="line"/>
      <point x="457.875" y="750.3899993896484" type="line"/>
      <point x="335.1949996948242" y="750.3899993896484" type="line"/>
      <point x="335.1949996948242" y="1200" type="line"/>
      <point x="200.55500030517578" y="1200" type="line"/>
      <point x="77.875" y="1130.0245666503906" type="line"/>
      <point x="77.875" y="975.0221252441406" type="line"/>
      <point x="200.55500030517578" y="1044.9975662231445" type="line"/>
      <point x="200.55500030517578" y="750.3899993896484" type="line"/>
      <point x="77.875" y="750.3899993896484" type="line"/>
      <point x="77.875" y="615.75" type="line"/>
      <point x="433.44093322753906" y="615.75" type="line"/>
      <point x="90.625" y="440.1902618408203" type="line"/>
    </contour>
    <contour>
      <point x="664.5621643066406" y="228.23999786376953" type="line"/>
      <point x="718.8019256591797" y="310.2270050048828" type="line"/>
      <point x="718.8019256591797" y="228.23999786376953" type="line"/>
    </contour>
    <contour>
      <point x="503.125" y="93.5999984741211" type="line"/>
      <point x="718.8019256591797" y="93.5999984741211" type="line"/>
      <point x="718.8019256591797" y="-30" type="line"/>
      <point x="853.4419250488281" y="-30" type="line"/>
      <point x="853.4419250488281" y="93.5999984741211" type="line"/>
      <point x="902.125" y="93.5999984741211" type="line"/>
      <point x="902.125" y="228.23999786376953" type="line"/>
      <point x="853.4419250488281" y="228.23999786376953" type="line"/>
      <point x="853.4419250488281" y="554.25" type="line"/>
      <point x="718.8019256591797" y="554.25" type="line"/>
      <point x="503.125" y="228.23999786376953" type="line"/>
    </contour>
  </outline>
</glyph>
<glyph name="one_over_two" format="2">
  <advance width="1020"/>
  <unicode hex="00BD"/>
  <outline>
    <contour>
      <point x="77.62802124023438" y="643.5" type="line"/>
      <point x="474.3421630859375" y="643.5" type="line"/>
      <point x="474.3421630859375" y="767.8865509033203" type="line"/>
      <point x="348.73370361328125" y="767.8865509033203" type="line"/>
      <point x="348.73370361328125" y="1211.2105331420898" type="line"/>
      <point x="224.34715270996094" y="1211.2105331420898" type="line"/>
      <point x="77.62802124023438" y="1126.5022048950195" type="line"/>
      <point x="77.62802124023438" y="982.8729858398438" type="line"/>
      <point x="224.34715270996094" y="1067.581314086914" type="line"/>
      <point x="224.34715270996094" y="767.8865509033203" type="line"/>
      <point x="77.62802124023438" y="767.8865509033203" type="line"/>
    </contour>
    <contour>
      <point x="91.99507229851648" y="323.696872493961" type="line"/>
      <point x="952.3719768694867" y="720.309034929333" type="line"/>
      <point x="952.3719768694867" y="846.3031275060144" type="line"/>
      <point x="91.99507229851648" y="449.6909650706424" type="line"/>
    </contour>
    <contour>
      <point x="550.835319519043" y="0" type="line"/>
      <point x="949.660530090332" y="0" type="line"/>
      <point x="949.660530090332" y="124.38655090332031" type="line"/>
      <point x="752.753662109375" y="124.38655090332031" type="line"/>
      <point x="873.0908813476562" y="218.4935073852539" type="line"/>
      <point x="921.4193861291607" y="256.2877013458749"/>
      <point x="949.6605265767843" y="314.22445075041276"/>
      <point x="949.6605265767843" y="375.57626788291896" type="curve"/>
      <point x="949.6605265767843" y="485.63507863721645"/>
      <point x="860.3067343649631" y="574.9888708490377"/>
      <point x="750.2479236106656" y="574.9888708490377" type="curve" smooth="yes"/>
      <point x="640.1891128563681" y="574.9888708490377"/>
      <point x="550.8353206445469" y="485.63507863721645"/>
      <point x="550.8353206445469" y="375.57626788291896" type="curve"/>
      <point x="675.2218704223633" y="375.5762710571289" type="line"/>
      <point x="675.2218738101443" y="416.98427165909465"/>
      <point x="708.8399198344899" y="450.6023176834402"/>
      <point x="750.2479236106656" y="450.6023176834402" type="curve" smooth="yes"/>
      <point x="791.6559273868413" y="450.6023176834402"/>
      <point x="825.2739734111868" y="416.98427165909465"/>
      <point x="825.2739734111868" y="375.57626788291896" type="curve"/>
      <point x="825.2739734111868" y="352.49355185058295"/>
      <point x="814.6486609779154" y="330.69570466615136"/>
      <point x="796.4657742713343" y="316.47619657180786" type="curve"/>
      <point x="550.835319519043" y="124.38655090332031" type="line"/>
    </contour>
  </outline>
</glyph>
<glyph name="three_over_four" format="2">
  <advance width="980"/>
  <unicode hex="00BE"/>
  <outline>
    <contour>
      <point x="77.875" y="800.2225036621094" type="line"/>
      <point x="77.875" y="698.40935647305"/>
      <point x="163.01114619999998" y="615.75"/>
      <point x="267.875" y="615.75" type="curve" smooth="yes"/>
      <point x="372.73885379999996" y="615.75"/>
      <point x="457.875" y="698.40935647305"/>
      <point x="457.875" y="800.2225" type="curve"/>
      <point x="457.875" y="845.9618511031953"/>
      <point x="440.69250239341693" y="887.8355127795106"/>
      <point x="412.25804138183594" y="920.076171875" type="curve"/>
      <point x="434.93254671608304" y="949.3075228993347"/>
      <point x="448.375" y="985.6577658728415"/>
      <point x="448.375" y="1025.0275000000001" type="curve"/>
      <point x="448.375" y="1121.59745083695"/>
      <point x="367.49566111" y="1200.0"/>
      <point x="267.875" y="1200.0" type="curve" smooth="yes"/>
      <point x="168.25433889" y="1200.0"/>
      <point x="87.375" y="1121.59745083695"/>
      <point x="87.375" y="1025.0275000000001" type="curve"/>
      <point x="222.01499938964844" y="1025.0274963378906" type="line"/>
      <point x="222.01500000000001" y="1047.28761254415"/>
      <point x="242.56417718280002" y="1065.3600000000001"/>
      <point x="267.875" y="1065.3600000000001" type="curve" smooth="yes"/>
      <point x="293.1858228172" y="1065.3600000000001"/>
      <point x="313.73499999999996" y="1047.28761254415"/>
      <point x="313.73499999999996" y="1025.0275000000001" type="curve"/>
      <point x="313.73499999999996" y="1002.76738745585"/>
      <point x="293.1858228172" y="984.695"/>
      <point x="267.875" y="984.695" type="curve"/>
      <point x="225.125" y="984.6949996948242" type="line"/>
      <point x="225.125" y="850.0550003051758" type="line"/>
      <point x="267.875" y="850.0550003051758" type="line"/>
      <point x="298.4290155072" y="850.055"/>
      <point x="323.235" y="827.72580523415"/>
      <point x="323.235" y="800.2225" type="curve"/>
      <point x="323.235" y="772.71919476585"/>
      <point x="298.42901550719995" y="750.3900000000001"/>
      <point x="267.875" y="750.3900000000001" type="curve" smooth="yes"/>
      <point x="237.32098449280002" y="750.3900000000001"/>
      <point x="212.51500000000001" y="772.71919476585"/>
      <point x="212.51500000000001" y="800.2225" type="curve"/>
    </contour>
    <contour>
      <point x="90.62500000000003" y="314.9999999999958" type="line"/>
      <point x="900.625" y="729.8097414766552" type="line"/>
      <point x="900.625" y="855.0" type="line"/>
      <point x="90.62500000000003" y="440.1902585233407" type="line"/>
    </contour>
    <contour>
      <point x="664.5621643066406" y="228.23999786376953" type="line"/>
      <point x="718.8019256591797" y="310.2270050048828" type="line"/>
      <point x="718.8019256591797" y="228.23999786376953" type="line"/>
    </contour>
    <contour>
      <point x="503.125" y="93.5999984741211" type="line"/>
      <point x="718.8019256591797" y="93.5999984741211" type="line"/>
      <point x="718.8019256591797" y="-30" type="line"/>
      <point x="853.4419250488281" y="-30" type="line"/>
      <point x="853.4419250488281" y="93.5999984741211" type="line"/>
      <point x="902.125" y="93.5999984741211" type="line"/>
      <point x="902.125" y="228.23999786376953" type="line"/>
      <point x="853.4419250488281" y="228.23999786376953" type="line"/>
      <point x="853.4419250488281" y="554.25" type="line"/>
      <point x="718.8019256591797" y="554.25" type="line"/>
      <point x="503.125" y="228.23999786376953" type="line"/>
    </contour>
  </outline>
</glyph>
<glyph name="invertedquestion" format="2">
  <advance width="1020"/>
  <unicode hex="00BF"/>
  <outline>
    <contour>
      <point x="376.28709" y="703.51644" type="curve" smooth="yes"/>
      <point x="376.28709" y="621.43955"/>
      <point x="442.92311" y="554.80353"/>
      <point x="525.0" y="554.80353" type="curve" smooth="yes"/>
      <point x="607.07689" y="554.80353"/>
      <point x="673.71291" y="621.43955"/>
      <point x="673.71291" y="703.51644" type="curve" smooth="yes"/>
      <point x="673.71291" y="785.59333"/>
      <point x="607.07689" y="852.22935"/>
      <point x="525.0" y="852.22935" type="curve" smooth="yes"/>
      <point x="442.92311" y="852.22935"/>
      <point x="376.28709" y="785.59333"/>
    </contour>
    <contour>
      <point x="617.4178009033203" y="488.81314849853516" type="line"/>
      <point x="432.5821990966797" y="488.81314849853516" type="line"/>
      <point x="432.5821990966797" y="388.9474105834961" type="line"/>
      <point x="273.4769011914616" y="347.8819269797276"/>
      <point x="155.79791" y="203.29094095518997"/>
      <point x="155.79791000000006" y="31.431439999999952" type="curve"/>
      <point x="155.79791" y="-172.33674"/>
      <point x="321.23182" y="-337.77065"/>
      <point x="525.0" y="-337.77065" type="curve" smooth="yes"/>
      <point x="728.76818" y="-337.77065"/>
      <point x="894.20209" y="-172.33674"/>
      <point x="894.20209" y="31.43144" type="curve"/>
      <point x="709.3664779663086" y="31.431442260742188" type="line"/>
      <point x="709.36648" y="-70.32319"/>
      <point x="626.75463" y="-152.93504"/>
      <point x="525.0" y="-152.93504" type="curve" smooth="yes"/>
      <point x="423.24537" y="-152.93504"/>
      <point x="340.63352" y="-70.32319000000003"/>
      <point x="340.63352" y="31.43144" type="curve"/>
      <point x="340.63352" y="94.58621699548006"/>
      <point x="367.27386374893183" y="215.79790556667353"/>
      <point x="567.75" y="215.7979112016062" type="curve"/>
      <point x="617.4178009033203" y="215.79791259765625" type="line"/>
    </contour>
  </outline>
</glyph>
<glyph name="A_with_grave" format="2">
  <advance width="980"/>
  <unicode hex="00C0"/>
  <outline>
    <contour>
      <point x="562.3841991198393" y="1320.0" type="line"/>
      <point x="415.28327679101903" y="1580.0" type="line"/>
      <point x="270.51487855134053" y="1580.0" type="line"/>
      <point x="417.6158008801607" y="1320.0" type="line"/>
    </contour>
    <contour>
      <point x="40" y="-30" type="line"/>
      <point x="227.3999252319336" y="-30" type="line"/>
      <point x="310.99180603027344" y="258.57142639160156" type="line"/>
      <point x="669.0081939697266" y="258.57142639160156" type="line"/>
      <point x="752.6000747680664" y="-30" type="line"/>
      <point x="940" y="-30" type="line"/>
      <point x="583.6999664306641" y="1200" type="line"/>
      <point x="396.30003356933594" y="1200" type="line"/>
    </contour>
    <contour>
      <point x="363.1332702636719" y="438.57142639160156" type="line"/>
      <point x="490" y="876.5339736938477" type="line"/>
      <point x="616.8667297363281" y="438.57142639160156" type="line"/>
    </contour>
  </outline>
</glyph>
<glyph name="A_with_acute" format="2">
  <advance width="1020"/>
  <unicode hex="00C1"/>
  <outline>
    <contour>
      <point x="435.671237391376" y="1282.5902165196471" type="line"/>
      <point x="584.328762608624" y="1282.5902165196471" type="line"/>
      <point x="722.3464684023047" y="1526.5356856455492" type="line"/>
      <point x="573.6889431850566" y="1526.5356856455492" type="line"/>
    </contour>
    <contour>
      <point x="51.66399383544922" y="0" type="line"/>
      <point x="245.1260986328125" y="0" type="line"/>
      <point x="325.7543182373047" y="260.87867736816406" type="line"/>
      <point x="694.2456817626953" y="260.87867736816406" type="line"/>
      <point x="774.8739013671875" y="0" type="line"/>
      <point x="968.3360061645508" y="0" type="line"/>
      <point x="606.7310485839844" y="1170" type="line"/>
      <point x="413.2689514160156" y="1170" type="line"/>
    </contour>
    <contour>
      <point x="382.88036346435547" y="445.7142868041992" type="line"/>
      <point x="510" y="857.019416809082" type="line"/>
      <point x="637.1196365356445" y="445.7142868041992" type="line"/>
    </contour>
  </outline>
</glyph>
<glyph name="A_with_circumflex" format="2">
  <advance width="980"/>
  <unicode hex="00C2"/>
  <outline>
    <contour>
      <point x="210" y="1320" type="line"/>
      <point x="373.43882751464844" y="1320" type="line"/>
      <point x="490" y="1461.0863342285156" type="line"/>
      <point x="606.5611724853516" y="1320" type="line"/>
      <point x="770" y="1320" type="line"/>
      <point x="571.7194137573242" y="1560" type="line"/>
      <point x="408.2805862426758" y="1560" type="line"/>
    </contour>
    <contour>
      <point x="40" y="-30" type="line"/>
      <point x="227.3999252319336" y="-30" type="line"/>
      <point x="310.99180603027344" y="258.57142639160156" type="line"/>
      <point x="669.0081939697266" y="258.57142639160156" type="line"/>
      <point x="752.6000747680664" y="-30" type="line"/>
      <point x="940" y="-30" type="line"/>
      <point x="583.6999664306641" y="1200" type="line"/>
      <point x="396.30003356933594" y="1200" type="line"/>
    </contour>
    <contour>
      <point x="363.1332702636719" y="438.57142639160156" type="line"/>
      <point x="490" y="876.5339736938477" type="line"/>
      <point x="616.8667297363281" y="438.57142639160156" type="line"/>
    </contour>
  </outline>
</glyph>
<glyph name="A_with_smalltilde" format="2">
  <advance width="1020"/>
  <unicode hex="00C3"/>
  <outline>
    <contour>
      <point x="559.06252" y="1423.34868" type="curve"/>
      <point x="535.1496200561523" y="1440.0926666259766" type="line"/>
      <point x="502.82703" y="1462.7252"/>
      <point x="464.32382" y="1474.86521"/>
      <point x="424.86521" y="1474.86521" type="curve"/>
      <point x="318.74576" y="1474.86521"/>
      <point x="232.59022" y="1388.70968"/>
      <point x="232.59022" y="1282.59022" type="curve"/>
      <point x="361.9751434326172" y="1282.590217590332" type="line"/>
      <point x="361.97514" y="1317.30019"/>
      <point x="390.15524" y="1345.48029"/>
      <point x="424.86521" y="1345.48029" type="curve"/>
      <point x="437.77149" y="1345.48029"/>
      <point x="450.36527" y="1341.50949"/>
      <point x="460.93748" y="1334.10675" type="curve"/>
      <point x="484.85037994384766" y="1317.3627624511719" type="line"/>
      <point x="517.17297" y="1294.73023"/>
      <point x="555.67618" y="1282.59022"/>
      <point x="595.13479" y="1282.59022" type="curve"/>
      <point x="701.25424" y="1282.59022"/>
      <point x="787.40978" y="1368.74576"/>
      <point x="787.40978" y="1474.86521" type="curve"/>
      <point x="658.0248565673828" y="1474.8652114868164" type="line"/>
      <point x="658.02486" y="1440.15524"/>
      <point x="629.84476" y="1411.97514"/>
      <point x="595.13479" y="1411.97514" type="curve"/>
      <point x="582.22851" y="1411.97514"/>
      <point x="569.63473" y="1415.94594"/>
    </contour>
    <contour>
      <point x="24.532882690429688" y="0" type="line"/>
      <point x="219.27188110351562" y="0" type="line"/>
      <point x="305.80725860595703" y="260.87867736816406" type="line"/>
      <point x="714.192741394043" y="260.87867736816406" type="line"/>
      <point x="800.7281188964844" y="0" type="line"/>
      <point x="995.4671173095703" y="0" type="line"/>
      <point x="607.369499206543" y="1170" type="line"/>
      <point x="412.63050079345703" y="1170" type="line"/>
    </contour>
    <contour>
      <point x="367.11859130859375" y="445.7142868041992" type="line"/>
      <point x="510" y="876.4596405029297" type="line"/>
      <point x="652.8814086914062" y="445.7142868041992" type="line"/>
    </contour>
  </outline>
</glyph>
<glyph name="A_with_diaeresis" format="2">
  <advance width="1020"/>
  <unicode hex="00C4"/>
  <outline>
    <contour>
      <point x="483.52253408179627" y="1408.785084202085" type="curve" smooth="yes"/>
      <point x="483.52253408179627" y="1478.4339271229348"/>
      <point x="426.9765093202085" y="1534.9799518845227"/>
      <point x="357.32766639935846" y="1534.9799518845227" type="curve" smooth="yes"/>
      <point x="287.67882347850843" y="1534.9799518845227"/>
      <point x="231.1327987169206" y="1478.4339271229348"/>
      <point x="231.1327987169206" y="1408.785084202085" type="curve" smooth="yes"/>
      <point x="231.1327987169206" y="1339.136241281235"/>
      <point x="287.6788234785084" y="1282.5902165196471"/>
      <point x="357.3276663993584" y="1282.5902165196471" type="curve" smooth="yes"/>
      <point x="426.9765093202085" y="1282.5902165196471"/>
      <point x="483.52253408179627" y="1339.136241281235"/>
    </contour>
    <contour>
      <point x="788.8672012830793" y="1408.785084202085" type="curve" smooth="yes"/>
      <point x="788.8672012830793" y="1478.4339271229348"/>
      <point x="732.3211765214915" y="1534.9799518845227"/>
      <point x="662.6723336006414" y="1534.9799518845227" type="curve" smooth="yes"/>
      <point x="593.0234906797916" y="1534.9799518845227"/>
      <point x="536.4774659182037" y="1478.4339271229348"/>
      <point x="536.4774659182037" y="1408.785084202085" type="curve" smooth="yes"/>
      <point x="536.4774659182037" y="1339.136241281235"/>
      <point x="593.0234906797916" y="1282.5902165196471"/>
      <point x="662.6723336006414" y="1282.5902165196471" type="curve" smooth="yes"/>
      <point x="732.3211765214915" y="1282.5902165196471"/>
      <point x="788.8672012830793" y="1339.136241281235"/>
    </contour>
    <contour>
      <point x="51.66399383544922" y="0" type="line"/>
      <point x="245.1260986328125" y="0" type="line"/>
      <point x="325.7543182373047" y="260.87867736816406" type="line"/>
      <point x="694.2456817626953" y="260.87867736816406" type="line"/>
      <point x="774.8739013671875" y="0" type="line"/>
      <point x="968.3360061645508" y="0" type="line"/>
      <point x="606.7310485839844" y="1170" type="line"/>
      <point x="413.2689514160156" y="1170" type="line"/>
    </contour>
    <contour>
      <point x="382.88036346435547" y="445.7142868041992" type="line"/>
      <point x="510" y="857.019416809082" type="line"/>
      <point x="637.1196365356445" y="445.7142868041992" type="line"/>
    </contour>
  </outline>
</glyph>
<glyph name="A_with_ring" format="2">
  <advance width="1020"/>
  <unicode hex="00C5"/>
  <outline>
    <contour>
      <point x="695.46111" y="1402.59022" type="curve" smooth="yes"/>
      <point x="695.46111" y="1504.94899"/>
      <point x="612.35877" y="1588.05132"/>
      <point x="510.0" y="1588.05132" type="curve" smooth="yes"/>
      <point x="407.64123" y="1588.05132"/>
      <point x="324.53889" y="1504.94899"/>
      <point x="324.53889" y="1402.59022" type="curve" smooth="yes"/>
      <point x="324.53889" y="1300.23145"/>
      <point x="407.64123" y="1217.12911"/>
      <point x="510.0" y="1217.12911" type="curve" smooth="yes"/>
      <point x="612.35877" y="1217.12911"/>
      <point x="695.46111" y="1300.23145"/>
    </contour>
    <contour>
      <point x="566.07618" y="1402.59022" type="curve" smooth="yes"/>
      <point x="566.07618" y="1371.64093"/>
      <point x="540.94929" y="1346.51403"/>
      <point x="510.0" y="1346.51403" type="curve" smooth="yes"/>
      <point x="479.05071" y="1346.51403"/>
      <point x="453.92382" y="1371.64093"/>
      <point x="453.92382" y="1402.59022" type="curve" smooth="yes"/>
      <point x="453.92382" y="1433.5395"/>
      <point x="479.05071" y="1458.6664"/>
      <point x="510.0" y="1458.6664" type="curve" smooth="yes"/>
      <point x="540.94929" y="1458.6664"/>
      <point x="566.07618" y="1433.5395"/>
    </contour>
    <contour>
      <point x="24.532882690429688" y="0" type="line"/>
      <point x="219.27188110351562" y="0" type="line"/>
      <point x="305.80725860595703" y="260.87867736816406" type="line"/>
      <point x="714.192741394043" y="260.87867736816406" type="line"/>
      <point x="800.7281188964844" y="0" type="line"/>
      <point x="995.4671173095703" y="0" type="line"/>
      <point x="607.369499206543" y="1170" type="line"/>
      <point x="412.63050079345703" y="1170" type="line"/>
    </contour>
    <contour>
      <point x="367.11859130859375" y="445.7142868041992" type="line"/>
      <point x="510" y="876.4596405029297" type="line"/>
      <point x="652.8814086914062" y="445.7142868041992" type="line"/>
    </contour>
  </outline>
</glyph>
<glyph name="AE" format="2">
  <advance width="1020"/>
  <unicode hex="00C6"/>
  <outline>
    <contour>
      <point x="-3.3958053588867188" y="0" type="line"/>
      <point x="195.86722564697266" y="0" type="line"/>
      <point x="300.93482208251953" y="260.87867736816406" type="line"/>
      <point x="482.24332427978516" y="260.87867736816406" type="line"/>
      <point x="482.24332427978516" y="0" type="line"/>
      <point x="973.3958053588867" y="0" type="line"/>
      <point x="973.3958053588867" y="184.83560180664062" type="line"/>
      <point x="667.0789337158203" y="184.83560180664062" type="line"/>
      <point x="667.0789337158203" y="492.5821990966797" type="line"/>
      <point x="945.2482528686523" y="492.5821990966797" type="line"/>
      <point x="945.2482528686523" y="677.4178009033203" type="line"/>
      <point x="667.0789337158203" y="677.4178009033203" type="line"/>
      <point x="667.0789337158203" y="985.1643981933594" type="line"/>
      <point x="973.3958053588867" y="985.1643981933594" type="line"/>
      <point x="973.3958053588867" y="1170" type="line"/>
      <point x="467.8158950805664" y="1170" type="line"/>
    </contour>
    <contour>
      <point x="375.37644958496094" y="445.7142868041992" type="line"/>
      <point x="482.24332427978516" y="711.0605087280273" type="line"/>
      <point x="482.24332427978516" y="445.7142868041992" type="line"/>
    </contour>
  </outline>
</glyph>
<glyph name="C_with_cedilla" format="2">
  <advance width="1020"/>
  <unicode hex="00C7"/>
  <outline>
    <contour>
      <point x="76.38532224542693" y="458.8646774291992" type="line"/>
      <point x="76.38532475653321" y="128.9371415635843"/>
      <point x="289.3767121778586" y="8.377206819614877"/>
      <point x="447.8075408935547" y="-15.21807861328125" type="curve"/>
      <point x="447.8075408935547" y="-121.40978240966797" type="line"/>
      <point x="500.99081473033465" y="-121.40978240966797" type="line"/>
      <point x="548.733081510659" y="-121.40978240966797"/>
      <point x="552.10265" y="-151.91286312352648"/>
      <point x="552.10265" y="-161.01243" type="curve" smooth="yes"/>
      <point x="552.10265" y="-170.1119968764735"/>
      <point x="548.733081510659" y="-200.61507930963023"/>
      <point x="500.99081487226374" y="-200.61508021929114" type="curve"/>
      <point x="418.70609283447266" y="-200.61508178710938" type="line"/>
      <point x="418.70609283447266" y="-330" type="line"/>
      <point x="469.75" y="-330.0" type="line"/>
      <point x="650.6947232677194" y="-330.0"/>
      <point x="681.48757" y="-228.40090725867304"/>
      <point x="681.48757" y="-161.01243" type="curve" smooth="yes"/>
      <point x="681.48757" y="-96.95111622241997"/>
      <point x="645.7641646122876" y="-41.167615099709934"/>
      <point x="593.1686630249023" y="-12.534614562988281" type="curve"/>
      <point x="795.3842237903079" y="25.341212063783402"/>
      <point x="948.61468" y="202.97470359232"/>
      <point x="948.61468" y="416.11468" type="curve"/>
      <point x="763.7790679931641" y="416.1146774291992" type="line"/>
      <point x="763.77907" y="277.42998"/>
      <point x="651.18469" y="164.83561"/>
      <point x="512.5" y="164.83561" type="curve" smooth="yes"/>
      <point x="420.5774791022992" y="164.83561"/>
      <point x="261.2209287996985" y="214.09188727502686"/>
      <point x="261.22093025399556" y="458.86468" type="curve"/>
      <point x="261.2209317528404" y="711.1353225708008" type="line"/>
      <point x="261.2209332071374" y="955.908115167234"/>
      <point x="420.5774791022992" y="1005.16439"/>
      <point x="512.5" y="1005.16439" type="curve" smooth="yes"/>
      <point x="651.18469" y="1005.16439"/>
      <point x="763.77907" y="892.57002"/>
      <point x="763.77907" y="753.88532" type="curve"/>
      <point x="948.6146774291992" y="753.8853225708008" type="line"/>
      <point x="948.61468" y="994.5835623137208"/>
      <point x="753.1982400000002" y="1190.0"/>
      <point x="512.5" y="1190.0" type="curve" smooth="yes"/>
      <point x="327.9015975053066" y="1190.0"/>
      <point x="76.38531761792609" y="1066.859642599275"/>
      <point x="76.38532032537384" y="711.13532" type="curve"/>
    </contour>
  </outline>
</glyph>
<glyph name="E_with_grave" format="2">
  <advance width="1020"/>
  <unicode hex="00C8"/>
  <outline>
    <contour>
      <point x="586.4482483661625" y="1276.0242005185826" type="line"/>
      <point x="449.13710219924303" y="1518.7208297320656" type="line"/>
      <point x="301.24060546691805" y="1518.7208297320656" type="line"/>
      <point x="438.5517516338375" y="1276.0242005185826" type="line"/>
    </contour>
    <contour>
      <point x="126.51901245117188" y="0" type="line"/>
      <point x="898.4809875488281" y="0" type="line"/>
      <point x="898.4809875488281" y="183.88936614990234" type="line"/>
      <point x="310.40838623046875" y="183.88936614990234" type="line"/>
      <point x="310.40838623046875" y="490.0605010986328" type="line"/>
      <point x="842.4740676879883" y="490.0605010986328" type="line"/>
      <point x="842.4740676879883" y="673.9498672485352" type="line"/>
      <point x="310.40838623046875" y="673.9498672485352" type="line"/>
      <point x="310.40838623046875" y="980.1210021972656" type="line"/>
      <point x="898.4809875488281" y="980.1210021972656" type="line"/>
      <point x="898.4809875488281" y="1164.010368347168" type="line"/>
      <point x="126.51901245117188" y="1164.010368347168" type="line"/>
    </contour>
  </outline>
</glyph>
<glyph name="E_with_acute" format="2">
  <advance width="980"/>
  <unicode hex="00C9"/>
  <outline>
    <contour>
      <point x="432.6158008801607" y="1320.0" type="line"/>
      <point x="577.3841991198392" y="1320.0" type="line"/>
      <point x="724.4851214486595" y="1580.0" type="line"/>
      <point x="579.716723208981" y="1580.0" type="line"/>
    </contour>
    <contour>
      <point x="85" y="-30" type="line"/>
      <point x="925" y="-30" type="line"/>
      <point x="925" y="150" type="line"/>
      <point x="265" y="150" type="line"/>
      <point x="265" y="495" type="line"/>
      <point x="865" y="495" type="line"/>
      <point x="865" y="675" type="line"/>
      <point x="265" y="675" type="line"/>
      <point x="265" y="1020" type="line"/>
      <point x="925" y="1020" type="line"/>
      <point x="925" y="1200" type="line"/>
      <point x="85" y="1200" type="line"/>
    </contour>
  </outline>
</glyph>
<glyph name="E_with_circumflex" format="2">
  <advance width="1020"/>
  <unicode hex="00CA"/>
  <outline>
    <contour>
      <point x="236.51036834716797" y="1276.0242004394531" type="line"/>
      <point x="405.79527282714844" y="1276.0242004394531" type="line"/>
      <point x="512.5" y="1400.9531936645508" type="line"/>
      <point x="619.2047271728516" y="1276.0242004394531" type="line"/>
      <point x="788.489631652832" y="1276.0242004394531" type="line"/>
      <point x="597.142448425293" y="1500.051856994629" type="line"/>
      <point x="427.85755157470703" y="1500.051856994629" type="line"/>
    </contour>
    <contour>
      <point x="126.51901245117188" y="0" type="line"/>
      <point x="898.4809875488281" y="0" type="line"/>
      <point x="898.4809875488281" y="183.88936614990234" type="line"/>
      <point x="310.40838623046875" y="183.88936614990234" type="line"/>
      <point x="310.40838623046875" y="490.0605010986328" type="line"/>
      <point x="842.4740676879883" y="490.0605010986328" type="line"/>
      <point x="842.4740676879883" y="673.9498672485352" type="line"/>
      <point x="310.40838623046875" y="673.9498672485352" type="line"/>
      <point x="310.40838623046875" y="980.1210021972656" type="line"/>
      <point x="898.4809875488281" y="980.1210021972656" type="line"/>
      <point x="898.4809875488281" y="1164.010368347168" type="line"/>
      <point x="126.51901245117188" y="1164.010368347168" type="line"/>
    </contour>
  </outline>
</glyph>
